<?xml version="1.0" encoding="UTF-8"?>
<svg id="Layer_2" data-name="Layer 2" xmlns="http://www.w3.org/2000/svg" viewBox="0 0 344.06 690">
  <defs>
    <style>
      .cls-1 {
        fill: #000;
        stroke-width: 0px;
      }
    </style>
  </defs>
  <g id="bishop">
    <g>
      <path class="cls-1" d="M323.14,626.66c.31.35.39.53.53.59,23.15,10.15,20.64,22.48,19.97,43.27-.18,5.47-4.7,7.92-9.56,8.76-10.82,1.87-21.65,3.95-32.57,4.99-78.83,7.53-157.76,7.08-236.7,1.86-16.76-1.11-33.43-3.65-50.12-5.68-2.94-.36-6.25-.82-8.55-2.43-2.48-1.74-5.35-4.73-5.63-7.43-.73-7.08-.65-14.34.04-21.44.83-8.61,6.01-14.59,13.68-18.43,2.2-1.1,4.43-2.15,6.92-3.35-7.41-11.65-10.01-23.94-4.93-36.45,2.8-6.9,7.4-13.36,12.33-19.03,5.43-6.24,12.28-11.23,18.29-17,3.6-3.45,7.11-7.08,10.07-11.07,5.49-7.39,6.68-15.26,2.15-23.85-4.1-7.79-3.26-15.31,3.07-21.05,15.2-13.8,23.57-31.71,30.89-50.17,13.04-32.91,19.8-67.34,22.88-102.49,1.41-16.09,1.86-32.26,2.69-48.4.14-2.79.02-5.59.02-9.09-7.7,0-14.97.12-22.23-.02-13.84-.27-22.36-10.08-20.41-23.66,1.14-7.99,5.95-13.07,13.46-15.91,1.52-.57,3.65-2.19,3.74-3.46.74-9.98,5.51-16.56,14.2-18.93-1.9-4.05-4.52-7.84-5.42-12-1.04-4.84,1.68-8.85,5.37-12.24.92-.85.98-3.62.35-5.03-7.66-17.17-15.49-34.26-23.33-51.34-2.01-4.38-4.19-8.7-6.4-12.98-4.7-9.11-4.6-18.41,1.17-26.58,7.17-10.15,14.47-20.62,23.58-28.89,13.01-11.8,27.7-21.74,41.69-32.46,1.17-.9,2.45-1.66,3.63-2.46-6.67-17.57-4.58-29.04,6.68-37.31,10.22-7.5,25.17-7.32,34.99.43,10.8,8.52,12.89,20.66,6.16,36.8,5.75,3.77,11.67,7.41,17.33,11.41,17.65,12.48,33.67,26.71,46.63,44.15,2.18,2.93,4.09,6.08,5.89,9.27,4.48,7.97,4.79,16.12.75,24.39-6.65,13.61-13.41,27.17-19.84,40.88-3.89,8.28-7.37,16.76-10.73,25.27-.54,1.36-.06,3.93.94,4.97,7.52,7.83,7.25,15.46-1.46,22.95,10.06,2.96,14.98,9.71,15.74,19.92.09,1.26,2.79,2.68,4.54,3.41,8.38,3.47,13.14,10.79,12.77,20.09-.34,8.68-6.02,16.18-14.37,18.36-2.84.74-5.93.7-8.91.75-6.45.1-12.91.03-19.27.03-.35.98-.65,1.43-.65,1.89.02,52.31,5.77,103.76,23.93,153.2,3.89,10.59,8.49,21.06,14.07,30.84,4.64,8.14,10.75,15.58,17.02,22.61,7.24,8.11,8.85,14.19,4,23.92-3.17,6.37-3.13,12.72.45,18.61,2.83,4.64,6.31,9.02,10.13,12.89,5.72,5.81,12.06,11,18.02,16.58,19.03,17.83,22,34.32,10.29,57.52ZM73.98,527.22c.56,10.87-3.21,19.6-9.78,27.1-4.16,4.75-8.73,9.15-13.28,13.54-4.79,4.63-9.96,8.87-14.61,13.62-7.39,7.53-11.15,16.47-9.24,27.24,1.39,7.84,4.1,10.59,12,11.56,10.57,1.3,21.15,2.66,31.77,3.5,41.38,3.28,82.81,4.75,124.3,2.34,7.29-.42,14.66-1.19,21.75-2.84,14.55-3.38,21.11-15.15,16.19-29.25-2.22-6.36-5.94-12.22-9.16-18.2-3.86-7.17-9.11-13.84-11.6-21.43-3.52-10.74-10.55-15.08-20.91-16.03-2.32-.21-4.6-.76-6.92-.97-26.7-2.36-53.41-4.64-80.11-7.05-9.92-.89-19.81-2.05-30.38-3.16ZM209.16,498.79c-.38-1.64-.6-2.44-.75-3.25-4.49-24.37-10.45-48.59-13.08-73.16-3.41-31.93-4.32-64.13-5.95-96.23-.34-6.73-2.95-11.36-8.42-14.83-9.45-6-19.94-9.15-30.85-10.93-6.13-1-12.36-1.37-18.75-2.05-2.11,69.71-10.71,136.77-48.31,197.4,42.24,4.02,83.8,4.43,126.1,3.04ZM185.46,61.72c-8.28-12.82-22.54-15-33.43-7.71-6.91,4.63-14.15,8.82-20.8,13.81-14.99,11.25-28.55,23.99-39.21,39.59-5.28,7.72-5.89,15.51-1.84,24.03,10.13,21.36,19.95,42.86,30.08,64.21.67,1.42,2.83,3.01,4.32,3.03,18.49.24,36.99.16,55.49.28,4.69.03,8.05-1.84,9.95-6.06,6.41-14.24,13.32-28.29,18.94-42.83,4.63-11.98,7.23-24.61,5.17-37.71-2.47-15.72-9.82-29.03-19.94-41.88-16.83,17.99-33.17,35.45-49.81,53.23-1.7-1.55-3.26-3.3-5.13-4.61-3.88-2.74-3.4-5.16-.34-8.34,8.22-8.51,16.15-17.29,24.28-25.88,7.32-7.73,14.75-15.35,22.28-23.17ZM326.41,643.7c-4.94-2.97-9.35-6.75-15.76-5.55-5.56,1.05-11.19,1.95-16.82,2.28-31.75,1.91-63.49,4.51-95.28,5.22-55.82,1.24-111.63.32-167.07-7.59-1.26-.18-2.67-.12-3.88.26-11.76,3.65-14.7,7.6-14.82,19.7-.02,2-.22,4.04.12,5.98.18,1.04,1.15,2.51,2.04,2.75,3.32.9,6.75,1.36,10.37,2.03.49-5.67.77-10.79,1.48-15.85.18-1.28,1.76-3.39,2.64-3.35,4.05.14,8.07.91,11.6,1.38,0,5,.2,9.31-.05,13.6-.29,4.91,1.85,6.65,6.64,6.93,16.46.96,32.89,3.01,49.35,3.29,43.47.72,86.95.71,130.43,1.07,3.3.03,4.95-1.3,5.29-4.49.18-1.65.49-3.3.59-4.96.49-8.39.16-8.68-8.11-8.99-5.16-.2-10.31-.57-15.47-.93-5.13-.36-10.26-.79-15.38-1.18,44.13-3.05,88.31-3.99,132.09-11.59ZM172.48,258.17v.08c-24.65,0-49.3-.02-73.95.01-7.06.01-11,3.26-11.41,9.17-.44,6.43,4.06,10.81,11.39,10.82,48.63.04,97.27.04,145.9,0,2.13,0,4.4-.2,6.36-.94,6.98-2.63,8.84-12.31,2.97-16.64-2.3-1.7-5.83-2.37-8.82-2.4-24.15-.18-48.3-.1-72.45-.1ZM273.49,509.79c.06-.68.12-1.35.18-2.03-2.07-.54-4.16-1.61-6.2-1.53-7.98.33-15.94,1.08-23.92,1.58-47.91,3.01-95.81,3.41-143.72-.12-7.8-.57-15.59-1.3-23.38-2.03-4.12-.38-6.41,1.66-6.92,5.48-.48,3.63,2.04,4.92,5.17,5.37,1.98.29,3.94.65,5.92.91,41.39,5.52,82.99,5.8,124.63,4.74,8.89-.23,8.92-.35,11.03-8.51,19.08-1.29,38.14-2.58,57.21-3.87ZM238.24,248.43c3.99-6.42-.49-13.11-8.45-13.13-38.11-.08-76.21-.03-114.32.16-2.67.01-6.08.7-7.82,2.42-1.92,1.91-2.96,5.35-3.01,8.16-.02.96,4.08,2.87,6.3,2.88,28.12.12,56.25,0,84.37-.14,8.81-.04,9.92-1.49,8.15-10.25,8.86,0,17.67-.02,26.48,0,3.66.01,5.82,2.09,6.99,5.36.48,1.33.8,2.72,1.32,4.53ZM229.9,217.89c2.66-5.38.18-8.93-5.47-9.16-5.99-.25-11.99-.11-17.99-.1-28.49.03-56.99.03-85.48.15-5.57.02-8.81,2.38-8.31,5.8.7,4.78,4.62,4.47,8.13,4.62.5.02,1,0,1.5,0,21,.05,41.99,0,62.99.23,5.17.06,8.98-.83,8.99-7.16,9.62,0,18.78.15,27.93-.07,3.76-.09,6.56.65,7.73,5.7ZM260.77,495.3c-14.82-22.27-24.67-46.36-31.73-71.62-10.99-39.33-15.65-79.57-16.82-120.28-.05-1.76-.42-3.51-.64-5.27-.59,0-1.18,0-1.77.01-.22,1.46-.62,2.91-.63,4.37-.3,38.58,2.86,76.81,12.02,114.38,6.59,27.03,17.02,52.47,32.41,75.75,1.62,2.46,3.11,4.88,7.16,2.66ZM218.22,197.95c.59.45,1.17.91,1.76,1.36,1.22-1.37,2.85-2.54,3.6-4.13,9.71-20.41,19.01-41.03,29.05-61.28,5.19-10.47,4.49-19.55-2.44-28.82-15.88-21.26-35.53-38.15-58.44-51.36-1.35-.78-2.85-1.28-4.28-1.91,5.82,5.62,12.16,10.37,18.29,15.38,13.44,10.97,26.21,22.61,36.38,36.83,7.31,10.21,8.78,20.84,3.15,32.39-4.15,8.51-7.91,17.23-11.71,25.91-5.19,11.85-10.25,23.76-15.36,35.64ZM189.41,31.71c.11-.31.54-1.02.6-1.76.57-6.99-1.43-12.88-7.7-16.67-6.67-4.03-13.52-4.48-20.25-.15-6.69,4.31-9.31,11.88-6.86,19.16,1.78,5.31,6.48,8.3,12.46,7.94,7.58-.45,13.79-5.94,15.16-13.57.29-1.62.16-3.31.2-4.97.03-1.18,0-2.37,0-3.55.63-.14,1.25-.29,1.88-.43,1.5,4.68,3,9.35,4.5,13.99ZM269.32,524.99c-.68-.02-1.36-.04-2.04-.06-.26,4.64-1.12,9.33-.65,13.89.92,9.08,5.26,16.83,11.57,23.27,6.52,6.65,13.49,12.85,20.2,19.32,12.81,12.34,14.68,22.73,6.99,38.35,7.06-.89,10.86-5.35,11.64-13.57.96-10.11-3.24-18.23-10.13-25.03-6.15-6.07-12.77-11.68-19.16-17.51-11.34-10.35-19.77-22.13-18.42-38.67ZM331.17,649.26c-2.47,1.59-4.95,2.38-5.04,3.37-.41,4.87-.19,9.79-.19,14.69.51.27,1.03.54,1.54.82,1.23-1.29,3.37-2.49,3.52-3.89.46-4.41.17-8.9.17-14.99Z"/>
      <path class="cls-1" d="M54.66,616.44c-3.92-.38-8.06-.54-12.08-1.32-1.11-.21-2.42-2.17-2.67-3.51-1.76-9.55,1.47-17.79,7.63-24.87,3.71-4.26,7.9-8.12,12.03-11.98,9.41-8.81,18.14-18.1,23.77-30.24-.36,1.76-.61,3.55-1.1,5.28-3.22,11.14-9.8,20.31-17.05,29.09-5.66,6.87-11.05,14.01-11.52,23.32-.23,4.57.6,9.18.98,14.24Z"/>
      <path class="cls-1" d="M130.47,407.79c-1.51,9.14-2.62,18.36-4.63,27.39-3.79,17.03-8.16,33.93-12.14,50.91-.92,3.9-2.62,5.79-6.89,4.86-2.38-.52-4.9-.4-8.28-.63,14.54-26.45,24.37-54,30.72-82.82.4.1.81.2,1.21.3Z"/>
      <path class="cls-1" d="M117.68,169.36c-5.88-14.95-12.12-29.78-17.39-44.95-1.26-3.62-.21-8.74,1.37-12.5,4.2-9.95,12.04-17.24,20.53-23.95-2.02,2.9-3.97,5.84-6.06,8.69-7.97,10.89-10.54,22.7-6.71,35.86,3.16,10.85,5.93,21.82,8.85,32.75.32,1.19.54,2.4.8,3.6-.47.16-.94.33-1.4.49Z"/>
      <path class="cls-1" d="M211.03,261.84c12.35,0,24.26-.11,36.17.07,3.37.05,5.72,2.22,5.64,5.75-.09,3.91-2.09,6.75-6.33,6.93-5.97.25-11.95.26-17.93.29-8.7.04-17.4.01-26.47.01q10.34-5.31,8.92-13.04Z"/>
    </g>
  </g>
</svg>