<svg viewBox="0 0 389 755" fill="none" xmlns="http://www.w3.org/2000/svg"><path d="M366.242 683.72c3.44 2.16 7.01 4.23 10.4 6.57 7.46 5.14 11.73 12.19 12.04 21.35.19 5.66.291 11.34.071 16.99-.3 7.6-2.721 11.27-10.181 12.8-13.35 2.74-26.799 5.5-40.349 6.75-83.65 7.74-167.451 7.19-251.22 2.81-23.57-1.23-47.01-4.91-70.49-7.57-2.61-.3-5.18-1.22-7.71-2.02-5.76-1.83-8.76-5.77-8.75-11.89 0-5.33.02-10.67-.05-16-.13-11.04 4.81-19.13 14.22-24.64 2.7-1.58 5.42-3.14 7.75-4.49-1.63-5.61-3.8-10.74-4.52-16.07-1.94-14.26 3.03-26.29 13.63-35.82 6.93-6.23 14.43-11.83 21.42-18.01 3.72-3.29 7.31-6.9 10.19-10.92 4.74-6.62 5.93-13.77 2.14-21.63-4.92-10.22-2.88-17.9 6.8-23.42 9.44-5.38 15.4-13.58 20.77-22.44 15.89-26.25 25.14-55.04 31.6-84.78 7.94-36.6 11.23-73.73 11.47-111.15 0-.98-.14-1.97-.27-3.65-8 0-15.94.04-23.88 0-15.71-.1-25.42-13.24-20.84-28.24 2.59-8.49 9.06-12.37 17.569-13.81.05-10.85 5.75-16.81 15.78-19.78 2.46-.73 4.121-4.2 6.601-6.92-2.68-1.45-3.96-2.15-5.25-2.85-9.2-4.99-10.361-16.25-2.021-22.66 2.71-2.09 3.03-3.81 1.75-6.59-11.8-25.51-23.339-51.14-35.42-76.52-6.32-13.28-6.53-13.94 6.73-20.79 15.411-7.96 32.051-12.02 49.011-14.91 3.88-.66 6.3-1.93 7.9-6.02 1.37-3.51 4.09-7.37 7.29-9.09 5.81-3.14 8.12-7.98 9.82-13.66.71-2.36 1.56-4.68 2.64-7.89-8.79 1.87-16.81 3.57-25.43 5.4V42.65c8.27 1.76 16.13 3.44 24.94 5.31-2.2-6.67-4.24-12.84-6.51-19.71 3.92-1.11 7.51-2.13 11.48-3.25-2.4-9.44-1.28-17.76 8.2-22.67 6.61-3.42 13.3-3.15 19.35 1.31 7.25 5.35 8.57 12.67 5.82 21.3 3.87 1.07 7.61 2.11 11.91 3.31-2.3 6.59-4.41 12.65-6.87 19.68 8.69-1.77 16.67-3.39 25.32-5.15v49.33c-8.41-1.69-16.58-3.34-25.61-5.16 2.26 6.14 4.13 11.72 6.43 17.13.55 1.29 2.7 1.8 3.82 2.96 3.38 3.51 7.57 6.69 9.63 10.89 1.77 3.6 3.88 4.55 7.21 5.41 13.84 3.54 27.699 7.05 41.359 11.22 5.16 1.58 9.95 4.64 14.59 7.53 6.34 3.94 6.42 5.03 3.18 11.66-9.66 19.73-19.49 39.39-28.86 59.25-4.03 8.54-7.119 17.53-10.589 26.19 12.33 8.33 11.769 21.44-2.851 27.62.14 4.38 1.76 7.39 6.56 8.45 8.24 1.81 12.76 7.14 14.25 15.44.29 1.61 2.02 3.7 3.55 4.24 11.28 4 16.73 12.46 14.92 23.81-1.82 11.4-9.49 17.69-21.66 17.73-7.8.02-15.589 0-23.629 0 0 8.07-.26 15.68.04 23.27 1.7 42.27 7.179 83.96 19.899 124.45 7.02 22.34 15.94 43.86 30.07 62.76 3.09 4.13 7.33 7.73 11.72 10.51 11.18 7.08 13.76 14.16 8.05 26.02-3.18 6.62-2.06 12.81 1.56 18.5 2.56 4.02 5.9 7.66 9.42 10.91 5.38 4.96 11.19 9.47 16.86 14.11 21.09 17.26 24.901 31.28 15.241 56.73zM150.443 347.87c-3.22 73.62-11.761 145.11-53.11 208.29 16.779 4.51 125.81 6.51 151.07 2.81-.67-1.76-1.29-3.43-1.95-5.09-8.55-21.57-14.75-43.81-19.24-66.54-7.45-37.71-10.29-75.87-10.95-114.22-.14-8.13-3.2-13.95-11.01-16.49-17.68-5.76-35.95-7.92-54.8-8.75zM47.693 676.24c.24-.69.44-1 .43-1.31 0-1.16-.04-2.33-.13-3.49-.69-8.82 2.11-16.43 8.15-22.81 2.86-3.02 5.83-5.97 8.98-8.68 11.07-9.49 21.27-19.7 28.29-32.69.09-.17.54-.14 1.24-.3-.33 1.78-.3 3.54-.98 4.96-3.86 8.05-7.51 16.24-12.01 23.93-3.34 5.71-8.07 10.6-11.77 16.12-4.47 6.67-5.67 14.07-3.86 21.99.68 2.97 1.79 4.56 5.18 4.76 11.3.69 22.58 1.93 33.879 2.57 44.28 2.53 88.591 3.18 132.901 1.01 13.3-.65 26.619-1.48 39.849-2.96 15.22-1.69 20.981-13.45 13.291-26.71-2.99-5.15-7.061-9.66-10.531-14.55-5.76-8.13-12.479-15.82-16.849-24.65-4.59-9.27-11.01-13.22-20.82-13.01-3 .06-6-.06-9-.11-44.32-.69-88.63-1.67-132.72-6.83-6.54-.77-13.09-1.46-17.87-1.99-3.82 8.21-6.31 15.93-10.71 22.32-4.08 5.91-10.07 10.56-15.48 15.49-5.65 5.16-11.8 9.79-17.38 15.02-5.91 5.54-8.44 12.66-7.97 20.77.47 8.05 1.57 9.2 9.66 10.29 1.97.27 3.94.55 6.21.86zm52.21-526.32c.34.85.649 1.77 1.049 2.65 12.76 27.83 25.581 55.62 38.191 83.51 1.37 3.04 3.31 3.13 5.89 3.11 23.33-.15 46.66-.38 69.98-.25 4.4.02 6-1.56 7.1-5.56 4.53-16.53 9.29-33 14.18-49.42 2.37-7.97 5.35-15.76 7.78-23.72 1.83-6 .58-8.28-5.38-10.04-5.1-1.51-10.26-2.89-15.49-3.84-8.77-1.6-17.62-2.83-26.43-4.21 29.25-2.21 58.06 1.15 87.539 6.49-31.716-23.028-152.943-21.893-184.41 1.28l-.01.01zM53.363 711.6v.018c0 5.962-.09 11.258.04 16.552.06 2.77 1.19 4.71 4.51 4.63 1.98-.05 3.97.47 5.96.58 26.77 1.52 53.53 3.55 80.32 4.39 49.31 1.54 98.609.9 147.879-1.97 4.68-.27 6.6-2.23 7.23-6.34.3-1.97.56-3.96.63-5.95.12-3.56-1.3-5.36-5.28-5.48-11.99-.38-23.96-1.11-35.94-1.75-2.01-.11-4.009-.45-6.019-.68 39.13-3.41 78.279-4.64 116.919-12.06-5.69-3.54-10.579-7.87-18.109-7.04-23.33 2.57-46.671 5.41-70.081 6.68-58.77 3.16-117.589 2.9-176.36-.1-21.92-1.12-43.81-3.58-65.59-6.35-14.63-1.86-24.65 5.59-24.7 20.15 0 2.16-.2 4.4.27 6.47.3 1.32 1.45 3.16 2.57 3.45 4.95 1.3 10.03 2.13 15.04 3.12.65-5.97 1.14-11.4 1.88-16.8.3-2.19 1.06-4.2 4.17-3.66 4.887.849 9.824 1.459 14.66 2.158l.01.002zm257.979-139.8c.04-.46.08-.92.11-1.39-.73-.63-1.41-1.75-2.19-1.82-5.18-.44-10.44-1.34-15.55-.85-54.17 5.21-108.419 5.94-162.719 2.95-15.45-.85-30.85-2.62-46.27-3.98-4.08-.36-8.62 2.3-8.85 5.56-.33 4.53 2.99 5.87 6.56 6.78.8.2 1.64.3 2.47.38 13.41 1.44 26.789 3.18 40.219 4.23 43.92 3.42 87.87 2.82 131.83.68 3.5-.17 5.901-1.68 6.331-5.11.37-2.93 2.02-3.45 4.38-3.54 2.33-.09 4.659-.18 6.979-.39 12.23-1.14 24.47-2.33 36.7-3.5m-30.67-249.6c.42.26.851.52 1.271.78 1.39-2.47 3.949-4.98 3.859-7.41-.1-2.89-1.969-6.14-4.019-8.39-1.28-1.41-4.281-1.72-6.521-1.72-54.16-.14-108.319-.16-162.479-.21-.67 0-1.34 0-2 .07-5.35.57-8.691 4.2-8.521 9.25s3.18 7.8 8.97 7.79c41.99-.06 83.991-.15 125.981-.32 8.41-.03 10.69-2.52 10.96-11.44 7.29 0 14.599.02 21.909 0q12.2-.03 10.57 11.59zm-72.129-222.04c-1.9-8.2-3.85-16.61-6-25.9l3.015.586c9.072 1.763 17.075 3.32 25.315 4.924V54.45l-7.343 1.515a41801 41801 0 0 1-20.737 4.275c2.04-8.95 3.82-16.78 5.72-25.14h-28.85a71602 71602 0 0 1 5.79 25c-10.16-1.96-19-3.66-27.81-5.35v24.8c9.11-1.69 17.7-3.28 27.86-5.16-1.996 9.05-3.758 17.032-5.495 24.894l-.195.886h28.74zm58.219 194.9.006-.016c2.539-7.26-1.001-11.424-9.066-11.424-41.81-.04-83.619.06-125.419.23-2.75.01-6.01.26-8.1 1.74-1.93 1.36-2.61 4.51-3.83 6.87 2.02.97 4.04 2.76 6.07 2.77 32.81.18 65.63.15 98.44.11 7.99 0 7.99-.1 7.44-7.29 7.14 0 14.3.04 21.45-.01 5.366-.04 10.902-.599 13.015 7.004l.004.016zm-7.22-42.35c-2.85-3.63-3.349-3.99-10.539-4.1-28.66-.42-57.31-.82-85.97-.98-9.32-.05-18.65.56-27.97 1.04-2.67.14-6.15.79-5.43 4.23.37 1.75 3.64 2.93 5.69 4.24.48.31 1.31.1 1.97.1 27.83 0 55.66 0 83.49-.08 1.58 0 4.03-.2 4.58-1.16 2.61-4.54 6.72-3.49 10.59-3.41 6 .13 11.99.42 17.99.54 1.72.04 3.439-.24 5.599-.42m7.79 261.96c-.35-1.21-.64-2.46-1.07-3.64-10.61-28.99-18.019-58.79-22.079-89.38-2.04-15.33-3.6-30.72-5.46-46.07-.2-1.67-.93-3.28-1.41-4.92-.57.17-1.14.35-1.71.52 1.82 49.71 6.449 98.81 31.729 143.49M140.083 273.96h80.78c.15-.42.29-.84.44-1.26-2.6-1.09-5.12-2.75-7.83-3.17l-1.012-.157c-7.209-1.121-14.478-2.251-21.738-2.423-16.4-.38-32.82-.12-49.18-.12l-.517 2.522zm76.53-152.5-.01-.01c-2.035-2.834-2.852-4.832-4.34-5.85-2.83-1.94-5.88-3.98-9.14-4.79-10.3-2.55-20.52-1.49-30.32 2.49-3.66 1.49-7.4 3.49-7.51 8.15h51.31zm133.11 553.81c5.407-.846 5.924-5.154 6.39-9.033l.039-.327c1.21-10.04-3.599-17.56-10.709-24.02-12.42-11.3-27.461-19.84-36.431-34.82 1.51 8.08 5.731 14.56 11.491 19.98 5.33 5.01 10.889 9.79 16.589 14.36 10.48 8.39 16 18.53 12.39 32.27-.11.43.13.95.23 1.61zm-101.3-441.29c11.84-25.63 23.459-50.8 35.149-76.09-9.54 3.43-34.999 58.44-35.149 76.09M194.203 8.49c-4.53-.12-8.71 3.82-8.93 8.4-.2 4.1 3.18 8.11 7.03 8.33 4.2.24 8.75-4.44 8.88-9.14.11-4.15-2.94-7.48-6.97-7.58z" fill="#1c1c1c"/><path d="M53.363 711.6v.018a716 716 0 0 0-4.308-.604c-3.44-.476-6.91-.956-10.352-1.554-3.11-.54-3.87 1.47-4.17 3.66-.525 3.828-.924 7.672-1.344 11.712-.172 1.659-.347 3.35-.536 5.088-1.3-.257-2.605-.503-3.91-.75-3.728-.703-7.465-1.407-11.13-2.37-1.12-.29-2.27-2.13-2.57-3.45-.363-1.595-.327-3.292-.291-4.974.01-.501.02-1.001.02-1.496.05-14.56 10.07-22.01 24.7-20.15 21.78 2.77 43.67 5.23 65.59 6.35 58.771 3 117.59 3.26 176.36.1 20.001-1.085 39.95-3.316 59.886-5.546q5.097-.571 10.195-1.134c6.322-.697 10.784 2.244 15.421 5.301.885.584 1.776 1.171 2.688 1.739-28.615 5.495-57.51 7.595-86.469 9.7-10.145.737-20.299 1.475-30.451 2.36.654.074 1.306.161 1.958.247 1.354.179 2.706.359 4.062.433q3.692.198 7.38.402c9.518.523 19.033 1.046 28.561 1.348 3.98.12 5.399 1.92 5.279 5.48-.07 1.99-.33 3.98-.63 5.95-.63 4.11-2.549 6.07-7.23 6.34-49.27 2.87-98.57 3.51-147.88 1.97-18.755-.588-37.495-1.76-56.235-2.931a4223 4223 0 0 0-24.084-1.459c-.834-.046-1.668-.164-2.501-.282-1.155-.164-2.31-.327-3.46-.298-3.32.08-4.45-1.86-4.51-4.63-.09-3.724-.074-7.449-.055-11.405.008-1.669.015-3.378.015-5.147l.01.002z" fill="#b8860b"/><path fill-rule="evenodd" clip-rule="evenodd" d="M48.039 675.343c-.08.22-.206.493-.346.897h-.02c-1.229-.168-2.37-.327-3.47-.48-.932-.13-1.837-.256-2.74-.38-8.09-1.09-9.19-2.24-9.66-10.29-.47-8.11 2.06-15.23 7.97-20.77 2.967-2.782 6.096-5.393 9.224-8.005 2.755-2.3 5.51-4.599 8.156-7.015 1.146-1.045 2.318-2.076 3.492-3.11 4.37-3.847 8.772-7.722 11.987-12.38 3.026-4.394 5.149-9.417 7.421-14.796 1.033-2.443 2.096-4.96 3.29-7.524 1.376.152 2.9.318 4.529.496 4.024.438 8.685.946 13.341 1.494 44.089 5.16 88.399 6.14 132.719 6.83q1.261.022 2.522.053c2.159.05 4.319.1 6.478.057 9.81-.21 16.23 3.74 20.82 13.01 3.116 6.296 7.427 12.012 11.733 17.722 1.732 2.298 3.464 4.595 5.117 6.928 1.257 1.77 2.592 3.491 3.926 5.211 2.35 3.029 4.697 6.053 6.604 9.339 7.69 13.26 1.93 25.02-13.29 26.71-13.23 1.48-26.55 2.31-39.85 2.96-44.31 2.17-88.62 1.52-132.9-1.01-5.894-.334-11.783-.831-17.672-1.328-5.401-.456-10.802-.912-16.207-1.242-3.39-.2-4.5-1.79-5.18-4.76-1.81-7.92-.61-15.32 3.86-21.99 1.585-2.365 3.36-4.615 5.132-6.863 2.365-2.998 4.728-5.994 6.637-9.257 3.588-6.132 6.636-12.581 9.68-19.024a928 928 0 0 1 2.33-4.906c.461-.962.596-2.08.738-3.255.067-.559.136-1.131.243-1.705-.265.06-.494.094-.682.121-.308.045-.503.073-.559.179-7.02 12.99-17.22 23.2-28.29 32.69-3.15 2.71-6.12 5.66-8.98 8.68-6.04 6.38-8.84 13.99-8.15 22.81.09 1.16.13 2.33.13 3.49.005.128-.027.257-.084.413m308.075-9.106c-.466 3.879-.983 8.187-6.391 9.033l-.01.02c-.034-.229-.086-.441-.134-.638-.09-.372-.167-.691-.096-.972 3.61-13.74-1.909-23.88-12.39-32.27-5.699-4.57-11.259-9.35-16.589-14.36-5.761-5.42-9.981-11.9-11.49-19.98 6.273 10.476 15.515 17.803 24.753 25.126 3.972 3.149 7.943 6.296 11.677 9.694 7.109 6.46 11.919 13.98 10.71 24.02zm-44.661-95.827c-.03.47-.069.93-.11 1.39l-10.31.989a9150 9150 0 0 1-26.389 2.511c-2.32.21-4.651.3-6.98.39-2.361.09-4.01.61-4.38 3.54-.431 3.43-2.831 4.94-6.331 5.11-43.96 2.14-87.91 2.74-131.83-.68-9.352-.732-18.68-1.797-28.011-2.863-4.068-.465-8.137-.93-12.208-1.367-.83-.08-1.67-.18-2.47-.38-3.57-.91-6.89-2.25-6.56-6.78.23-3.26 4.77-5.92 8.85-5.56 4.751.419 9.502.877 14.252 1.335 10.664 1.028 21.329 2.057 32.017 2.645 54.3 2.99 108.55 2.26 162.72-2.95 3.847-.369 7.778.05 11.695.467 1.288.137 2.574.274 3.856.383.53.047 1.014.581 1.5 1.116.228.251.456.502.689.704m-44.432-56.867q.152.566.312 1.127c-25.28-44.68-29.91-93.78-31.73-143.49.57-.17 1.14-.35 1.71-.52.155.526.334 1.049.514 1.573.38 1.106.761 2.213.896 3.347a2341 2341 0 0 1 2.059 17.736c1.073 9.452 2.147 18.904 3.401 28.334 4.06 30.59 11.47 60.39 22.081 89.38.297.816.527 1.666.757 2.513m14.922-190.563c-.42-.26-.85-.52-1.27-.78l-.02-.01q1.63-11.62-10.57-11.59c-4.874.013-9.749.009-14.618.004l-7.292-.004c-.27 8.92-2.55 11.41-10.96 11.44-41.989.17-83.99.26-125.98.32-5.79.01-8.8-2.74-8.97-7.79s3.17-8.68 8.521-9.25c.659-.07 1.329-.07 2-.07q16.274.015 32.548.027c43.311.036 86.621.071 129.931.183 2.24 0 5.24.31 6.521 1.72 2.049 2.25 3.919 5.5 4.019 8.39.063 1.687-1.152 3.413-2.366 5.137-.534.759-1.069 1.518-1.494 2.273m-24.24-39.36c8.065 0 11.605 4.164 9.066 11.424-1.987-7.148-6.999-7.082-12.051-7.015l-.964.011c-4.952.034-9.908.026-14.86.017q-3.297-.006-6.591-.007c.55 7.19.55 7.29-7.44 7.29-32.81.04-65.63.07-98.44-.11-1.391-.007-2.777-.85-4.163-1.692-.635-.387-1.271-.773-1.907-1.078.371-.716.691-1.505 1.012-2.294.736-1.813 1.474-3.629 2.818-4.576 2.091-1.48 5.351-1.73 8.101-1.74 41.8-.17 83.609-.27 125.419-.23m-36.84-9.66h-80.779l.943-4.608.517-2.522c4.723 0 9.452-.022 14.184-.044 11.656-.053 23.331-.106 34.995.164 7.26.172 14.529 1.302 21.737 2.422l1.013.158c1.861.288 3.631 1.16 5.399 2.032.808.398 1.616.796 2.431 1.138l-.218.627q-.109.317-.222.633m28.14-25.35c7.19.11 7.69.47 10.54 4.1-.676.056-1.309.122-1.913.185-1.324.139-2.505.262-3.687.235-3.09-.062-6.178-.169-9.267-.276a666 666 0 0 0-8.723-.264 48 48 0 0 1-1.728-.078c-3.325-.191-6.638-.38-8.862 3.488-.55.96-3 1.16-4.579 1.16-27.831.08-55.661.08-83.49.08-.189 0-.391.017-.595.034-.51.043-1.032.087-1.376-.134-.552-.353-1.193-.697-1.843-1.045-1.759-.943-3.576-1.917-3.847-3.195-.719-3.44 2.761-4.09 5.43-4.23q2.296-.119 4.592-.244c7.792-.419 15.589-.838 23.379-.796 28.659.16 57.31.56 85.969.98m-148.749-97.779a46 46 0 0 0-.35-.909c31.467-23.172 152.693-24.31 184.409-1.282-29.479-5.34-58.289-8.7-87.539-6.49 2.555.4 5.113.788 7.672 1.175 6.264.949 12.531 1.899 18.758 3.035 5.229.95 10.39 2.33 15.49 3.84 5.96 1.76 7.21 4.04 5.38 10.04-1.155 3.782-2.434 7.527-3.713 11.27-1.412 4.134-2.824 8.267-4.067 12.45-4.89 16.42-9.65 32.89-14.181 49.42-1.099 4-2.699 5.58-7.099 5.56-19.082-.106-38.169.028-57.258.163q-6.362.046-12.722.087c-2.58.02-4.52-.07-5.89-3.11-9.656-21.355-19.434-42.651-29.214-63.951q-4.49-9.777-8.976-19.559a28 28 0 0 1-.7-1.739m160.271 56.95-12.102 26.199c.151-17.65 25.61-72.66 35.15-76.09a166971 166971 0 0 0-23.048 49.891m-45.675-88.971c.494.778 1.055 1.663 1.763 2.65l-.01-.01h-51.309c.11-4.66 3.85-6.66 7.509-8.15 9.8-3.98 20.021-5.04 30.32-2.49 3.261.81 6.31 2.85 9.141 4.79.972.665 1.659 1.749 2.586 3.21m-12.306-44.55c2.15 9.29 4.1 17.7 6 25.9l.009.01h-28.74l.353-1.597c1.686-7.634 3.403-15.406 5.338-24.183-10.16 1.88-18.75 3.47-27.86 5.16v-24.8c8.81 1.69 17.65 3.39 27.81 5.35l-.201-.868c-1.949-8.42-3.704-16-5.589-24.132h28.85c-1.901 8.36-3.68 16.19-5.72 25.14 7.307-1.504 14.022-2.89 20.737-4.275l7.342-1.515v25.32c-8.239-1.605-16.242-3.16-25.314-4.924zm-17.27-57.37c.22-4.58 4.4-8.52 8.93-8.4l.01.01c4.03.1 7.08 3.43 6.97 7.58-.13 4.7-4.68 9.38-8.88 9.14-3.85-.22-7.23-4.23-7.03-8.33m-87.94 539.27c41.349-63.18 49.89-134.67 53.11-208.29l.01.01c18.849.83 37.12 2.99 54.8 8.75 7.809 2.54 10.869 8.36 11.01 16.49.659 38.35 3.5 76.51 10.95 114.22 4.49 22.73 10.69 44.97 19.24 66.54.483 1.216.945 2.437 1.421 3.695l.529 1.395c-25.26 3.7-134.291 1.7-151.07-2.81" fill="#b8860b"/></svg>