 <svg viewBox="0 0 345 690" fill="none" xmlns="http://www.w3.org/2000/svg">
      <path
        d="M323.143 626.666C323.453 627.016 323.533 627.196 323.673 627.256C346.823 637.406 344.313 649.736 343.643 670.526C343.463 675.996 338.943 678.446 334.083 679.286C323.263 681.156 312.433 683.236 301.513 684.276C222.683 691.806 143.753 691.356 64.8134 686.136C48.0534 685.026 31.3834 682.486 14.6934 680.456C11.7534 680.096 8.44345 679.636 6.14345 678.026C3.66345 676.286 0.793449 673.296 0.513449 670.596C-0.216551 663.516 -0.136551 656.256 0.553449 649.156C1.38345 640.546 6.56345 634.566 14.2334 630.726C16.4334 629.626 18.6634 628.576 21.1534 627.376C13.7434 615.726 11.1434 603.436 16.2234 590.926C19.0234 584.026 23.6234 577.566 28.5534 571.896C33.9834 565.656 40.8334 560.666 46.8434 554.896C50.4434 551.446 53.9534 547.816 56.9134 543.826C62.4034 536.436 63.5935 528.566 59.0634 519.976C54.9634 512.186 55.8034 504.666 62.1334 498.926C77.3334 485.126 85.7034 467.216 93.0234 448.756C106.063 415.846 112.823 381.416 115.903 346.266C117.313 330.176 117.763 314.006 118.593 297.866C118.733 295.076 118.613 292.276 118.613 288.776C110.913 288.776 103.643 288.896 96.3834 288.756C82.5434 288.486 74.0234 278.676 75.9734 265.096C77.1134 257.106 81.9234 252.026 89.4334 249.186C90.9534 248.616 93.0834 246.996 93.1734 245.726C93.9134 235.746 98.6835 229.166 107.373 226.796C105.473 222.746 102.853 218.956 101.953 214.796C100.913 209.956 103.633 205.946 107.323 202.556C108.243 201.706 108.303 198.936 107.673 197.526C100.013 180.356 92.1834 163.266 84.3434 146.186C82.3334 141.806 80.1535 137.486 77.9435 133.206C73.2435 124.096 73.3434 114.796 79.1134 106.626C86.2834 96.476 93.5835 86.006 102.693 77.736C115.703 65.936 130.393 55.996 144.383 45.276C145.553 44.376 146.833 43.616 148.013 42.816C141.343 25.246 143.433 13.776 154.693 5.50604C164.913 -1.99396 179.863 -1.81396 189.683 5.93604C200.483 14.456 202.573 26.596 195.843 42.736C201.593 46.506 207.513 50.146 213.173 54.146C230.823 66.626 246.843 80.856 259.803 98.296C261.983 101.226 263.893 104.376 265.693 107.566C270.173 115.536 270.483 123.686 266.443 131.956C259.793 145.566 253.033 159.126 246.603 172.836C242.713 181.116 239.233 189.596 235.873 198.106C235.333 199.466 235.813 202.036 236.813 203.076C244.333 210.906 244.063 218.536 235.353 226.026C245.413 228.986 250.333 235.736 251.093 245.946C251.183 247.206 253.883 248.626 255.633 249.356C264.013 252.826 268.773 260.146 268.403 269.446C268.063 278.126 262.383 285.626 254.033 287.806C251.193 288.546 248.103 288.506 245.123 288.556C238.673 288.656 232.213 288.586 225.853 288.586C225.503 289.566 225.203 290.016 225.203 290.476C225.223 342.786 230.973 394.236 249.133 443.676C253.023 454.266 257.623 464.736 263.203 474.516C267.843 482.656 273.953 490.096 280.223 497.126C287.463 505.236 289.073 511.316 284.223 521.046C281.053 527.416 281.093 533.766 284.673 539.656C287.503 544.296 290.983 548.676 294.803 552.546C300.523 558.356 306.863 563.546 312.823 569.126C331.853 586.956 334.823 603.446 323.113 626.646L323.143 626.666ZM73.9835 527.226C74.5435 538.096 70.7734 546.826 64.2034 554.326C60.0941 559.018 55.5846 563.369 51.0895 567.706C51.0341 567.759 50.9788 567.813 50.9234 567.866C46.1334 572.496 40.9634 576.736 36.3134 581.486C28.9234 589.016 25.1634 597.956 27.0734 608.726C28.4634 616.566 31.1734 619.316 39.0734 620.286C49.6434 621.586 60.2234 622.946 70.8434 623.786C112.223 627.066 153.653 628.536 195.143 626.126C202.433 625.706 209.803 624.936 216.893 623.286C231.443 619.906 238.003 608.136 233.083 594.036C230.863 587.676 227.143 581.816 223.923 575.836C220.063 568.666 214.813 561.996 212.323 554.406C208.803 543.666 201.773 539.326 191.413 538.376C189.093 538.166 186.813 537.616 184.493 537.406C157.793 535.046 131.083 532.766 104.383 530.356C94.4634 529.466 84.5734 528.306 74.0034 527.196L73.9835 527.226ZM209.163 498.796C209.163 498.792 209.154 498.79 209.153 498.786C208.775 497.154 208.563 496.354 208.413 495.546C203.923 471.176 197.963 446.956 195.333 422.386C191.923 390.456 191.013 358.256 189.383 326.156C189.043 319.426 186.433 314.796 180.963 311.326C171.513 305.326 161.023 302.176 150.113 300.396C143.983 299.396 137.753 299.026 131.363 298.346C129.253 368.056 120.653 435.116 83.0535 495.746C125.293 499.766 166.853 500.176 209.153 498.786L209.163 498.796ZM185.463 61.726C177.183 48.906 162.923 46.726 152.033 54.016C145.123 58.646 137.883 62.836 131.233 67.826C116.243 79.076 102.683 91.816 92.0234 107.416C86.7434 115.136 86.1334 122.926 90.1834 131.446C100.313 152.806 110.133 174.306 120.263 195.656C120.933 197.076 123.093 198.666 124.583 198.686C143.073 198.926 161.573 198.846 180.073 198.966C184.763 198.996 188.123 197.126 190.023 192.906C196.433 178.666 203.343 164.616 208.963 150.076C213.593 138.096 216.193 125.466 214.133 112.366C211.663 96.646 204.313 83.336 194.193 70.486C177.363 88.476 161.023 105.936 144.383 123.716C142.683 122.166 141.123 120.416 139.253 119.106C135.373 116.366 135.853 113.946 138.913 110.766C147.133 102.256 155.063 93.476 163.193 84.886C170.51 77.1594 177.937 69.5425 185.463 61.726C185.467 61.7226 185.47 61.7194 185.473 61.716L185.463 61.726ZM326.413 643.706C321.473 640.736 317.063 636.956 310.653 638.156C305.093 639.206 299.463 640.106 293.833 640.436C262.083 642.346 230.343 644.946 198.553 645.656C142.733 646.896 86.9234 645.976 31.4834 638.066C30.2234 637.886 28.8134 637.946 27.6034 638.326C15.8434 641.976 12.9034 645.926 12.7834 658.026C12.7634 660.026 12.5634 662.066 12.9034 664.006C13.0834 665.046 14.0534 666.516 14.9434 666.756C18.2634 667.656 21.6934 668.116 25.3134 668.786C25.8034 663.116 26.0834 657.996 26.7934 652.936C26.9734 651.656 28.5534 649.546 29.4334 649.586C33.4834 649.726 37.5034 650.496 41.0334 650.966C41.0334 655.966 41.2334 660.276 40.9834 664.566C40.6934 669.476 42.8334 671.216 47.6234 671.496C64.0834 672.456 80.5135 674.506 96.9734 674.786C140.443 675.506 183.923 675.496 227.403 675.856C230.703 675.886 232.353 674.556 232.693 671.366C232.873 669.716 233.183 668.066 233.283 666.406C233.773 658.016 233.443 657.726 225.173 657.416C220.318 657.228 215.472 656.889 210.617 656.55C210.313 656.529 210.008 656.507 209.703 656.486C204.573 656.126 199.443 655.696 194.323 655.306C238.453 652.256 282.633 651.316 326.413 643.716V643.706ZM172.483 258.176V258.256C147.833 258.256 123.183 258.236 98.5334 258.266C91.4734 258.276 87.5335 261.526 87.1235 267.436C86.6835 273.866 91.1835 278.246 98.5135 278.256C147.143 278.296 195.783 278.296 244.413 278.256C246.543 278.256 248.813 278.056 250.773 277.316C257.753 274.686 259.613 265.006 253.743 260.676C251.443 258.976 247.913 258.306 244.923 258.276C220.773 258.096 196.633 258.176 172.483 258.176ZM273.493 509.796C273.553 509.116 273.613 508.446 273.673 507.766C271.603 507.226 269.513 506.156 267.473 506.236C259.493 506.566 251.533 507.316 243.553 507.816C195.643 510.826 147.743 511.226 99.8335 507.696C92.0396 507.126 84.2558 506.397 76.4719 505.668C76.4658 505.667 76.4596 505.667 76.4534 505.666C72.3334 505.286 70.0434 507.326 69.5334 511.146C69.0534 514.776 71.5734 516.066 74.7034 516.516C76.6834 516.806 78.6435 517.166 80.6235 517.426C122.013 522.946 163.613 523.226 205.253 522.166C214.143 521.936 214.173 521.816 216.283 513.656C229.389 512.77 242.485 511.884 255.582 510.998C261.552 510.594 267.522 510.19 273.493 509.786V509.796ZM238.243 248.436C238.246 248.431 238.251 248.431 238.253 248.426C242.228 242.01 237.748 235.326 229.793 235.306C191.683 235.226 153.583 235.276 115.473 235.466C112.803 235.476 109.393 236.166 107.653 237.886C105.733 239.796 104.693 243.236 104.643 246.046C104.623 247.006 108.723 248.916 110.943 248.926C139.063 249.046 167.193 248.926 195.313 248.786C204.123 248.746 205.233 247.296 203.463 238.536C212.323 238.536 221.133 238.516 229.943 238.536C233.603 238.546 235.763 240.626 236.933 243.896C237.413 245.226 237.733 246.616 238.253 248.426L238.243 248.436ZM229.903 217.896C229.907 217.888 229.911 217.88 229.915 217.872C232.556 212.505 230.075 208.966 224.433 208.736C218.443 208.486 212.443 208.626 206.443 208.636C177.953 208.666 149.453 208.666 120.963 208.786C115.393 208.806 112.153 211.166 112.653 214.586C113.353 219.366 117.273 219.056 120.783 219.206C121.283 219.226 121.783 219.206 122.283 219.206C143.283 219.256 164.273 219.206 185.273 219.436C190.443 219.496 194.253 218.606 194.263 212.276C203.883 212.276 213.043 212.426 222.193 212.206C225.945 212.116 228.741 212.853 229.915 217.872C229.918 217.883 229.921 217.895 229.923 217.906L229.903 217.896ZM260.773 495.306C245.953 473.036 236.103 448.946 229.043 423.686C218.053 384.356 213.393 344.116 212.223 303.406C212.173 301.646 211.803 299.896 211.583 298.136C210.993 298.136 210.403 298.136 209.813 298.146C209.593 299.606 209.193 301.056 209.183 302.516C208.883 341.096 212.043 379.326 221.203 416.896C227.793 443.926 238.223 469.366 253.613 492.646C253.643 492.691 253.672 492.735 253.701 492.78C255.288 495.192 256.797 497.486 260.773 495.306ZM218.223 197.966C218.812 198.415 219.395 198.867 219.983 199.316C221.203 197.946 222.833 196.776 223.583 195.186C233.293 174.776 242.593 154.156 252.633 133.906C257.823 123.436 257.123 114.356 250.193 105.086C234.313 83.826 214.663 66.936 191.753 53.726C190.403 52.946 188.903 52.446 187.473 51.816C193.293 57.436 199.633 62.186 205.763 67.196C219.203 78.166 231.973 89.806 242.143 104.026C249.453 114.236 250.923 124.866 245.293 136.416C241.143 144.926 237.383 153.646 233.583 162.326C228.393 174.176 223.333 186.086 218.223 197.966ZM189.413 31.716C189.523 31.406 189.953 30.696 190.013 29.956C190.583 22.966 188.583 17.076 182.313 13.286C175.643 9.25604 168.793 8.80604 162.063 13.136C155.373 17.446 152.753 25.016 155.203 32.296C156.983 37.606 161.683 40.596 167.663 40.236C175.243 39.786 181.453 34.296 182.823 26.666C183.113 25.046 182.983 23.356 183.023 21.696C183.053 20.516 183.023 19.326 183.023 18.146C183.653 18.006 184.273 17.856 184.903 17.716C186.403 22.396 187.903 27.066 189.403 31.706L189.413 31.716ZM269.323 524.996C268.643 524.976 267.963 524.956 267.283 524.936C267.023 529.576 266.163 534.266 266.633 538.826C267.553 547.906 271.893 555.656 278.203 562.096C284.723 568.746 291.693 574.946 298.403 581.416C311.213 593.756 313.083 604.146 305.393 619.766C312.453 618.876 316.253 614.416 317.033 606.196C317.993 596.086 313.793 587.966 306.903 581.166C300.753 575.096 294.133 569.486 287.743 563.656C276.406 553.308 267.978 541.531 269.323 524.996C269.324 524.993 269.323 524.989 269.323 524.986V524.996ZM331.173 649.266C328.703 650.856 326.223 651.646 326.133 652.636C325.723 657.506 325.943 662.426 325.943 667.326C326.453 667.596 326.973 667.866 327.483 668.146C328.713 666.856 330.853 665.656 331.003 664.256C331.463 659.846 331.173 655.356 331.173 649.266Z"
        fill="#1C1C1C"
      />
      <path
        d="M54.6634 616.446C54.6598 616.446 54.6562 616.445 54.6526 616.445C50.7358 616.066 46.5997 615.905 42.5835 615.126C41.4735 614.916 40.1634 612.956 39.9134 611.616C38.1534 602.066 41.3834 593.826 47.5434 586.746C51.0238 582.75 54.9265 579.105 58.8059 575.483C59.0619 575.244 59.3178 575.005 59.5734 574.766C68.9834 565.956 77.7134 556.666 83.3434 544.526C82.9834 546.286 82.7334 548.076 82.2434 549.806C79.0234 560.946 72.4435 570.116 65.1935 578.896C59.5335 585.766 54.1434 592.906 53.6734 602.216C53.4436 606.783 54.2722 611.389 54.6526 616.445C54.6529 616.449 54.6532 616.452 54.6535 616.456L54.6634 616.446Z"
        fill="#1C1C1C"
      />
      <path
        d="M130.473 407.796C130.473 407.8 130.464 407.802 130.463 407.806C128.954 416.942 127.853 426.16 125.843 435.186C122.053 452.216 117.683 469.116 113.703 486.096C112.783 489.996 111.083 491.886 106.813 490.956C104.433 490.436 101.913 490.556 98.5334 490.326C113.073 463.876 122.903 436.326 129.253 407.506C129.653 407.606 130.063 407.706 130.463 407.806L130.473 407.796Z"
        fill="#1C1C1C"
      />
      <path
        d="M117.683 169.366C117.682 169.362 117.675 169.36 117.673 169.356C111.795 154.41 105.562 139.582 100.293 124.416C99.0334 120.796 100.083 115.676 101.663 111.916C105.863 101.966 113.703 94.676 122.193 87.966C120.173 90.866 118.223 93.806 116.133 96.656C108.163 107.546 105.593 119.356 109.423 132.516C112.583 143.366 115.353 154.336 118.273 165.266C118.593 166.456 118.813 167.666 119.073 168.866C118.603 169.026 118.133 169.196 117.673 169.356L117.683 169.366Z"
        fill="#1C1C1C"
      />
      <path
        d="M211.033 261.846C223.383 261.846 235.293 261.736 247.203 261.916C250.573 261.966 252.923 264.136 252.843 267.666C252.753 271.576 250.753 274.416 246.513 274.596C241 274.827 235.479 274.853 229.957 274.879C229.499 274.881 229.041 274.884 228.583 274.886C219.883 274.926 211.183 274.896 202.113 274.896C209.007 271.356 211.98 267.009 211.033 261.856V261.846Z"
        fill="#1C1C1C"
      />
      <path
        fill-rule="evenodd"
        clip-rule="evenodd"
        d="M208.802 497.273C208.903 497.694 209.022 498.187 209.163 498.796L209.153 498.786C166.853 500.176 125.293 499.766 83.0535 495.746C120.653 435.116 129.253 368.056 131.363 298.346C133.382 298.561 135.385 298.745 137.374 298.927C141.68 299.323 145.92 299.712 150.113 300.396C161.023 302.176 171.513 305.326 180.963 311.326C186.433 314.796 189.043 319.426 189.383 326.156C189.748 333.341 190.077 340.532 190.406 347.723C191.546 372.658 192.687 397.603 195.333 422.386C197.158 439.435 200.586 456.315 204.014 473.193C205.527 480.64 207.039 488.086 208.413 495.546C208.508 496.055 208.63 496.561 208.802 497.273ZM129.157 416.238C128.196 422.586 127.236 428.931 125.843 435.186C123.573 445.388 121.095 455.543 118.617 465.696C116.958 472.492 115.299 479.288 113.703 486.096C112.783 489.996 111.083 491.886 106.813 490.956C105.22 490.608 103.563 490.547 101.627 490.475C100.672 490.44 99.6498 490.402 98.5334 490.326C113.073 463.876 122.903 436.326 129.253 407.506C129.453 407.556 129.655 407.606 129.857 407.656C130.06 407.706 130.263 407.756 130.463 407.806L130.473 407.796C130.009 410.605 129.583 413.422 129.157 416.238Z"
        fill="#B8860B"
      />
      <path
        fill-rule="evenodd"
        clip-rule="evenodd"
        d="M64.2035 554.326C70.7735 546.826 74.5435 538.096 73.9835 527.226L74.0034 527.196C77.3006 527.542 80.5315 527.893 83.7179 528.24C90.7464 529.003 97.5578 529.744 104.383 530.356C120.889 531.846 137.399 533.286 153.908 534.726C164.104 535.616 174.3 536.505 184.493 537.406C185.653 537.511 186.803 537.701 187.953 537.891C189.103 538.081 190.253 538.271 191.413 538.376C201.773 539.326 208.803 543.666 212.324 554.406C213.972 559.431 216.83 564.053 219.694 568.683C221.156 571.047 222.619 573.413 223.923 575.836C224.702 577.281 225.509 578.719 226.317 580.159C228.854 584.677 231.4 589.213 233.083 594.036C238.004 608.136 231.443 619.906 216.893 623.286C209.803 624.936 202.434 625.706 195.143 626.126C153.653 628.536 112.223 627.066 70.8435 623.786C61.2938 623.031 51.7764 621.855 42.2696 620.68C41.2041 620.549 40.1387 620.417 39.0734 620.286C31.1735 619.316 28.4635 616.566 27.0734 608.726C25.1635 597.956 28.9235 589.016 36.3135 581.486C38.9731 578.769 41.8028 576.219 44.6343 573.668C46.7533 571.758 48.8732 569.848 50.9235 567.866L51.0896 567.706C55.5846 563.369 60.0941 559.018 64.2035 554.326ZM54.6635 616.446L54.6526 616.445C54.5309 614.827 54.3632 613.255 54.1991 611.716C53.8503 608.445 53.5172 605.321 53.6735 602.216C54.1435 592.906 59.5335 585.766 65.1935 578.896C72.4435 570.116 79.0235 560.946 82.2435 549.806C82.5791 548.621 82.8021 547.408 83.0249 546.196C83.1275 545.638 83.23 545.081 83.3435 544.526C77.7135 556.666 68.9835 565.956 59.5734 574.766L58.8059 575.483C54.9273 579.105 51.0231 582.751 47.5435 586.746C41.3834 593.826 38.1535 602.066 39.9135 611.616C40.1635 612.956 41.4735 614.916 42.5835 615.126C45.5024 615.692 48.4846 615.932 51.3999 616.166C52.4959 616.254 53.5824 616.341 54.6526 616.445L54.6535 616.456L54.6635 616.446Z"
        fill="#B8860B"
      />
      <path
        fill-rule="evenodd"
        clip-rule="evenodd"
        d="M324.144 642.288C324.894 642.765 325.647 643.245 326.413 643.706V643.716C293.15 649.49 259.656 651.42 226.129 653.352C215.528 653.962 204.924 654.573 194.324 655.306C196.162 655.446 198.002 655.591 199.843 655.737C203.128 655.996 206.416 656.255 209.703 656.486L210.617 656.55C215.472 656.889 220.318 657.228 225.173 657.416C233.443 657.726 233.773 658.016 233.283 666.406C233.222 667.434 233.079 668.458 232.937 669.481C232.849 670.109 232.762 670.738 232.693 671.366C232.353 674.556 230.703 675.886 227.403 675.856C212.777 675.735 198.151 675.656 183.526 675.576C154.672 675.42 125.821 675.264 96.9735 674.786C86.7904 674.613 76.6187 673.762 66.4443 672.911C60.1729 672.387 53.9003 671.862 47.6235 671.496C42.8334 671.216 40.6934 669.476 40.9835 664.566C41.1541 661.638 41.1151 658.7 41.0731 655.541C41.0536 654.071 41.0335 652.553 41.0335 650.966C40.1047 650.842 39.142 650.698 38.1538 650.55C35.386 650.134 32.4179 649.689 29.4335 649.586C28.5535 649.546 26.9735 651.656 26.7935 652.936C26.2805 656.592 25.992 660.279 25.6866 664.182C25.5693 665.681 25.4495 667.213 25.3135 668.786C24.304 668.599 23.3092 668.429 22.3275 668.26C19.7889 667.825 17.3376 667.405 14.9434 666.756C14.0535 666.516 13.0834 665.046 12.9035 664.006C12.6484 662.55 12.6973 661.039 12.746 659.53C12.7622 659.028 12.7785 658.526 12.7835 658.026C12.9035 645.926 15.8435 641.976 27.6035 638.326C28.8135 637.946 30.2235 637.886 31.4835 638.066C86.9235 645.976 142.733 646.896 198.553 645.656C221.847 645.136 245.114 643.601 268.377 642.066C276.863 641.506 285.348 640.946 293.833 640.436C299.463 640.106 305.093 639.206 310.653 638.156C316.07 637.142 320.058 639.683 324.144 642.288Z"
        fill="#B8860B"
      />
      <path
        fill-rule="evenodd"
        clip-rule="evenodd"
        d="M328.645 650.703C329.417 650.295 330.296 649.831 331.173 649.266C331.173 651.067 331.199 652.728 331.223 654.288C331.279 658.005 331.327 661.15 331.003 664.256C330.9 665.217 329.859 666.084 328.819 666.951C328.344 667.346 327.869 667.742 327.483 668.146C326.973 667.866 326.453 667.596 325.943 667.326C325.943 666.058 325.929 664.788 325.914 663.519C325.872 659.883 325.83 656.246 326.133 652.636C326.191 651.998 327.243 651.443 328.645 650.703Z"
        fill="#B8860B"
      />
      <path
        fill-rule="evenodd"
        clip-rule="evenodd"
        d="M267.283 524.936L269.323 524.996C267.978 541.531 276.406 553.308 287.743 563.656C289.827 565.557 291.934 567.434 294.042 569.311C298.4 573.193 302.758 577.075 306.903 581.166C313.793 587.966 317.993 596.086 317.033 606.196C316.253 614.416 312.453 618.876 305.393 619.766C313.083 604.146 311.213 593.756 298.403 581.416C295.916 579.017 293.392 576.656 290.869 574.295C286.587 570.287 282.306 566.281 278.203 562.096C271.893 555.656 267.553 547.906 266.633 538.826C266.31 535.685 266.617 532.482 266.925 529.277C267.063 527.829 267.203 526.38 267.283 524.936Z"
        fill="#B8860B"
      />
      <path
        fill-rule="evenodd"
        clip-rule="evenodd"
        d="M273.673 507.766C273.613 508.446 273.553 509.116 273.493 509.796V509.786L255.582 510.998C242.485 511.884 229.389 512.77 216.283 513.656C214.174 521.813 214.142 521.936 205.253 522.166C163.613 523.226 122.013 522.946 80.6235 517.426C79.4657 517.274 78.3149 517.088 77.1628 516.902C76.3446 516.769 75.5257 516.637 74.7034 516.516C71.5734 516.066 69.0535 514.776 69.5334 511.146C70.0434 507.326 72.3334 505.286 76.4534 505.666L76.4719 505.668C84.2558 506.397 92.0396 507.127 99.8334 507.696C147.743 511.226 195.643 510.826 243.553 507.816C246.535 507.629 249.514 507.408 252.493 507.186C257.485 506.814 262.475 506.443 267.473 506.236C268.869 506.181 270.288 506.665 271.708 507.149C272.364 507.372 273.02 507.596 273.673 507.766Z"
        fill="#B8860B"
      />
      <path
        fill-rule="evenodd"
        clip-rule="evenodd"
        d="M229.043 423.686C236.103 448.946 245.953 473.036 260.773 495.306C256.797 497.486 255.288 495.192 253.701 492.78L253.613 492.646C238.223 469.366 227.793 443.926 221.203 416.896C212.043 379.326 208.883 341.096 209.184 302.516C209.19 301.519 209.379 300.526 209.568 299.532C209.656 299.071 209.744 298.609 209.814 298.146C210.403 298.136 210.993 298.136 211.583 298.136C211.654 298.7 211.74 299.262 211.826 299.824C212.008 301.018 212.189 302.21 212.223 303.406C213.393 344.116 218.053 384.356 229.043 423.686Z"
        fill="#B8860B"
      />
      <path
        fill-rule="evenodd"
        clip-rule="evenodd"
        d="M172.483 258.256V258.176C178.166 258.176 183.847 258.172 189.528 258.167C207.994 258.153 226.456 258.138 244.923 258.276C247.913 258.306 251.443 258.976 253.743 260.676C259.613 265.006 257.753 274.686 250.773 277.316C248.813 278.056 246.543 278.256 244.413 278.256C195.783 278.296 147.143 278.296 98.5134 278.256C91.1834 278.246 86.6834 273.866 87.1235 267.436C87.5334 261.526 91.4734 258.276 98.5334 258.266C116.141 258.245 133.748 258.249 151.355 258.253C158.398 258.254 165.441 258.256 172.483 258.256ZM221.205 261.829C229.982 261.807 238.593 261.786 247.203 261.916C250.573 261.966 252.923 264.136 252.843 267.666C252.753 271.576 250.753 274.416 246.513 274.596C241 274.827 235.479 274.853 229.957 274.879L228.583 274.886C222.516 274.914 216.449 274.908 210.256 274.901C207.569 274.899 204.858 274.896 202.113 274.896C209.007 271.356 211.98 267.009 211.033 261.856V261.846C214.455 261.846 217.842 261.838 221.205 261.829Z"
        fill="#B8860B"
      />
      <path
        fill-rule="evenodd"
        clip-rule="evenodd"
        d="M229.793 235.306C237.748 235.326 242.227 242.006 238.252 248.422C238.082 247.831 237.934 247.284 237.794 246.77C237.507 245.712 237.256 244.79 236.933 243.896C235.763 240.626 233.603 238.546 229.943 238.536C224.074 238.523 218.204 238.527 212.32 238.532C209.372 238.534 206.42 238.536 203.463 238.536C205.233 247.296 204.123 248.746 195.313 248.786C167.193 248.926 139.063 249.046 110.943 248.926C108.723 248.916 104.623 247.006 104.643 246.046C104.693 243.236 105.733 239.796 107.653 237.886C109.393 236.166 112.803 235.476 115.473 235.466C153.583 235.276 191.683 235.226 229.793 235.306Z"
        fill="#B8860B"
      />
      <path
        fill-rule="evenodd"
        clip-rule="evenodd"
        d="M224.434 208.736C230.075 208.966 232.556 212.505 229.915 217.872C228.741 212.853 225.945 212.116 222.194 212.206C215.709 212.362 209.22 212.332 202.566 212.301C199.83 212.289 197.066 212.276 194.263 212.276C194.253 218.606 190.444 219.496 185.273 219.436C169.799 219.267 154.33 219.249 138.858 219.232C133.334 219.225 127.809 219.219 122.283 219.206C121.783 219.206 121.283 219.226 120.783 219.206C120.49 219.194 120.194 219.184 119.898 219.175C116.641 219.072 113.295 218.967 112.653 214.586C112.153 211.166 115.393 208.806 120.963 208.786C143.743 208.69 166.529 208.671 189.311 208.652C195.022 208.647 200.733 208.642 206.444 208.636C207.944 208.634 209.444 208.623 210.944 208.612C215.443 208.58 219.941 208.549 224.434 208.736Z"
        fill="#B8860B"
      />
      <path
        fill-rule="evenodd"
        clip-rule="evenodd"
        d="M152.033 54.016C162.923 46.726 177.183 48.906 185.463 61.726L185.473 61.716C183.206 64.0704 180.948 66.4066 178.7 68.7331C173.479 74.1343 168.31 79.4833 163.193 84.886C159.856 88.412 156.553 91.97 153.249 95.5281C148.505 100.638 143.759 105.749 138.913 110.766C135.853 113.946 135.373 116.366 139.253 119.106C140.54 120.007 141.68 121.117 142.82 122.227C143.337 122.73 143.853 123.233 144.383 123.716C161.023 105.936 177.363 88.476 194.193 70.486C204.313 83.336 211.663 96.646 214.133 112.366C216.193 125.466 213.593 138.096 208.963 150.076C204.913 160.555 200.193 170.779 195.473 181.003C193.643 184.966 191.814 188.928 190.023 192.906C188.123 197.126 184.763 198.996 180.073 198.966C172.959 198.92 165.844 198.903 158.73 198.887C147.345 198.86 135.963 198.834 124.583 198.686C123.093 198.666 120.933 197.076 120.263 195.656C115.167 184.915 110.149 174.136 105.131 163.356C100.174 152.709 95.2172 142.06 90.1835 131.446C86.1334 122.926 86.7435 115.136 92.0234 107.416C102.683 91.816 116.243 79.076 131.233 67.826C135.515 64.6129 140.042 61.7315 144.568 58.8507C147.07 57.2576 149.573 55.6647 152.033 54.016ZM117.679 169.354C117.857 169.292 118.037 169.229 118.218 169.165C118.502 169.064 118.788 168.963 119.073 168.866C118.999 168.521 118.927 168.176 118.856 167.83C118.679 166.972 118.501 166.114 118.273 165.266C117.468 162.252 116.674 159.235 115.881 156.218C113.796 148.295 111.712 140.374 109.423 132.516C105.593 119.356 108.163 107.546 116.133 96.656C117.543 94.7344 118.888 92.7718 120.235 90.8082C120.885 89.8595 121.536 88.9107 122.193 87.966C113.703 94.676 105.863 101.966 101.663 111.916C100.083 115.676 99.0334 120.796 100.293 124.416C104.143 135.498 108.511 146.399 112.878 157.297C114.487 161.314 116.096 165.33 117.679 169.354Z"
        fill="#B8860B"
      />
      <path
        fill-rule="evenodd"
        clip-rule="evenodd"
        d="M219.104 198.636C218.812 198.41 218.521 198.183 218.227 197.959C219.694 194.546 221.158 191.131 222.622 187.716C226.253 179.244 229.885 170.77 233.583 162.326C233.988 161.401 234.393 160.475 234.798 159.55C238.189 151.79 241.586 144.019 245.293 136.416C250.923 124.866 249.453 114.236 242.143 104.026C231.973 89.806 219.203 78.166 205.763 67.196C204.233 65.945 202.689 64.7102 201.143 63.474C196.5 59.7596 191.84 56.0327 187.473 51.816C187.927 52.0159 188.388 52.2028 188.849 52.3896C189.84 52.7915 190.832 53.1935 191.753 53.726C214.663 66.936 234.313 83.826 250.193 105.086C257.123 114.356 257.823 123.436 252.633 133.906C246.184 146.914 240.04 160.076 233.896 173.236C230.476 180.562 227.056 187.887 223.583 195.186C223.073 196.268 222.155 197.156 221.236 198.044C220.805 198.461 220.373 198.878 219.983 199.316C219.689 199.091 219.396 198.864 219.104 198.636Z"
        fill="#B8860B"
      />
      <path
        fill-rule="evenodd"
        clip-rule="evenodd"
        d="M189.551 31.4023C189.492 31.5293 189.442 31.636 189.413 31.7161L189.403 31.7061C187.903 27.0661 186.403 22.3961 184.903 17.7161C184.588 17.7862 184.274 17.8589 183.961 17.9316C183.649 18.0039 183.338 18.0763 183.023 18.1461C183.023 18.539 183.027 18.9331 183.03 19.3276C183.037 20.1176 183.043 20.909 183.023 21.6961C183.012 22.1743 183.015 22.6551 183.017 23.1359C183.023 24.3241 183.03 25.5128 182.823 26.666C181.453 34.296 175.243 39.786 167.663 40.236C161.683 40.596 156.983 37.606 155.203 32.296C152.753 25.0161 155.373 17.4461 162.063 13.1361C168.793 8.80605 175.643 9.25606 182.313 13.286C188.583 17.0761 190.583 22.9661 190.013 29.9561C189.969 30.505 189.721 31.0374 189.551 31.4023Z"
        fill="#B8860B"
      />
    </svg>