<svg viewBox="0 0 362 714" fill="none" xmlns="http://www.w3.org/2000/svg" >
      <path
        d="M124.833 279.714C116.263 279.714 108.453 279.744 100.643 279.714C87.753 279.654 79.053 272.834 77.473 261.594C75.743 249.244 81.593 240.714 94.533 236.744C95.003 236.604 95.453 236.394 95.003 236.564C96.673 231.424 97.263 226.304 99.863 222.594C102.243 219.184 106.453 216.404 110.443 214.944C115.363 213.154 117.533 210.484 117.363 205.174C116.313 204.674 115.143 204.134 113.983 203.564C104.253 198.774 102.753 186.764 111.493 180.324C114.943 177.784 114.903 175.204 114.373 171.774C109.413 139.704 95.9529 112.554 69.3829 92.7242C67.7229 91.4842 66.693 88.1742 66.893 85.9542C67.233 82.0342 68.543 78.1442 69.823 74.3742C71.313 69.9842 73.823 69.2342 77.943 71.7742C82.473 74.5642 86.893 77.5342 91.3829 80.4042C91.9429 80.7642 92.573 81.0042 93.173 81.2842C103.313 85.9842 103.903 85.9742 109.723 76.4742C121.233 57.6642 136.283 43.2442 157.803 36.5542C158.233 36.4242 158.573 35.9942 158.913 35.7342C154.853 20.1342 157.083 11.2842 166.753 4.48417C175.163 -1.43583 186.093 -1.49583 194.393 4.31417C204.163 11.1542 206.733 20.8742 202.693 36.2342C203.703 36.6542 204.733 37.1542 205.803 37.5042C220.643 42.4142 232.653 51.3542 242.333 63.4742C245.553 67.5042 248.503 71.7642 251.383 76.0342C257.703 85.4042 258.523 85.8842 268.963 80.9842C274.043 78.6042 278.693 75.2642 283.393 72.1542C287.943 69.1342 289.693 69.5842 291.393 74.6542C294.606 84.2408 292.446 92.2575 284.913 98.7042C261.873 118.564 250.773 144.524 246.733 174.014C246.543 175.394 247.193 177.374 248.173 178.344C259.363 189.494 258.123 198.204 243.983 205.004C244.183 209.514 245.193 213.034 250.583 214.464C259.473 216.804 264.033 223.144 264.953 232.204C265.083 233.504 265.263 234.804 265.433 236.184C266.543 236.504 267.493 236.764 268.433 237.064C279.883 240.654 285.323 249.234 283.723 261.154C282.243 272.164 273.893 279.474 262.433 279.604C253.973 279.704 245.513 279.624 236.763 279.624C236.763 290.694 236.443 301.304 236.823 311.894C238.373 355.884 244.293 399.244 258.793 440.944C264.453 457.214 271.933 472.954 279.893 488.264C284.103 496.354 290.693 503.374 296.953 510.194C304.563 518.504 306.283 524.884 301.323 535.044C297.703 542.464 297.713 549.764 302.173 556.424C306.033 562.184 310.733 567.444 315.543 572.474C319.903 577.034 324.853 581.054 329.643 585.194C345.833 599.184 355.463 620.504 340.373 645.244C342.993 646.634 345.643 647.954 348.203 649.414C355.853 653.754 360.393 660.234 360.893 669.084C361.273 675.734 361.283 682.404 361.203 689.064C361.103 697.374 358.773 700.764 350.633 702.404C340.033 704.544 329.333 706.384 318.583 707.484C249.133 714.554 179.503 715.054 109.863 711.754C80.603 710.364 51.433 707.164 22.243 704.594C17.473 704.174 12.753 702.884 8.08295 701.684C3.19295 700.434 0.362953 697.164 0.252953 691.994C0.102953 684.664 -0.147047 677.324 0.112953 670.004C0.472953 660.104 5.53295 653.104 14.403 648.824C16.473 647.824 18.563 646.854 21.003 645.704C19.783 643.474 18.623 641.524 17.623 639.494C9.82295 623.474 12.513 605.534 25.363 591.864C31.273 585.564 38.143 580.174 44.323 574.114C48.833 569.704 53.3429 565.184 57.1329 560.164C63.1029 552.254 64.383 543.634 59.513 534.424C55.213 526.304 55.933 518.144 62.693 511.954C81.173 495.034 90.933 473.024 99.403 450.324C112.713 414.664 119.543 377.524 122.503 339.694C123.913 321.604 124.073 303.424 124.773 285.274C124.833 283.634 124.773 281.994 124.773 279.724L124.833 279.714ZM75.653 541.964C75.6531 541.968 75.6628 541.971 75.6629 541.974C76.4184 560.148 65.5907 572.016 53.533 583.194C50.363 586.134 46.973 588.864 43.873 591.874C40.183 595.474 36.3729 599.024 33.2029 603.054C27.3129 610.524 25.273 619.044 27.763 628.434C29.133 633.594 32.073 636.894 37.683 637.494C46.453 638.434 55.183 639.754 63.963 640.564C111.453 644.934 159.073 645.514 206.713 644.454C218.333 644.194 230.043 643.434 241.503 641.634C254.443 639.604 260.743 629.064 256.863 616.444C254.793 609.704 251.243 603.344 247.883 597.084C242.693 587.424 236.933 578.064 231.723 568.414C228.993 563.364 225.093 560.024 219.653 558.784C211.393 556.894 203.113 554.744 194.723 553.814C168.093 550.874 141.403 548.444 114.743 545.814C105.504 544.903 96.2653 543.996 86.8527 543.072C83.1531 542.709 79.4267 542.344 75.6629 541.974L75.653 541.964ZM224.823 511.614C224.213 509.254 223.643 507.374 223.243 505.454C218.363 482.184 212.653 459.044 208.823 435.604C202.603 397.564 200.913 359.084 200.713 320.574C200.673 312.214 197.643 305.924 190.123 303.064C179.463 299.014 168.493 295.634 157.443 292.794C151.483 291.254 145.083 291.424 138.723 290.814C136.233 367.734 127.073 442.074 85.013 508.594C86.803 508.894 87.943 509.124 89.083 509.274C89.0985 509.276 89.1141 509.278 89.1296 509.28C97.6231 510.424 97.6708 510.431 101.943 503.024C117.623 475.844 128.063 446.614 135.643 416.284C136.773 411.764 137.763 407.214 138.803 402.664C139.833 398.154 140.843 393.644 141.863 389.134C138.863 430.884 129.743 471.274 114.683 511.624H224.813L224.823 511.614ZM207.153 673.804C252.883 671.004 298.493 670.094 343.683 662.544C338.893 658.934 334.143 656.034 327.853 656.684C309.303 658.594 290.753 660.684 272.163 661.974C219.903 665.584 167.573 665.364 115.293 662.954C87.693 661.684 60.173 658.794 32.623 656.624C21.623 655.754 13.143 663.264 13.033 674.064C13.0311 674.246 13.0293 674.427 13.0275 674.608C12.9884 678.428 12.9493 682.254 13.293 686.044C13.403 687.314 14.613 689.244 15.693 689.544C19.293 690.544 23.053 690.954 26.813 691.594C27.1471 686.758 27.4664 682.144 27.7867 677.516C27.9937 674.525 28.201 671.529 28.413 668.464C34.043 669.284 38.563 669.934 43.033 670.594C43.033 676.944 43.0029 682.734 43.0429 688.534C43.0729 692.234 44.6429 693.974 48.7029 694.234C62.6629 695.124 76.5829 696.754 90.5529 697.494C141.493 700.214 192.463 700.834 243.453 698.874C257.903 698.314 257.903 698.444 257.633 683.754C257.513 677.344 257.093 677.074 250.903 676.704C236.313 675.824 221.743 674.784 207.163 673.804H207.153ZM79.1629 84.3742C78.5929 84.8742 78.0229 85.3742 77.4529 85.8842C107.463 108.894 120.763 140.844 126.713 176.414H180.223V89.7542C190.283 98.0042 200.293 103.804 212.443 104.264C224.823 104.734 234.703 98.6142 244.113 91.2442C245.253 92.5742 246.103 93.5742 246.953 94.5642C252.953 101.544 257.663 102.844 265.853 98.7342C271.162 96.0653 276.113 92.6429 281.016 89.2531C281.165 89.1501 281.314 89.0471 281.463 88.9442C282.593 88.1642 282.883 86.1542 283.853 84.0842C275.403 88.0542 268.313 91.6142 261.033 94.7242C256.273 96.7542 252.233 94.9342 249.183 90.9342C247.493 88.7142 245.933 86.3942 244.083 83.7942C234.633 91.3942 224.643 97.2342 212.413 97.5642C199.823 97.9042 189.693 92.1542 180.463 83.9442C159.553 103.464 138.513 101.104 117.703 84.3642C107.783 97.1142 104.213 98.0142 90.973 91.3242C89.193 90.4242 87.463 89.4142 85.743 88.4042C83.533 87.0942 81.3529 85.7342 79.1629 84.3942V84.3742ZM181.623 246.704V246.754C155.793 246.754 129.963 246.744 104.133 246.774C101.983 246.774 99.773 246.834 97.683 247.264C91.943 248.434 88.903 252.704 89.423 258.514C90.013 265.024 94.623 268.394 103.153 268.404C151.008 268.454 198.873 268.484 246.728 268.513C247.033 268.514 247.338 268.514 247.643 268.514C252.143 268.514 256.643 268.614 261.143 268.434C266.693 268.214 270.723 264.734 271.753 259.594C273.293 251.914 268.753 246.754 260.123 246.734C233.963 246.664 207.793 246.714 181.633 246.714L181.623 246.704ZM193.653 47.0542C195.123 47.4142 197.043 47.8142 198.913 48.3642C213.623 52.7542 224.563 62.0142 233.083 74.5342C233.923 75.7742 235.693 76.3842 237.043 77.2842C236.763 75.6642 236.583 74.0142 236.153 72.4342C235.943 71.6742 235.273 71.0442 234.793 70.3542C208.673 32.7942 149.813 34.0042 125.073 72.5242C123.253 75.3642 123.823 76.6942 126.223 78.5642C143.423 91.9642 160.853 90.8142 176.613 74.6942C179.843 71.3942 181.673 71.1242 184.883 74.5642C190.273 80.3242 196.583 84.8842 204.533 86.7642C208.693 87.7542 211.283 86.9342 210.603 82.1442C209.933 77.4242 209.823 72.2342 207.673 68.2042C203.743 60.8442 198.493 54.1942 193.653 47.0542ZM289.463 523.374L289.663 520.834C287.103 520.394 284.523 519.464 281.983 519.584C256.553 520.804 231.143 522.814 205.693 523.394C163.073 524.364 120.463 523.664 78.0229 518.944C73.8329 518.474 71.2129 520.394 70.4529 524.414C69.6429 528.694 72.713 530.024 76.063 530.434C88.453 531.934 100.833 533.624 113.263 534.574C151.493 537.484 189.763 537.384 228.053 535.804C228.11 535.802 228.166 535.8 228.222 535.797C236.813 535.444 236.839 535.443 239.373 527.624C256.073 526.204 272.773 524.794 289.463 523.374ZM252.343 235.924C255.053 228.714 251.823 223.824 244.313 223.374C235.343 222.844 226.333 222.934 217.343 222.944C185.703 222.984 154.053 223.034 122.413 223.284C118.703 223.314 114.803 224.114 111.363 225.504C108.053 226.844 106.613 230.074 107.383 233.814C108.213 237.804 111.513 237.054 114.213 237.064C143.863 237.144 173.503 237.164 203.153 237.174C206.483 237.174 209.813 236.924 213.143 236.934C217.413 236.934 218.643 234.584 218.153 230.794C218.013 229.694 217.733 228.614 217.433 227.054C224.623 227.054 231.403 227.184 238.173 227.014C244.753 226.854 250.853 227.194 252.343 235.924ZM276.183 508.414C274.103 505.124 272.083 502.094 270.233 498.974C248.923 463.064 237.633 423.724 230.653 382.944C225.673 353.834 223.043 324.494 222.573 294.954C222.553 293.534 221.753 292.124 221.313 290.714C220.803 290.814 220.303 290.904 219.793 291.004C219.633 292.414 219.343 293.824 219.333 295.234C219.023 342.914 222.943 390.064 236.673 436.014C244.053 460.734 254.353 484.094 268.943 505.464C270.553 507.824 271.963 510.554 276.183 508.414ZM244.593 190.124C244.557 190.078 244.521 190.032 244.486 189.986C241.649 186.337 241.436 186.064 234.483 186.044C201.625 185.933 168.758 185.925 135.898 185.916C133.156 185.916 130.415 185.915 127.673 185.914C125.853 185.914 124.013 186.094 122.213 186.404C119.283 186.894 115.983 187.984 116.883 191.474C117.343 193.244 120.553 194.404 122.663 195.584C123.433 196.014 124.623 195.684 125.623 195.684C152.243 195.724 178.863 195.694 205.483 195.874C210.173 195.904 214.163 195.644 214.863 190.124H244.593ZM202.943 213.494C203.093 213.034 203.243 212.564 203.393 212.104C199.893 210.954 196.453 209.504 192.873 208.694C173.993 204.444 154.813 205.194 135.663 205.614C128.863 205.764 128.593 206.034 128.553 213.494H202.943ZM175.943 33.6042C185.033 33.4442 191.533 27.8742 191.513 20.2442C191.503 14.0042 185.913 8.30417 179.823 8.34417C172.083 8.39417 165.593 15.3142 165.703 23.4042C165.803 30.7142 168.823 33.7242 175.933 33.6042H175.943ZM325.833 637.114C331.053 634.314 332.883 630.144 333.653 625.464C335.253 615.714 332.033 607.284 325.403 600.344C319.903 594.584 313.833 589.354 307.873 584.054C299.583 576.684 292.323 568.574 287.943 558.214C287.403 556.934 286.733 555.694 286.123 554.434C285.823 563.244 288.693 571.004 294.283 577.344C300.643 584.564 307.463 591.434 314.573 597.924C325.773 608.144 331.013 619.874 325.853 634.934C325.703 635.364 325.833 635.894 325.833 637.104V637.114ZM255.293 116.774C241.603 128.694 227.643 168.364 234.773 177.914C238.453 155.824 243.813 135.264 255.293 116.774ZM217.023 173.294C220.973 156.684 224.923 140.084 228.933 123.264C220.153 136.684 213.973 160.904 217.023 173.294ZM342.323 689.554C342.783 689.904 343.253 690.254 343.713 690.604C344.903 689.604 347.073 688.664 347.133 687.604C347.473 681.884 347.293 676.144 347.293 670.404C346.683 670.154 346.063 669.894 345.453 669.644C344.413 670.824 342.543 671.944 342.463 673.184C342.133 678.624 342.323 684.094 342.323 689.554Z"
        fill="#1C1C1C"
      />
      <path
        d="M84.8029 562.604C84.8016 562.611 84.8002 562.617 84.7988 562.624C82.9675 571.466 79.329 579.57 74.1229 586.964C71.3429 590.904 68.293 594.664 65.223 598.394C56.783 608.644 51.623 619.774 56.053 634.294C51.013 633.724 46.603 633.444 42.323 632.574C41.323 632.374 40.153 630.224 40.033 628.884C39.393 621.334 41.0929 614.274 45.6329 608.134C47.8929 605.064 50.5029 602.214 53.2029 599.514C58.9729 593.744 65.353 588.524 70.653 582.364C75.8778 576.28 80.0746 569.318 84.7988 562.624C84.8024 562.619 84.8094 562.609 84.813 562.604H84.8029Z"
        fill="#1C1C1C"
      />
      <path
        d="M102.863 103.964C105.554 102.368 108.125 100.843 110.677 99.329C113.464 97.6755 116.227 96.0362 119.093 94.3342C128.633 114.244 134.773 135.904 135.863 159.094C129.283 137.774 118.513 118.974 102.863 103.964Z"
        fill="#1C1C1C"
      />
      <path
        d="M229.213 251.414C240.003 251.414 250.483 251.424 260.963 251.414C264.683 251.414 267.213 253.034 267.423 256.834C267.633 260.524 265.803 263.254 262.123 264.344C261.033 264.664 259.813 264.624 258.653 264.624C238.323 264.574 217.993 264.504 197.663 264.424C196.893 264.424 196.123 264.294 195.303 263.314C200.313 262.864 205.313 262.424 210.323 261.944C213.973 261.604 217.613 261.234 221.263 260.834C228.083 260.094 229.153 258.904 229.223 251.424L229.213 251.414Z"
        fill="#1C1C1C"
      />
      <path
        d="M191.513 20.2441C191.533 27.8741 185.033 33.4442 175.943 33.6041H175.933C168.823 33.7241 165.803 30.7142 165.703 23.4041C165.593 15.3142 172.083 8.39413 179.823 8.34408C185.913 8.30416 191.503 14.0041 191.513 20.2441Z"
        fill="#B8860B"
      />
      <path
        fill-rule="evenodd"
        clip-rule="evenodd"
        d="M195.01 47.3748C194.529 47.263 194.073 47.157 193.653 47.0543C195.073 49.1497 196.529 51.2031 197.977 53.2444C201.461 58.1587 204.896 63.0043 207.673 68.2043C209.349 71.3466 209.786 75.1944 210.214 78.9747C210.335 80.0424 210.455 81.1047 210.603 82.1442C211.283 86.9343 208.693 87.7542 204.533 86.7642C196.583 84.8842 190.273 80.3243 184.883 74.5643C181.673 71.1242 179.843 71.3942 176.613 74.6943C160.853 90.8143 143.423 91.9642 126.223 78.5643C123.823 76.6943 123.253 75.3642 125.073 72.5242C149.813 34.0042 208.673 32.7942 234.793 70.3542C234.935 70.559 235.095 70.7586 235.254 70.9578C235.63 71.4297 236.005 71.8998 236.153 72.4343C236.46 73.5617 236.639 74.7249 236.819 75.8873C236.891 76.3538 236.963 76.8202 237.043 77.2842C236.62 77.0021 236.156 76.7486 235.691 76.4952C234.675 75.94 233.66 75.3856 233.083 74.5342C224.563 62.0142 213.623 52.7542 198.913 48.3642C197.577 47.9712 196.215 47.6548 195.01 47.3748Z"
        fill="#B8860B"
      />
      <path
        fill-rule="evenodd"
        clip-rule="evenodd"
        d="M77.4529 85.8842C78.0229 85.3741 78.593 84.8741 79.163 84.3741V84.3942C79.7693 84.7651 80.375 85.1377 80.9807 85.5104C82.5625 86.4835 84.1449 87.4569 85.7429 88.4042C87.463 89.4142 89.1929 90.4242 90.973 91.3242C104.213 98.0142 107.783 97.1141 117.703 84.3641C138.513 101.104 159.553 103.464 180.463 83.9442C189.693 92.1542 199.823 97.9042 212.413 97.5642C224.643 97.2341 234.633 91.3942 244.083 83.7942C244.675 84.6257 245.237 85.4287 245.783 86.2089C246.944 87.868 248.033 89.4243 249.183 90.9342C252.233 94.9342 256.273 96.7542 261.033 94.7241C266.07 92.5724 271.016 90.2053 276.384 87.636C278.775 86.4918 281.249 85.3075 283.853 84.0842C283.524 84.7859 283.273 85.4807 283.042 86.123C282.59 87.3756 282.21 88.4286 281.463 88.9442L281.016 89.2531C276.113 92.6428 271.162 96.0652 265.853 98.7341C257.663 102.844 252.953 101.544 246.953 94.5642C246.516 94.0551 246.079 93.5432 245.602 92.9851C245.152 92.4583 244.667 91.8901 244.113 91.2441C234.703 98.6141 224.823 104.734 212.443 104.264C200.293 103.804 190.283 98.0042 180.223 89.7542V176.414H126.713C120.763 140.844 107.463 108.894 77.4529 85.8842ZM102.863 103.964L119.093 94.3342C128.633 114.244 134.773 135.904 135.863 159.094C129.283 137.774 118.513 118.974 102.863 103.964Z"
        fill="#B8860B"
      />
      <path
        fill-rule="evenodd"
        clip-rule="evenodd"
        d="M217.023 173.294C220.973 156.684 224.923 140.084 228.933 123.264C220.153 136.684 213.973 160.904 217.023 173.294Z"
        fill="#B8860B"
      />
      <path
        fill-rule="evenodd"
        clip-rule="evenodd"
        d="M255.293 116.774C241.603 128.694 227.643 168.364 234.773 177.914C238.453 155.824 243.813 135.264 255.293 116.774Z"
        fill="#B8860B"
      />
      <path
        fill-rule="evenodd"
        clip-rule="evenodd"
        d="M244.486 189.986L244.593 190.124H214.863C214.163 195.644 210.173 195.904 205.483 195.874C185.509 195.739 165.536 195.722 145.562 195.705C138.916 195.7 132.269 195.694 125.623 195.684C125.321 195.684 125.001 195.714 124.681 195.745C123.942 195.814 123.2 195.884 122.663 195.584C122.192 195.321 121.667 195.059 121.13 194.791C119.258 193.856 117.24 192.849 116.883 191.474C115.983 187.984 119.283 186.894 122.213 186.404C124.013 186.094 125.853 185.914 127.673 185.914L135.898 185.916C168.757 185.925 201.625 185.933 234.483 186.044C241.436 186.064 241.649 186.337 244.486 189.986Z"
        fill="#B8860B"
      />
      <path
        fill-rule="evenodd"
        clip-rule="evenodd"
        d="M203.393 212.104C203.243 212.564 203.093 213.034 202.943 213.494H128.553C128.593 206.034 128.863 205.764 135.663 205.614C136.848 205.588 138.033 205.561 139.219 205.534C157.186 205.121 175.161 204.707 192.873 208.694C195.315 209.247 197.692 210.097 200.067 210.947C201.174 211.343 202.28 211.739 203.393 212.104Z"
        fill="#B8860B"
      />
      <path
        fill-rule="evenodd"
        clip-rule="evenodd"
        d="M244.313 223.374C251.823 223.824 255.053 228.714 252.343 235.924C250.853 227.194 244.753 226.854 238.173 227.014C233.475 227.132 228.772 227.106 223.931 227.078C221.796 227.066 219.634 227.054 217.433 227.054C217.541 227.617 217.647 228.117 217.744 228.578C217.917 229.396 218.063 230.091 218.153 230.794C218.643 234.584 217.413 236.934 213.143 236.934C211.445 236.929 209.748 236.992 208.05 237.054C206.418 237.114 204.785 237.174 203.153 237.174C173.503 237.164 143.863 237.144 114.213 237.064C113.843 237.063 113.461 237.076 113.077 237.089C110.655 237.171 108.099 237.257 107.383 233.814C106.613 230.074 108.053 226.844 111.363 225.504C114.803 224.114 118.703 223.314 122.413 223.284C154.053 223.034 185.703 222.984 217.343 222.944C218.371 222.943 219.399 222.941 220.427 222.939C228.393 222.922 236.368 222.905 244.313 223.374Z"
        fill="#B8860B"
      />
      <path
        fill-rule="evenodd"
        clip-rule="evenodd"
        d="M181.623 246.754V246.704L181.633 246.714C189.324 246.714 197.017 246.71 204.71 246.705C223.181 246.695 241.655 246.685 260.123 246.734C268.753 246.754 273.293 251.914 271.753 259.594C270.723 264.734 266.693 268.214 261.143 268.434C257.827 268.567 254.512 268.547 251.196 268.528C250.012 268.521 248.827 268.514 247.643 268.514L246.684 268.513C198.844 268.484 150.993 268.454 103.153 268.404C94.6229 268.394 90.0129 265.024 89.423 258.514C88.903 252.704 91.9429 248.434 97.683 247.264C99.7729 246.834 101.983 246.774 104.133 246.774C124.797 246.75 145.461 246.752 166.125 246.753C171.291 246.754 176.457 246.754 181.623 246.754ZM239.98 251.416C247.035 251.419 253.999 251.421 260.963 251.414C264.683 251.414 267.213 253.034 267.423 256.834C267.633 260.524 265.803 263.254 262.123 264.344C261.142 264.632 260.055 264.629 259.002 264.625C258.885 264.624 258.769 264.624 258.653 264.624C238.323 264.574 217.993 264.504 197.663 264.424C196.893 264.424 196.123 264.294 195.303 263.314C196.26 263.228 197.216 263.143 198.172 263.057C202.223 262.695 206.27 262.332 210.323 261.944C213.973 261.604 217.613 261.234 221.263 260.834C228.083 260.094 229.153 258.904 229.223 251.424L229.213 251.414C232.833 251.414 236.418 251.415 239.98 251.416Z"
        fill="#B8860B"
      />
      <path
        fill-rule="evenodd"
        clip-rule="evenodd"
        d="M224.232 509.399C224.422 510.097 224.62 510.829 224.823 511.614L224.813 511.624H114.683C129.743 471.274 138.863 430.884 141.863 389.134C140.843 393.644 139.833 398.154 138.803 402.664C138.539 403.821 138.278 404.977 138.016 406.133C137.251 409.525 136.486 412.913 135.643 416.284C128.063 446.614 117.623 475.844 101.943 503.024C97.6708 510.431 97.623 510.424 89.1296 509.28L89.0829 509.274C88.3524 509.178 87.6219 509.049 86.7204 508.89C86.215 508.801 85.6559 508.702 85.0129 508.594C127.073 442.074 136.233 367.734 138.723 290.814C140.699 291.004 142.679 291.118 144.649 291.232C149.018 291.484 153.335 291.733 157.443 292.794C168.493 295.634 179.463 299.014 190.123 303.064C197.643 305.924 200.673 312.214 200.713 320.574C200.913 359.084 202.603 397.564 208.823 435.604C211.48 451.868 215.043 467.988 218.606 484.107C220.177 491.219 221.749 498.33 223.243 505.454C223.51 506.735 223.853 507.999 224.232 509.399Z"
        fill="#B8860B"
      />
      <path
        fill-rule="evenodd"
        clip-rule="evenodd"
        d="M274.209 505.326C274.859 506.337 275.518 507.362 276.183 508.414C272.253 510.407 270.76 508.176 269.273 505.954C269.163 505.79 269.054 505.626 268.943 505.464C254.353 484.094 244.053 460.734 236.673 436.014C222.943 390.064 219.023 342.914 219.333 295.234C219.34 294.271 219.477 293.308 219.615 292.345C219.678 291.898 219.742 291.451 219.793 291.004C220.046 290.954 220.297 290.907 220.548 290.86C220.802 290.812 221.056 290.765 221.313 290.714C221.451 291.158 221.626 291.602 221.8 292.046C222.179 293.013 222.559 293.981 222.573 294.954C223.043 324.494 225.673 353.834 230.653 382.944C237.633 423.724 248.923 463.064 270.233 498.974C271.491 501.096 272.828 503.177 274.209 505.326Z"
        fill="#B8860B"
      />
      <path
        fill-rule="evenodd"
        clip-rule="evenodd"
        d="M289.663 520.834L289.463 523.374C280.826 524.109 272.186 524.841 263.545 525.573C255.488 526.256 247.431 526.939 239.373 527.624C236.839 535.443 236.813 535.445 228.222 535.797L228.053 535.804C189.763 537.384 151.493 537.484 113.263 534.574C103.369 533.818 93.5069 532.593 83.6461 531.368C81.1184 531.054 78.5909 530.74 76.0629 530.434C72.713 530.024 69.643 528.694 70.453 524.414C71.213 520.394 73.833 518.474 78.023 518.944C120.463 523.664 163.073 524.364 205.693 523.394C222.087 523.021 238.464 522.054 254.841 521.087C263.887 520.552 272.934 520.018 281.983 519.584C283.715 519.502 285.466 519.909 287.216 520.315C288.032 520.505 288.849 520.694 289.663 520.834Z"
        fill="#B8860B"
      />
      <path
        fill-rule="evenodd"
        clip-rule="evenodd"
        d="M53.533 583.194C65.593 572.014 76.413 560.144 75.653 541.964L75.663 541.974L86.8527 543.072C96.2653 543.996 105.504 544.902 114.743 545.814C122.269 546.557 129.798 547.283 137.327 548.01C156.468 549.857 175.611 551.704 194.723 553.814C201.686 554.586 208.574 556.198 215.437 557.805C216.843 558.134 218.248 558.463 219.653 558.784C225.093 560.024 228.993 563.364 231.723 568.414C234.282 573.154 236.974 577.824 239.665 582.494C242.454 587.331 245.242 592.169 247.883 597.084C248.134 597.553 248.387 598.021 248.64 598.491C251.766 604.298 254.948 610.208 256.863 616.444C260.743 629.064 254.443 639.604 241.503 641.634C230.043 643.434 218.333 644.194 206.713 644.454C159.073 645.514 111.453 644.934 63.963 640.564C58.9343 640.1 53.9219 639.469 48.9092 638.838C45.1697 638.367 41.43 637.896 37.683 637.494C32.0729 636.894 29.1329 633.594 27.7629 628.434C25.2729 619.044 27.3129 610.524 33.2029 603.054C35.9566 599.553 39.1932 596.415 42.4147 593.291C42.9017 592.819 43.3883 592.347 43.8729 591.874C45.6403 590.158 47.502 588.533 49.3634 586.908C50.7669 585.683 52.1703 584.458 53.533 583.194ZM84.7988 562.624C83.3615 564.661 81.973 566.722 80.5895 568.776C77.4257 573.473 74.2881 578.131 70.653 582.364C67.287 586.276 63.4854 589.809 59.6811 593.345C57.4952 595.376 55.3085 597.409 53.2029 599.514C50.5029 602.214 47.8929 605.064 45.6329 608.134C41.093 614.274 39.3929 621.334 40.033 628.884C40.153 630.224 41.3229 632.374 42.3229 632.574C45.4339 633.207 48.6135 633.527 52.0538 633.874C53.3467 634.004 54.6763 634.138 56.053 634.294C51.6229 619.774 56.783 608.644 65.223 598.394C68.293 594.664 71.343 590.904 74.1229 586.964C79.329 579.57 82.9675 571.466 84.7988 562.624Z"
        fill="#B8860B"
      />
      <path
        fill-rule="evenodd"
        clip-rule="evenodd"
        d="M333.653 625.464C332.883 630.144 331.053 634.314 325.833 637.114V637.104C325.833 636.651 325.815 636.293 325.8 636C325.775 635.511 325.759 635.203 325.853 634.934C331.013 619.874 325.773 608.144 314.573 597.924C307.463 591.434 300.643 584.564 294.283 577.344C288.693 571.004 285.823 563.244 286.123 554.434C286.317 554.835 286.517 555.234 286.718 555.634C287.146 556.488 287.575 557.342 287.943 558.214C292.323 568.574 299.583 576.684 307.873 584.054C308.703 584.793 309.536 585.53 310.368 586.267C315.513 590.822 320.669 595.387 325.403 600.344C332.033 607.284 335.253 615.714 333.653 625.464Z"
        fill="#B8860B"
      />
      <path
        d="M237.375 672.137C227.309 672.661 217.234 673.187 207.153 673.804H207.163C211.147 674.072 215.131 674.344 219.115 674.616C229.708 675.34 240.3 676.065 250.903 676.704C257.093 677.074 257.513 677.344 257.633 683.754C257.768 691.117 257.836 694.757 256.05 696.627C254.273 698.487 250.66 698.595 243.453 698.874C192.463 700.834 141.493 700.214 90.553 697.494C82.9238 697.09 75.3095 696.42 67.6954 695.751C61.3673 695.194 55.0392 694.638 48.7029 694.234C44.643 693.974 43.0729 692.234 43.043 688.534C43.0152 684.507 43.0212 680.485 43.0274 676.277C43.0302 674.424 43.033 672.536 43.033 670.594C40.091 670.16 37.1274 669.73 33.84 669.253C32.1325 669.005 30.3376 668.744 28.413 668.464L26.8129 691.594C25.7883 691.42 24.7637 691.262 23.7424 691.105C21.0156 690.687 18.312 690.272 15.6929 689.544C14.613 689.244 13.403 687.314 13.293 686.044C12.9493 682.254 12.9884 678.427 13.0275 674.608L13.033 674.064C13.143 663.264 21.6229 655.754 32.6229 656.624C41.0964 657.292 49.5671 658.027 58.0381 658.763C77.109 660.419 96.1818 662.075 115.293 662.954C167.573 665.364 219.903 665.584 272.163 661.974C287.357 660.92 302.525 659.331 317.687 657.743C321.076 657.388 324.465 657.033 327.853 656.684C334.143 656.034 338.893 658.934 343.683 662.544C308.455 668.43 272.971 670.28 237.375 672.137Z"
        fill="#B8860B"
      />
      <path
        fill-rule="evenodd"
        clip-rule="evenodd"
        d="M343.018 690.079C342.785 689.904 342.553 689.729 342.323 689.554C342.323 688.093 342.309 686.631 342.296 685.169C342.259 681.169 342.221 677.168 342.463 673.184C342.518 672.338 343.405 671.549 344.293 670.758C344.708 670.389 345.122 670.02 345.453 669.644C345.758 669.769 346.065 669.897 346.373 670.024C346.68 670.152 346.988 670.279 347.293 670.404C347.293 671.881 347.305 673.357 347.317 674.833C347.351 679.096 347.386 683.355 347.133 687.604C347.092 688.327 346.071 688.993 345.048 689.661C344.57 689.973 344.092 690.286 343.713 690.604C343.483 690.429 343.25 690.254 343.018 690.079Z"
        fill="#B8860B"
      />
    </svg>