 <svg
      width="414"
      height="696"
      viewBox="0 0 414 696"
      fill="none"
     xmlns="http://www.w3.org/2000/svg" 
    >
      <path
        d="M261.279 226.93c7.51 3.37 15.04 6.18 21.95 10.08 4.01 2.26 7.03 6.29 10.51 9.51 1.55 1.43 2.99 3.06 4.75 4.15 4.94 3.07 10.21 5.64 15.01 8.89 7.37 5 10.3 12.23 8.13 20.88-2.08 8.29-7.62 13.93-16.11 15.16-10.35 1.51-20.86 1.99-31.29 2.91-1.3.12-2.6.25-4.05.39-.19.79-.45 1.4-.47 2.02-1.23 46.56 6.41 91.31 28.37 132.83 5.65 10.69 12.39 20.97 19.84 30.48 5.01 6.4 11.7 11.79 18.45 16.46 11.38 7.88 13.92 13.6 9.16 26.52-3.37 9.16-1.87 17.6 3.96 24.93 4.42 5.56 9.7 10.5 15.03 15.25 6.33 5.64 13.31 10.56 19.68 16.17 16.91 14.91 20.17 33.57 9.65 53.54-.31.58-.52 1.22-.88 2.09 2.35 1.57 4.7 3.1 7 4.69 8.69 6.01 13.2 14.34 13.51 24.88.15 5.33.13 10.66.1 16-.06 10.13-3.07 15.02-12.88 17.5-10.93 2.76-22.09 5.07-33.29 6.29-73.15 7.97-146.54 8.06-219.98 6.3-38.28-.92-76.54-2.41-114.46-8.24-6.88-1.06-13.76-2.53-20.42-4.53C3.19 679.26.29 674.93.1 665.23c-.08-4.33.15-8.67-.05-13-.63-13.27 4.76-23.31 16.15-29.92 3.94-2.29 4.1-4.27 2.13-8.21-7.82-15.63-5.39-33 6.66-45.85 5.32-5.67 11.72-10.32 17.57-15.51 6.59-5.85 13.56-11.36 19.54-17.79 7.83-8.43 10.15-18.31 5.57-29.55-3.9-9.58-2.19-17.2 5.97-21.87 19.16-10.96 30.53-28.39 40.56-46.96 23.1-42.75 31.06-88.85 29.72-137.55-9.24-.77-18.3-1.5-27.36-2.3-2.98-.26-5.99-.48-8.91-1.09-8.04-1.69-13.4-6.6-15.57-14.49-2.19-7.95-.16-15.17 6.32-20.21 5.07-3.94 11.09-6.65 16.53-10.16 2.13-1.37 3.79-3.46 5.73-5.15 3.57-3.12 6.79-6.89 10.86-9.1 6.69-3.63 13.94-6.22 21.51-9.5-40.86-23.7-64.23-58.1-65.32-105.81-.79-34.49 11.8-63.86 36.49-87.77 49.89-48.3 130.03-43.58 174.49 9.64 46.83 56.07 33.29 145.28-37.41 183.85M104.04 119.12c0 2.5-.04 5 0 7.5.39 18.57 6.46 34.16 23.03 44.33 2.12 1.3 3.95 3.06 6.03 4.44 32.18 21.34 66.23 24.91 100.83 7.69 53.48-26.62 72.69-95.59 28.38-149.99-1.32-1.62-3.26-2.85-5.11-3.9-68.26-38.77-153.6 11.3-153.16 89.93M85.19 517.25c-.45 16.13-9.5 27.55-20.99 37.54-5.02 4.37-10.27 8.48-15.3 12.84-4.27 3.71-8.61 7.38-12.47 11.48-5.75 6.11-7.24 13.61-6.09 21.81.79 5.64 3.52 9.02 9.42 9.84 10.54 1.46 20.99 3.56 31.56 4.75 48.36 5.46 96.91 7.38 145.52 6.12 30.24-.78 60.46-2.98 90.66-4.95 9.94-.65 15.03-6.94 15.42-16.9.33-8.61-3.86-15.32-8.97-21.61-11.12-13.67-22.87-26.82-30.4-43.13-1.53-3.31-6.27-5.78-10.07-7.21-3.57-1.34-7.85-.93-11.83-1.07-38.9-1.32-77.83-2.2-116.71-4.03-19.72-.93-39.38-3.56-59.75-5.48m74.21-201.24c-.59 59.64-15.54 113.8-52.17 161.77 55.68 4.87 110.33 6.01 165.28 2.21-4.48-9.26-8.87-17.67-12.69-26.34-15.58-35.4-21.73-72.9-24.07-111.19-.75-12.17-5.02-17.08-17-18.84-5.76-.85-11.51-1.78-17.29-2.5-13.67-1.72-27.36-3.33-42.06-5.11m235.29 327.21.026-.185c.071-.527.142-1.047.204-1.575-5.48-3.98-9.59-10.59-18.09-8.81-32.55 6.8-65.61 9.31-98.71 9.87-45.92.78-91.87.79-137.78-.05-35.26-.64-70.48-3.25-105.23-10.03-1.36-.27-3.06-.24-4.27.34-8.95 4.28-15.91 9.94-13.89 21.42.23 1.3.24 2.69.05 3.99-.81 5.71 1.98 7.7 7.34 8.68 35.29 6.49 70.98 8.98 106.72 10.52 59.23 2.57 118.47 2.58 177.67-1.56 13.08-.92 14.31-2.06 14.59-15.39.02-.83.12-1.7-.05-2.49-.8-3.68.71-4.91 4.37-5.26 11.92-1.16 23.83-2.46 35.69-4.14 10.5-1.48 20.91-3.54 31.36-5.34zM213.429 511.7c11.54-.47 32.52-.84 53.43-2.3 19.57-1.37 39.07-3.84 58.59-5.97 2.85-.31 6.98-.5 6.61-4.44-.25-2.63-2.54-5.51-4.71-7.35-1.5-1.27-4.37-1.46-6.57-1.29-19.58 1.48-39.12 3.55-58.71 4.7-47.93 2.8-95.84 1.88-143.69-2.02-9.12-.74-18.2-1.94-27.32-2.75-4.72-.42-9.7 3.28-9.88 7.26-.24 5.52 4.02 5.65 7.84 6.23 38.11 5.75 76.49 7.55 124.41 7.95zm-7.42-227.02c24.07-1.38 48.14-2.58 72.19-4.24 8.43-.58 16.78-2.26 25.15-3.57 2.57-.4 4.58-1.69 3.14-4.79-1.49-3.22-14.53-9.79-18.11-9.16-38.09 6.74-76.48 6.81-114.9 4.83-14.58-.75-29.31-1.79-43.58-4.64-9.81-1.96-15.33 3.32-21.66 8.04-2.6 1.94-1.86 4.46 1.36 5.61 1.4.5 2.88.82 4.35 1.04 30.497 4.64 61.204 6.07 92.06 6.88.004 0 .007.01.01.01zm-71.58-34.74c.001.004.01.006.01.01.18.816.351 1.644.53 2.46 47.88 7.02 95.75 6.21 143.6-.22l.39-2.77c-2.55-.71-5.08-1.93-7.66-2.05-33.56-1.61-67.13-2.98-100.68-4.59-9.96-.48-19.96-1.86-29.34 2.9-2.39 1.21-4.56 2.84-6.84 4.27z"
        fill="#1C1C1C"
      />
      <path
        d="m394.715 643.035-.026.175a1285 1285 0 0 0-9.693 1.721c-7.208 1.299-14.416 2.597-21.667 3.619-11.86 1.68-23.77 2.98-35.69 4.14-3.66.35-5.17 1.58-4.37 5.26.132.611.102 1.269.072 1.92q-.013.287-.022.57c-.28 13.33-1.51 14.47-14.59 15.39-59.2 4.14-118.44 4.13-177.67 1.56-35.74-1.54-71.43-4.03-106.72-10.52-5.36-.98-8.15-2.97-7.34-8.68.19-1.3.18-2.69-.05-3.99-2.02-11.48 4.94-17.14 13.89-21.42 1.21-.58 2.91-.61 4.27-.34 34.75 6.78 69.97 9.39 105.23 10.03 45.91.84 91.86.83 137.78.05 33.1-.56 66.16-3.07 98.71-9.87 6.474-1.355 10.401 2.156 14.327 5.665 1.229 1.098 2.457 2.196 3.763 3.145-.062.527-.133 1.049-.204 1.575"
        fill="#B8860B"
      />
      <path
        fill-rule="evenodd"
        clip-rule="evenodd"
        d="M64.2 554.79c11.49-9.99 20.54-21.41 20.99-37.54 6.422.605 12.773 1.281 19.078 1.952 13.694 1.457 27.169 2.892 40.671 3.528 26.567 1.251 53.158 2.058 79.746 2.864 12.323.374 24.645.748 36.964 1.166.952.034 1.921.036 2.893.038 3.094.006 6.221.013 8.937 1.032 3.8 1.43 8.54 3.9 10.07 7.21 6.519 14.12 16.201 25.872 25.898 37.642a1075 1075 0 0 1 4.502 5.488c5.11 6.29 9.3 13 8.97 21.61-.39 9.96-5.48 16.25-15.42 16.9q-6.282.41-12.566.829c-26.017 1.724-52.048 3.449-78.094 4.121-48.61 1.26-97.16-.66-145.52-6.12-6.201-.698-12.362-1.709-18.524-2.721-4.34-.713-8.68-1.425-13.035-2.029-5.9-.82-8.63-4.2-9.42-9.84-1.15-8.2.34-15.7 6.09-21.81 3.449-3.664 7.282-6.984 11.105-10.297l1.365-1.183c2.462-2.135 4.978-4.21 7.494-6.284 2.622-2.163 5.244-4.325 7.806-6.556m160.305-43.467c-4.244.133-7.996.252-11.076.377v.02c-47.92-.4-86.3-2.2-124.41-7.95q-.448-.067-.903-.131c-3.557-.502-7.158-1.011-6.936-6.099.18-3.98 5.16-7.68 9.88-7.26 4.187.372 8.367.826 12.545 1.28 4.922.535 9.842 1.07 14.774 1.47 47.85 3.9 95.76 4.82 143.69 2.02 11.932-.7 23.845-1.742 35.76-2.784 7.648-.669 15.296-1.337 22.95-1.916 2.2-.17 5.07.02 6.57 1.29 2.17 1.84 4.46 4.72 4.71 7.35.35 3.717-3.307 4.097-6.114 4.388l-.496.052c-4.605.503-9.208 1.024-13.812 1.546-14.912 1.688-29.824 3.377-44.778 4.424-15.329 1.071-30.696 1.555-42.354 1.923M107.229 477.78c36.63-47.97 51.58-102.13 52.17-161.77 4.453.539 8.813 1.063 13.107 1.579 9.885 1.187 19.424 2.332 28.953 3.531 4.186.521 8.355 1.153 12.524 1.784q2.382.362 4.766.716c11.98 1.76 16.25 6.67 17 18.84 2.34 38.29 8.49 75.79 24.07 111.19 2.593 5.883 5.447 11.647 8.414 17.638 1.406 2.837 2.836 5.726 4.276 8.702-54.95 3.8-109.6 2.66-165.28-2.21m119.038-194.233c-6.752.373-13.505.746-20.258 1.133l.01.01c-30.86-.81-61.57-2.25-92.07-6.89-1.47-.22-2.95-.54-4.35-1.04-3.22-1.15-3.96-3.67-1.36-5.61.639-.476 1.268-.957 1.895-1.436 5.592-4.275 10.944-8.366 19.765-6.604 14.27 2.85 29 3.89 43.58 4.64 38.42 1.98 76.81 1.91 114.9-4.83 3.58-.63 16.62 5.94 18.11 9.16 1.44 3.1-.57 4.39-3.14 4.79-2.101.329-4.201.681-6.302 1.034-6.266 1.051-12.534 2.102-18.848 2.536-17.303 1.194-34.616 2.151-51.932 3.107m-91.298-31.137-.54-2.47.01.01c.743-.465 1.473-.952 2.203-1.438 1.513-1.008 3.025-2.016 4.637-2.832 8.178-4.149 16.826-3.633 25.508-3.114 1.277.076 2.555.153 3.832.214 16.791.806 33.586 1.552 50.383 2.297 16.766.745 33.533 1.489 50.297 2.293 1.764.082 3.505.678 5.244 1.274.805.276 1.61.552 2.416.776l-.39 2.77c-47.85 6.43-95.72 7.24-143.6.22m-30.938-130.79q.007-1.25.008-2.5c-.44-78.63 84.9-128.7 153.16-89.93 1.85 1.05 3.79 2.28 5.11 3.9 44.31 54.4 25.1 123.37-28.38 149.99-34.6 17.22-68.65 13.65-100.83-7.69-.948-.629-1.845-1.337-2.74-2.045-1.069-.844-2.136-1.688-3.29-2.395-16.57-10.17-22.64-25.76-23.03-44.33-.026-1.667-.017-3.333-.008-5"
        fill="#B8860B"
      />
    </svg>