    <svg viewBox="0 0 425 779" fill="none"      xmlns="http://www.w3.org/2000/svg" 
>
      <path
        d="M185.505 273.149c-6.78-1.92-13.26-3.91-19.83-5.53-1.81-.45-3.94-.07-5.83.36-10.19 2.32-20.23 5.65-30.54 7-15.71 2.05-28.09 9.21-35.86 22.56-7.06 12.13-16.33 16-29.58 13.14-6.16-1.33-12.56-1.5-18.84-2.3-10.97-1.41-13.72-4.25-14.79-15.7-2.69 0-5.48.22-8.22-.04-10.63-1.02-18.83-9.86-17.66-20.39 1.29-11.54-.23-22.55-3.26-33.54-2.67-9.69-.63-17.31 8.03-23.55 4.84-3.49 8.07-9.17 12.29-13.61 2.92-3.07 6.07-6.01 9.51-8.44 4.6-3.25 10.04-5.41 14.34-8.99 17.55-14.59 34.79-29.55 52.16-44.36 6.21-5.29 10.82-11.72 13.86-19.28.19-.46.4-.92.56-1.39 4.83-14.54 14.57-23.67 29.38-27.97 8.6-2.5 16.72-6.66 25.31-9.21 4.91-1.46 5.41-3.83 5.01-8.23-1.26-13.92-2.43-27.86-2.92-41.82-.22-6.08.98-12.27 2.07-18.31 1.27-7.05 4.34-8.76 11.01-5.95 4.25 1.79 8.51 4.07 11.98 7.05 6.94 5.95 13.36 12.51 19.96 18.84 1.41 1.35 2.71 2.82 4.57 4.77 2.93-7.79 5.56-14.93 8.3-22.03 1.5-3.88 3.04-7.76 4.86-11.49 2.39-4.9 6.2-6.21 10.55-2.94 4.35 3.26 8.63 7 11.82 11.36 7.26 9.92 13.76 20.39 20.74 30.53 1.23 1.79 3 3.78 4.94 4.43 44.96 14.96 77.38 44.61 100.21 85.43 19.73 35.27 26.02 73.32 23.36 113.32-2.32 34.77-11.24 68.25-18.87 102.01-5.5 24.36-11.01 48.74-10.83 73.96.19 26.28 7.89 50.47 20.03 73.48 1.94 3.68 3.85 7.39 5.53 11.19 3.25 7.36 2.64 10.69-3.84 15.6-6.49 4.92-13.41 9.28-20.21 13.79-7.74 5.14-15.56 10.16-23.88 15.58 2.52 2.64 4.42 4.64 6.32 6.64 7.84 8.24 9.9 20.17-.34 28.49-1.95 1.58-3.1 5.18-3.15 7.87-.18 9.29 3.68 17.3 10.12 23.72 6.36 6.33 13.35 12.02 20.13 17.92 5.15 4.48 10.66 8.58 15.58 13.28 14.92 14.24 18.15 29.99 10.42 49.12-1.11 2.76-2.37 5.45-3.72 8.53 1.98 1.23 3.73 2.47 5.6 3.46 8.55 4.55 12.29 11.92 12.26 21.31-.01 3.98-.51 7.97-.98 11.94-1.09 9.04-5.57 15.17-14.98 16.86-19.8 3.56-39.49 8.1-59.43 10.47-49.21 5.83-98.7 7.17-148.22 6.05-43.15-.98-86.29-2.76-129.07-8.85-16.59-2.36-32.93-6.52-49.39-9.86-6.97-1.42-10.61-6-11.45-12.76-.65-5.27-1.21-10.62-1-15.9.35-8.89 5.03-15.38 12.87-19.43 3.85-1.99 4.61-4.14 2.79-8.31-9.98-22.93-5.93-40.78 12.86-57.43 8.35-7.4 17.15-14.3 25.44-21.77 6.88-6.21 12.51-13.4 14.34-22.89 1.13-5.85.51-10.92-4-15.61-7.69-8.01-6.64-18.3 2.08-27.01 5.96-5.95 5.91-5.92 1.36-13.02-17.93-27.97-27.38-58.99-32.87-91.44-1.27-7.49 1.11-13.91 5.67-19.52 17.32-21.32 34.26-42.99 52.36-63.63 19.11-21.79 39.71-42.26 58.99-63.91 8.36-9.39 15.07-20.25 22.49-30.47.65-.9.97-2.05 1.47-3.15zm153.97 271.58c-.58-1.43-.93-2.35-1.33-3.25-18.7-42.4-25.1-86.65-17.61-132.32 5.11-31.18 12.34-62.01 18.58-93.01 7.25-36.03 12.82-72.19 8.46-109.12-3.98-33.71-16.43-63.76-39.64-88.76-7.84-8.45-17.08-15.59-26.46-24.04l-1.291 4.506a9508 9508 0 0 1-3.599 12.544c-3.51-4.25-4.25-7.61-3.49-14.42 1.19-10.63 2.38-21.36-1.18-31.71-6.74-19.62-17.68-36.84-31.27-52.42-.6-.69-1.52-1.11-2.75-1.98-1.22 3.91-2.19 7.4-3.39 10.8-6.263 17.726-12.571 35.434-18.881 53.15l-1.169 3.28c-1.88 5.27-4.76 7.81-11.26 7.95-9.19.19-18.56 1.87-27.43 4.39-11.01 3.13-21.42 8.36-32.41 11.57-11.12 3.25-18.08 9.86-21.76 20.63-2.85 8.35-7.75 15.5-14.28 21.41-15.44 13.97-30.64 28.24-46.65 41.53-7.7 6.39-17.09 10.71-25.55 16.22-2.41 1.57-4.34 3.94-6.3 6.1-5 5.5-9.39 11.69-15.01 16.44-3.86 3.26-4.81 6.08-3.74 10.63 2.84 12.12 6.31 24.1 4.61 36.93-.79 5.94 3.88 9.86 9.9 9.99 12.87.28 24.59-3.42 35.58-9.96 3.55-2.11 7.25-4.31 11.18-5.3 2.16-.55 5.66.63 7.26 2.29 2.52 2.6.43 5.54-2.01 7.14-7.35 4.81-14.76 9.57-22.46 13.79-3.83 2.1-8.31 3-12.5 4.44-.15.55-.3 1.1-.45 1.64 2.16.82 4.26 2.09 6.49 2.39 5.93.79 11.95.94 17.88 1.74 10.99 1.49 13.99-.03 19.2-9.79 4.93-9.25 9.93-18.48 15.3-27.47 1.51-2.53 4.13-4.92 6.8-6.15l.795-.367c9.398-4.34 18.851-8.706 28.645-11.993 7.19-2.41 11.07-5.79 9.5-13.67-.03-.18.37-.44 1.38-1.55.97 1.38 1.77 2.84 2.86 4.02 8.24 8.92 17.86 16.02 28.93 20.99 10.94 4.9 22.34 7.77 34.47 5.96 27.18-4.07 43.78-21.03 53.96-45.21 6.34-15.05 8.49-31.09 9.24-47.33.13-2.89.45-5.78.8-10.09 5.42 14.74 6.81 38.71 3.61 54.3-8.75 42.65-41.65 71.85-85.51 75.7-3.49.31-5.59 1.59-7.68 4.42l-1.035 1.406c-6.165 8.378-12.354 16.786-19.295 24.504-20.5 22.8-41.97 44.74-61.99 67.94-16.62 19.26-31.72 39.84-47.52 59.81-2.54 3.21-1.87 5 1.96 6.55 8.79 3.56 17.25 8.02 26.19 11.11 7.76 2.68 11.97 7.73 15.36 14.91 13 27.56 29.43 52.95 49.74 75.76 2.65 2.98 5.46 4.85 9.72 5.16 30.45 2.21 60.91 2.77 91.41 1.21 4.62-.24 9.24-.63 14.54-1-.72-2.49-1.28-4.52-1.9-6.52-9.27-30.16-14.46-60.84-12.75-92.54 1.66-30.78 9.32-60.11 20.81-88.55 10.97-27.15 22.64-54.05 32.72-81.53 12.42-33.86 17.67-68.96 13.83-105.11-.39-3.64-.7-7.3-1.12-10.93-.4-3.43-.91-6.84-1.56-11.63 1.09 1.55 1.34 1.78 1.44 2.07.43 1.26.77 2.55 1.21 3.81 11.85 34.57 11.58 69.59 4.47 105.02-5.73 28.52-15.22 55.86-25.05 83.1-16.86 46.73-21.68 94.37-10.22 142.95 4.11 17.42 10.5 34.32 16.08 51.38.58 1.78 2.99 4.46 4.25 4.3 10.6-1.31 20.87-3.97 30.37-10.14zm-248.74 54.91c-1.68 10.9-6.02 20.18-13.39 27.78-4.746 4.899-9.875 9.452-14.987 13.988l-.723.642c-6.11 5.41-12.53 10.47-18.57 15.96-8.04 7.3-11.68 16.44-10.4 27.35.92 7.85 3.19 10.77 10.94 11.94 16.95 2.55 33.91 5.27 50.96 6.88 60.64 5.71 121.4 6.82 182.2 3.06 13.29-.82 26.55-2.25 39.77-3.87 9.4-1.15 14.53-6.86 13.79-16.32-.46-5.93-2.06-12.4-5.17-17.35-5.27-8.4-12.12-15.8-18.33-23.61-5.79-7.29-12.52-14.03-17.16-21.99-5.44-9.34-12.82-12.57-23.01-12.52-58.69.32-117.22-1.86-175.92-11.93zm319 125.55c-5.67-6.71-11.94-8.97-19.05-7.41-37.94 8.33-76.57 9.97-115.17 11.54-49.31 2.01-98.62.95-147.86-2.11-29.57-1.84-59.16-3.96-88.19-10.56-1.09-.25-2.37-.3-3.42.03-11.44 3.61-16.01 11.15-14.32 22.84.73 5.02 2.9 7.75 8.13 9.15 22.93 6.14 46.28 9.56 69.87 11.64 55.84 4.92 111.78 5.79 167.77 3.87 18.97-.65 37.92-2.04 56.87-3.3 5.64-.37 8.28-4.62 7.85-11.38-.39-6.2-4.95-4.56-8.52-4.55-29.15.08-58.29.27-87.44.29-6.42 0-12.84-.58-19.26-.89 64.28-4.49 128.78-5.97 192.74-19.16m-196.41-131.57c30.19.88 67.34-2.05 104.33-7.33 9.05-1.29 18.05-3.08 26.96-5.12 6.14-1.41 8.9-6.34 6.95-11.02-2.04-4.92-6.54-7.5-12.12-6.4-35.26 6.94-70.94 9.5-106.78 10.3-35.67.8-71.3-.04-106.74-4.48-11.54-1.45-22.96-3.82-34.43-5.81-4.78-.83-9.41 1.91-10.88 6.56-1.37 4.32.72 8.25 5.64 10.21 2.15.86 4.42 1.47 6.69 1.96 37.29 7.99 75.09 10.86 120.36 11.14zm-33.93-545.56c0 .004.01.006.01.01.93 10.406 1.75 19.753 2.58 29.06 7.61 0 14.72.06 21.84-.07.9-.02 2.35-.86 2.6-1.62 2.92-9.11 5.65-18.29 8.42-27.37h-35.44zm158.09 456.11c1.079 3.476 2.118 6.817 3.236 10.41l1.154 3.71 8.958-5.036a68258 68258 0 0 0 29.632-16.664c-2.05-4.62-3.83-8.64-5.77-13.01-12.49 6.91-24.52 13.57-37.21 20.59m20.43-231.28 4.373-2.162c9.298-4.596 18.137-8.966 26.947-13.388.62-.31 1.26-1.23 1.32-1.92.51-5.82.88-11.66 1.36-18.46-10.96 6.16-20.8 11.64-30.58 17.24-.86.49-1.74 1.66-1.86 2.6-.63 5.07-1.01 10.16-1.56 16.08zm31.77-8.34-.01.01c-11.165 5.787-21.284 11.012-31.38 16.3-.66.35-1.44 1.11-1.55 1.78-.84 5.27-1.54 10.57-2.4 16.71 10.75-5.27 20.57-10.03 30.3-14.96 1.14-.58 2.3-2.05 2.54-3.28.96-5.02 1.56-10.11 2.49-16.55zm-4.33 27.73c-1.03.08-1.57-.02-1.96.17-9.54 4.67-19.07 9.36-28.58 14.1-.84.42-1.94 1.13-2.12 1.9-1.25 5.51-2.29 11.07-3.58 17.52 10.62-4.85 20.14-9.14 29.6-13.57 1.08-.5 2.38-1.56 2.64-2.6 1.47-5.72 2.66-11.51 4-17.52m-22.05 105.1c-10.59 4.9-20.63 9.5-30.61 14.23-.69.33-1.23 1.55-1.34 2.42-.65 5.04-1.15 10.11-1.81 16.06 10.77-4.9 20.7-9.35 30.55-13.99.95-.45 1.81-1.98 1.93-3.1.56-4.91.83-9.85 1.28-15.62m4.95 67.67c-8.97 4.73-17.6 9.27-26.23 13.84q-10.07 5.33-6.61 16.36c.14.44.44.84.96 1.79 11.98-6.47 23.88-12.89 36.01-19.44-1.429-4.357-2.711-8.234-4.13-12.55m-7.91-218.41c10.28-5.57 19.76-10.65 29.16-15.87.97-.54 2.04-1.92 2.08-2.95.21-5.04.1-10.09.1-16.38-10.8 6.48-20.33 12.13-29.75 17.95-.88.54-1.47 2.16-1.52 3.31-.18 4.3-.07 8.62-.07 13.94m27.57-59.69c-9.89 6.87-18.66 12.91-27.35 19.06-.81.57-1.69 1.83-1.64 2.72.23 4.38.75 8.75 1.24 13.75 9.96-5.79 19.31-11.18 28.58-16.7.8-.48 1.66-1.85 1.56-2.7-.59-5.07-1.46-10.11-2.39-16.13m-38.68 349.17c13.79-8.47 26.9-16.53 40.01-24.58-2.03-3.31-3.74-6.11-5.62-9.19-13.22 7.52-26.19 14.9-39.39 22.41 1.68 3.81 3.19 7.27 5 11.36m-17.27-59.74c11.03-5.63 21.97-11.17 32.83-16.85.78-.41 1.63-1.87 1.48-2.66-.69-3.87-1.7-7.68-2.7-11.96l-4.999 2.528a7978 7978 0 0 1-18.131 9.152q-11.8 5.94-8.48 19.79m11.15-123.81c10.34-4.62 19.86-8.85 29.34-13.17.97-.44 2.18-1.32 2.42-2.23 1.47-5.53 2.69-11.13 4.24-17.72-10.9 5.14-20.76 9.77-30.58 14.45-.69.33-1.52 1.03-1.68 1.7-1.28 5.41-2.41 10.85-3.74 16.97m-10.17 51.35c10.62-4.78 20.02-8.97 29.36-13.28.93-.43 2.05-1.43 2.24-2.34 1.1-5.42 1.95-10.9 2.97-16.88-10.21 4.68-19.75 9-29.21 13.46-1.05.49-2.23 1.71-2.46 2.78-1.07 4.999-1.83 10.071-2.9 16.26m28.71 18.74c-10.65 5.05-20.52 9.71-30.35 14.46-.75.36-1.65 1.37-1.67 2.11-.15 4.67-.08 9.35-.08 14.81 11.02-5.21 21.06-9.89 31-14.77 1-.49 1.96-2.24 1.95-3.39-.03-4.12-.49-8.23-.85-13.21zm19.88-258.28c-8.89 7.4-16.93 14.03-24.87 20.79-.72.61-1.24 2.04-1.1 2.96.56 3.64 1.43 7.23 2.32 11.48 9.32-6.3 18-12.09 26.56-18.05.79-.55 1.41-2.27 1.18-3.21-1.06-4.31-2.45-8.54-4.08-13.97zm-8.74 182.19c-10.75 4.97-20.67 9.53-30.55 14.17-.65.31-1.29 1.18-1.45 1.9-1.03 4.66-1.93 9.35-3.06 14.99 10.44-4.69 19.97-8.94 29.45-13.3.94-.43 1.98-1.48 2.22-2.43 1.209-4.777 2.151-9.625 3.39-15.33.001-.004.009-.006.01-.01zm.25-201.07c-7.33 6.77-14.66 13.48-21.88 20.3-.69.65-1.21 2.11-.99 2.99.84 3.29 2.03 6.49 3.24 10.2 8.26-6.53 15.96-12.54 23.52-18.74.86-.71 1.53-2.71 1.16-3.67-1.62-4.13-3.65-8.1-5.05-11.08m-26.14 13.94c7.17-7.33 14.31-14.64 21.83-22.33-1.539-2.625-3.305-5.648-5.239-8.958l-1.941-3.322c-4.87 6.08-8.57 12-13.54 16.55-6.43 5.88-5.66 11.41-1.45 17.68.09.14.22.25.34.39zm-142.51-121.63c-7.5-9.3-15.32-16.85-26.15-22.92v25.68c8.37-.88 16.72-1.76 26.15-2.76m144.33 69.87c-5.31 8.18-10.22 15.66-14.99 23.22-.49.77-.5 2.29-.07 3.12 1.45 2.75 3.21 5.34 5.15 8.47 6.62-7.96 12.84-15.46 19.16-23.06-2.88-3.651-5.466-6.94-8.537-10.844zm-25.53-24.37c-3.56 7.02-6.63 13.42-10.04 19.64-1.47 2.69-1.11 4.54 1.06 6.46 1.42 1.26 2.63 2.76 4.17 4.4 5.02-7.85 9.63-15.06 14.34-22.43-3.129-2.659-5.912-5.002-9.53-8.07m13.67 11.77c-4.25 7.251-8.266 14.095-12.278 20.931l-1.842 3.139.546.665c1.877 2.288 3.569 4.351 5.494 6.705l2.817-4.155a56049 56049 0 0 0 12.823-18.915c-2.54-2.82-4.85-5.38-7.56-8.37m-30.04 6.56c3.99-7.3 7.79-14.27 11.82-21.65l-2.143-1.413a6518 6518 0 0 0-7.247-4.777c-.73 1.05-1.08 1.42-1.29 1.87-1.81 3.75-3.64 7.48-5.37 11.26q-3.83 8.36 4.23 14.71m-12.5-36.51c-2.01 4.62-3.82 8.68-5.55 12.79q-3.41 8.1 4.33 12.65c.23.14.62.02 1.14.02 1.59-3.14 3.22-6.39 4.88-9.62 1.44-2.812 2.893-5.617 4.427-8.576l.873-1.684c-3.4-1.87-6.42-3.55-10.1-5.58m-145.68 181.72c-9.55 4.58-18.53 8.88-27.5 13.19.2.44.39.88.59 1.32 10.36-1.9 20.73-3.8 31.65-5.8-1.291-2.379-2.38-4.379-3.641-6.693zm134.59-173.14.96.12c1.61-3.52 3.22-7.03 4.97-10.86-2.71-1.35-5.02-2.5-8.18-4.07.84 5.54 1.55 10.17 2.25 14.81"
        fill="#1C1C1C"
      />
      <path
        d="M132.615 502.039c-8.49-13.08-15.05-25.34-19.05-38.77-.648-2.183.562-5.172 1.521-7.538l.009-.022c18.08-44.56 43.89-84.28 75.47-120.38 3.36-3.84 6.8-7.59 10.65-11.15-32.86 54.96-63.93 110.56-68.6 177.86m108.35-472.3c21.36 15.62 27.05 46.03 13.48 65.72-2.21 3.2-4.29 4.27-7.65 1.94-1.63-1.13-3.43-2.02-5.15-3.02-10.06-5.82-14.91-14.41-12.03-25.88 3.22-12.82 7.39-25.39 11.35-38.76m-100.86 131.26c2.77-4.29 5.53-8.58 8.3-12.87l.448-.696c.932-1.448 1.866-2.899 2.762-4.364 5.94-9.7 9.06-11.13 20.34-9.24 1.48.25 2.97.46 4.42.83 9.01 2.33 18.01 7.38 27.04-.76-3.05 7.22-7.56 9.89-17.35 10.92-.28.97-.6 2.05-.9 3.13-3.52 12.74-14.09 17.04-24.95 9.53-4.09-2.83-6.76-2.64-10.39.15-2.55 1.96-5.69 3.13-8.57 4.66-.38-.43-.77-.86-1.15-1.29m29.82-21.54c-3.03 2.35-6.06 3.55-6.92 5.64-1.19 2.89 3.22 7.18 6.59 7.27 3.42.09 7.5-3.59 6.68-7.11-.47-1.99-3.56-3.37-6.35-5.8m-140.67 116.37c-5.62-10.82-1.65-25.13 8.76-30.92 6.87-3.82 14-.55 15.66 7.18 2.38 11.1-1.53 17.12-12.3 19.62-3.99.93-7.79 2.63-12.11 4.13zm97.78-94.78c-3.71 7.79-5.72 16.17-14.82 20.57-11.34 5.48-21.92 12.53-32.84 18.87-1.37.79-2.83 1.41-4.54 1.67 15.27-16.41 33.13-29.46 52.2-41.11m67.99 6.28c-6.21 6.71-13.71 14.7-21.07 22.83-7.28 8.05-13.49 16.82-17.03 27.2-5.96-2.05-7.12-3.88-4.39-8.95 3.05-5.66 6.23-11.49 10.49-16.22 9.59-10.66 21.64-18.31 32-24.86m-57.17 43.13c-14.01 10.93-30.52 17.38-46.47 27.29 6.08-9.74 34.9-26.73 46.47-27.29m-75.18 24.97c-.78-9.99-3.55-19.2-10.82-26.9 11.94-1.15 16.42 10.13 10.82 26.9"
        fill="#1C1C1C"
      />
      <path
        d="M390.685 717.779c7.11-1.56 13.38.7 19.05 7.41-50.865 10.489-102.071 13.573-153.237 16.654-13.173.794-26.342 1.587-39.503 2.506 2.039.098 4.077.224 6.116.35 4.381.27 8.763.54 13.144.54 17.703-.012 35.402-.087 53.102-.162 11.445-.048 22.891-.097 34.338-.128a26 26 0 0 0 1.895-.101c3.115-.241 6.302-.487 6.625 4.651.43 6.76-2.21 11.01-7.85 11.38q-4.25.284-8.5.571c-16.117 1.088-32.236 2.176-48.37 2.729-55.99 1.92-111.93 1.05-167.77-3.87-23.59-2.08-46.94-5.5-69.87-11.64-5.23-1.4-7.4-4.13-8.13-9.15-1.69-11.69 2.88-19.23 14.32-22.84 1.05-.33 2.33-.28 3.42-.03 29.03 6.6 58.62 8.72 88.19 10.56 49.24 3.06 98.55 4.12 147.86 2.11 38.6-1.57 77.23-3.21 115.17-11.54"
        fill="#B8860B"
      />
      <path
        fill-rule="evenodd"
        clip-rule="evenodd"
        d="M77.345 627.419c7.37-7.6 11.71-16.88 13.39-27.78v.01c58.7 10.07 117.23 12.25 175.92 11.93 10.19-.05 17.57 3.18 23.01 12.52 3.2 5.489 7.393 10.398 11.587 15.308 1.888 2.209 3.776 4.419 5.573 6.682 1.796 2.259 3.645 4.483 5.494 6.707 4.546 5.466 9.09 10.932 12.836 16.903 3.11 4.95 4.71 11.42 5.17 17.35.74 9.46-4.39 15.17-13.79 16.32-13.22 1.62-26.48 3.05-39.77 3.87-60.8 3.76-121.56 2.65-182.2-3.06-14.828-1.4-29.588-3.64-44.332-5.877q-3.315-.505-6.628-1.003c-7.75-1.17-10.02-4.09-10.94-11.94-1.28-10.91 2.36-20.05 10.4-27.35 3.329-3.025 6.773-5.92 10.216-8.815 2.806-2.358 5.611-4.716 8.354-7.145l.723-.642c5.112-4.537 10.24-9.089 14.987-13.988m240.31-41.13c-36.99 5.28-74.14 8.21-104.33 7.33l-.02.01c-45.27-.28-83.07-3.15-120.36-11.14-2.27-.49-4.54-1.1-6.69-1.96-4.92-1.96-7.01-5.89-5.64-10.21 1.47-4.65 6.1-7.39 10.88-6.56 3.354.582 6.703 1.196 10.052 1.81 8.106 1.487 16.212 2.974 24.378 4 35.44 4.44 71.07 5.28 106.74 4.48 35.84-.8 71.52-3.36 106.78-10.3 5.58-1.1 10.08 1.48 12.12 6.4 1.95 4.68-.81 9.61-6.95 11.02-8.91 2.04-17.91 3.83-26.96 5.12M166.974 141.502c.93-.604 1.941-1.259 2.951-2.043.94.818 1.914 1.518 2.81 2.161 1.764 1.268 3.228 2.319 3.54 3.639.82 3.52-3.26 7.2-6.68 7.11-3.37-.09-7.78-4.38-6.59-7.27.573-1.393 2.11-2.391 3.969-3.597m-27.08 109.542 8.751-4.195 1.099 2.017c1.261 2.314 2.35 4.314 3.641 6.693-10.92 2-21.29 3.9-31.65 5.8q-.15-.33-.295-.661-.146-.329-.295-.659a24246 24246 0 0 1 18.749-8.995"
        fill="#B8860B"
      />
      <path
        fill-rule="evenodd"
        clip-rule="evenodd"
        d="M338.993 543.531c.144.36.302.754.482 1.198l.03.02c-9.5 6.17-19.77 8.83-30.37 10.14-1.26.16-3.67-2.52-4.25-4.3-1.452-4.44-2.959-8.869-4.467-13.3-4.285-12.592-8.573-25.194-11.613-38.08-11.46-48.58-6.64-96.22 10.22-142.95 9.83-27.24 19.32-54.58 25.05-83.1 7.11-35.43 7.38-70.45-4.47-105.02-.231-.66-.434-1.329-.637-1.997a55 55 0 0 0-.573-1.813c-.059-.171-.17-.321-.473-.731-.212-.287-.519-.702-.967-1.339.205 1.511.396 2.885.574 4.165.387 2.778.712 5.117.986 7.465.243 2.103.45 4.217.656 6.331.15 1.534.3 3.068.464 4.599 3.84 36.15-1.41 71.25-13.83 105.11-7.005 19.096-14.777 37.913-22.549 56.728-3.412 8.26-6.824 16.519-10.171 24.802-11.49 28.44-19.15 57.77-20.81 88.55-1.71 31.7 3.48 62.38 12.75 92.54.438 1.412.846 2.84 1.301 4.433l.599 2.087c-1.695.118-3.321.239-4.899.356-3.357.248-6.499.481-9.641.644-30.5 1.56-60.96 1-91.41-1.21-4.26-.31-7.07-2.18-9.72-5.16-20.31-22.81-36.74-48.2-49.74-75.76-3.39-7.18-7.6-12.23-15.36-14.91-5.382-1.86-10.59-4.217-15.8-6.575-3.446-1.559-6.892-3.118-10.39-4.535-3.83-1.55-4.5-3.34-1.96-6.55 4.987-6.303 9.904-12.666 14.82-19.03 10.663-13.799 21.325-27.599 32.7-40.78 11.952-13.851 24.421-27.252 36.892-40.656 8.418-9.047 16.837-18.096 25.098-27.284 6.941-7.718 13.129-16.126 19.295-24.504l1.035-1.406c2.09-2.83 4.19-4.11 7.68-4.42 43.86-3.85 76.76-33.05 85.51-75.7 3.2-15.59 1.81-39.56-3.61-54.3a474 474 0 0 1-.336 3.912c-.207 2.337-.378 4.257-.464 6.178-.75 16.24-2.9 32.28-9.24 47.33-10.18 24.18-26.78 41.14-53.96 45.21-12.13 1.81-23.53-1.06-34.47-5.96-11.07-4.97-20.69-12.07-28.93-20.99-.741-.803-1.349-1.735-1.966-2.683-.291-.446-.584-.896-.894-1.337-.407.447-.715.756-.935.978-.327.328-.463.464-.445.572 1.57 7.88-2.31 11.26-9.5 13.67-9.794 3.287-19.247 7.653-28.645 11.993l-.795.367c-2.67 1.23-5.29 3.62-6.8 6.15-5.37 8.99-10.37 18.22-15.3 27.47-5.21 9.76-8.21 11.28-19.2 9.79-2.987-.403-5.998-.641-9.008-.879-2.965-.235-5.93-.469-8.872-.861-1.523-.205-2.986-.863-4.45-1.521-.677-.304-1.356-.609-2.04-.869.15-.54.3-1.09.45-1.64 1.3-.447 2.626-.841 3.953-1.236 2.953-.878 5.905-1.755 8.547-3.204 7.7-4.22 15.11-8.98 22.46-13.79 2.44-1.6 4.53-4.54 2.01-7.14-1.6-1.66-5.1-2.84-7.26-2.29-3.928.989-7.625 3.187-11.174 5.296-10.99 6.54-22.716 10.244-35.586 9.964-6.02-.13-10.69-4.05-9.9-9.99 1.513-11.42-1.07-22.166-3.658-32.937q-.482-1.996-.952-3.993c-1.07-4.55-.12-7.37 3.74-10.63 3.778-3.193 7-7.037 10.225-10.884 1.573-1.876 3.146-3.753 4.785-5.556q.453-.5.905-1.009c1.66-1.862 3.356-3.763 5.395-5.091 3.061-1.994 6.244-3.832 9.425-5.668 5.61-3.239 11.211-6.474 16.125-10.552 12.298-10.209 24.119-20.996 35.937-31.781 3.567-3.255 7.133-6.51 10.713-9.749 6.53-5.91 11.43-13.06 14.28-21.41 3.68-10.77 10.64-17.38 21.76-20.63 5.39-1.574 10.64-3.634 15.889-5.694 5.456-2.14 10.91-4.281 16.521-5.876 8.87-2.52 18.24-4.2 27.43-4.39 6.5-.14 9.38-2.68 11.26-7.95l1.181-3.314c6.306-17.705 12.61-35.402 18.869-53.116.811-2.299 1.517-4.638 2.267-7.121.359-1.19.728-2.412 1.123-3.68.428.304.819.552 1.172.776.66.42 1.187.755 1.578 1.205 13.59 15.58 24.53 32.8 31.27 52.42 3.56 10.35 2.37 21.08 1.18 31.71-.76 6.81-.02 10.17 3.49 14.42 1.173-4.073 2.281-7.944 3.591-12.516l.008-.028 1.291-4.506c3.013 2.714 6.011 5.293 8.953 7.823 6.218 5.348 12.185 10.481 17.507 16.217 23.21 25 35.66 55.05 39.64 88.76 4.36 36.93-1.21 73.09-8.46 109.12-1.988 9.877-4.077 19.737-6.165 29.596-4.467 21.085-8.933 42.168-12.415 63.414-7.49 45.67-1.09 89.92 17.61 132.32.276.62.528 1.251.848 2.052m-206.378-41.492c-8.49-13.08-15.05-25.34-19.05-38.77-.648-2.183.562-5.171 1.521-7.538l.009-.022c18.08-44.56 43.89-84.28 75.47-120.38 3.36-3.84 6.8-7.59 10.65-11.15-32.86 54.96-63.93 110.56-68.6 177.86m108.35-472.3c21.36 15.62 27.05 46.03 13.48 65.72-2.21 3.2-4.29 4.27-7.65 1.94-1.115-.773-2.31-1.434-3.504-2.094-.551-.305-1.103-.61-1.646-.926-10.06-5.82-14.91-14.41-12.03-25.88 2.231-8.881 4.917-17.643 7.674-26.633 1.223-3.987 2.459-8.02 3.676-12.127m-96.726 124.85 4.166-6.46.448-.696c.932-1.448 1.866-2.899 2.762-4.364 5.94-9.7 9.06-11.13 20.34-9.24l.889.147c1.186.193 2.371.387 3.531.683 1.541.398 3.082.876 4.622 1.354 7.467 2.317 14.932 4.634 22.418-2.114-3.05 7.22-7.56 9.89-17.35 10.92-.28.97-.6 2.05-.9 3.13-3.52 12.74-14.09 17.04-24.95 9.53-4.09-2.83-6.76-2.64-10.39.15-1.756 1.35-3.793 2.325-5.831 3.302-.921.441-1.843.882-2.739 1.358q-.287-.324-.578-.649a85 85 0 0 1-.572-.641q2.07-3.205 4.134-6.41M29.255 255.829c-5.62-10.82-1.65-25.13 8.76-30.92 6.87-3.82 14-.55 15.66 7.18 2.38 11.1-1.53 17.12-12.3 19.62-2.714.632-5.34 1.621-8.1 2.661-1.3.489-2.628.989-4.01 1.469zm95.874-90.504c-2.768 6.427-5.467 12.693-12.914 16.294-7.814 3.776-15.268 8.298-22.72 12.819-3.363 2.04-6.725 4.08-10.12 6.051-1.37.79-2.83 1.41-4.54 1.67 15.27-16.41 33.13-29.46 52.2-41.11-.674 1.415-1.292 2.849-1.906 4.276m64.595 7.715c-4.961 5.337-10.402 11.191-15.769 17.119-7.28 8.05-13.49 16.82-17.03 27.2-5.96-2.05-7.12-3.88-4.39-8.95 3.05-5.66 6.23-11.49 10.49-16.22 9.59-10.66 21.64-18.31 32-24.86a3990 3990 0 0 1-5.301 5.711m-79.461 54.147c9.662-5.109 19.088-10.093 27.592-16.728-11.57.56-40.39 17.55-46.47 27.29 6.268-3.895 12.623-7.255 18.878-10.562m-47.588 8.242c-.78-9.99-3.55-19.2-10.82-26.9 11.94-1.15 16.42 10.13 10.82 26.9"
        fill="#B8860B"
      />
      <path
        fill-rule="evenodd"
        clip-rule="evenodd"
        d="M181.018 66.264c-.519-5.826-1.052-11.816-1.623-18.205l.01.01h35.44q-1.036 3.401-2.071 6.816c-2.074 6.843-4.158 13.718-6.349 20.554-.25.76-1.7 1.6-2.6 1.62-5.391.098-10.777.088-16.378.077-1.796-.004-3.614-.007-5.462-.007zm-2.773-51.375c10.83 6.07 18.65 13.62 26.15 22.92-9.43 1-17.78 1.88-26.15 2.76z"
        fill="#B8860B"
      />
      <path
        d="m284.195 73.829-.96-.12c-.401-2.662-.806-5.32-1.237-8.148-.32-2.103-.655-4.3-1.013-6.662 3.16 1.57 5.47 2.72 8.18 4.07-1.027 2.248-2.006 4.385-2.965 6.479z"
        fill="#B8860B"
      />
      <path
        fill-rule="evenodd"
        clip-rule="evenodd"
        d="M292.522 69.255c.584-1.334 1.184-2.704 1.803-4.126 1.576.869 3.03 1.674 4.446 2.457 1.89 1.046 3.71 2.053 5.654 3.123l-.901 1.739c-1.523 2.939-2.968 5.726-4.399 8.52a1155 1155 0 0 0-3.539 6.968l-1.341 2.653c-.181 0-.346.014-.495.028-.277.024-.495.043-.645-.048q-7.74-4.55-4.33-12.65c1.197-2.845 2.433-5.665 3.747-8.664"
        fill="#B8860B"
      />
      <path
        d="M314.047 88.412c-2.4 4.399-4.775 8.75-7.222 13.227q-8.06-6.35-4.23-14.71c1.396-3.05 2.858-6.069 4.321-9.091l1.049-2.17c.13-.277.313-.525.606-.92.182-.246.405-.548.684-.949 2.324 1.529 4.642 3.058 7.046 4.644l2.344 1.546z"
        fill="#B8860B"
      />
      <path
        fill-rule="evenodd"
        clip-rule="evenodd"
        d="M320.147 89.38a1056 1056 0 0 1 3.048-6.071c1.38 1.17 2.637 2.225 3.838 3.243 1.952 1.653 3.755 3.18 5.692 4.827-4.71 7.37-9.32 14.58-14.34 22.43a95 95 0 0 1-1.412-1.548c-.935-1.04-1.798-2.001-2.758-2.852-2.17-1.92-2.53-3.77-1.06-6.46 2.403-4.382 4.636-8.854 6.992-13.57m4.561 26.426c3.971-6.768 7.95-13.548 12.157-20.726 2.71 2.99 5.02 5.55 7.56 8.37a56049 56049 0 0 1-12.823 18.915l-2.817 4.155a4687 4687 0 0 0-5.493-6.703l-.547-.667zm20.503-2.722c1.153-1.772 2.324-3.57 3.514-5.404l.713.906c3.071 3.905 5.657 7.193 8.537 10.844-3.057 3.676-6.09 7.328-9.157 11.021-3.273 3.942-6.585 7.929-10.003 12.039-.549-.887-1.085-1.73-1.602-2.546-1.31-2.064-2.509-3.953-3.548-5.924-.43-.83-.42-2.35.07-3.12 3.701-5.865 7.486-11.682 11.476-17.816"
        fill="#B8860B"
      />
      <path
        d="M358.735 147.338c-3.979 4.072-7.9 8.083-11.83 12.101v.01q-.066-.075-.131-.143a1.7 1.7 0 0 1-.209-.247c-4.21-6.27-4.98-11.8 1.45-17.68 3.409-3.121 6.22-6.885 9.221-10.904 1.374-1.841 2.789-3.736 4.319-5.646l1.941 3.322c1.934 3.31 3.7 6.333 5.239 8.958z"
        fill="#B8860B"
      />
      <path
        fill-rule="evenodd"
        clip-rule="evenodd"
        d="M368.181 149.986q2.43-2.24 4.864-4.487c.334.711.704 1.479 1.096 2.292 1.25 2.593 2.721 5.644 3.954 8.788.37.96-.3 2.96-1.16 3.67-5.995 4.917-12.078 9.714-18.459 14.745q-2.497 1.969-5.061 3.995c-.346-1.061-.69-2.08-1.025-3.071-.837-2.476-1.615-4.78-2.215-7.129-.22-.88.3-2.34.99-2.99 5.623-5.311 11.312-10.555 17.016-15.813m7.326 19.404c1.97-1.637 3.977-3.303 6.028-5.011h.01c.432 1.438.846 2.791 1.243 4.084 1.1 3.591 2.058 6.717 2.837 9.886.23.94-.39 2.66-1.18 3.21-6.515 4.536-13.099 8.974-19.982 13.613a5648 5648 0 0 0-6.578 4.437c-.247-1.182-.493-2.312-.731-3.407-.619-2.843-1.185-5.445-1.589-8.073-.14-.92.38-2.35 1.1-2.96 6.108-5.2 12.275-10.323 18.842-15.779m5.35 22.456c2.296-1.592 4.644-3.22 7.058-4.897.233 1.509.463 2.957.685 4.359.664 4.19 1.263 7.972 1.705 11.771.1.85-.76 2.22-1.56 2.7-7.352 4.378-14.755 8.674-22.472 13.153l-6.108 3.547q-.181-1.839-.361-3.577c-.367-3.569-.705-6.868-.879-10.173-.05-.89.83-2.15 1.64-2.72 6.569-4.649 13.183-9.234 20.292-14.163m-13.252 50.866-7.26 3.927c0-1.523-.009-2.964-.018-4.346-.021-3.446-.04-6.525.088-9.594.05-1.15.64-2.77 1.52-3.31 7.268-4.491 14.602-8.88 22.534-13.628 2.348-1.405 4.749-2.842 7.216-4.322 0 1.675.008 3.261.015 4.783.021 4.195.039 7.899-.115 11.597-.04 1.03-1.11 2.41-2.08 2.95-7.148 3.97-14.343 7.858-21.9 11.943m-5.317 28.015-4.373 2.162v-.01c.153-1.642.292-3.22.427-4.752.353-3.99.678-7.664 1.133-11.328.12-.94 1-2.11 1.86-2.6 7.311-4.186 14.655-8.305 22.475-12.691 2.642-1.482 5.338-2.994 8.105-4.549-.113 1.604-.22 3.156-.325 4.666-.337 4.889-.645 9.347-1.035 13.794-.06.69-.7 1.61-1.32 1.92-8.81 4.422-17.649 8.792-26.947 13.388m21.311-3.024 6.086-3.154-.01.01c-.26 1.8-.494 3.495-.717 5.112-.576 4.168-1.081 7.821-1.773 11.438-.24 1.23-1.4 2.7-2.54 3.28-7.738 3.921-15.533 7.734-23.807 11.782q-3.193 1.561-6.493 3.178c.2-1.429.392-2.813.578-4.161.616-4.445 1.178-8.506 1.822-12.549.11-.67.89-1.43 1.55-1.78a6344 6344 0 0 1 25.304-13.156"
        fill="#B8860B"
      />
      <path
        d="M367.106 525.139c-5.864 3.603-11.801 7.252-17.871 10.98a2438 2438 0 0 1-2.986-6.781c-.665-1.513-1.325-3.017-2.014-4.579 13.2-7.51 26.17-14.89 39.39-22.41 1.88 3.08 3.59 5.88 5.62 9.19-7.34 4.507-14.68 9.017-22.139 13.6"
        fill="#B8860B"
      />
      <path
        fill-rule="evenodd"
        clip-rule="evenodd"
        d="M340.688 514.471c-1.106-3.552-2.135-6.861-3.203-10.302 6.722-3.718 13.258-7.336 19.775-10.943l17.435-9.647c1.94 4.37 3.72 8.39 5.77 13.01-9.657 5.435-19.274 10.841-29.103 16.367l-9.487 5.333zm20.488-45.691 7.079-3.731v-.01c1.42 4.32 2.7 8.2 4.13 12.56l-16.773 9.054-19.237 10.386c-.186-.34-.344-.609-.476-.836-.238-.405-.394-.672-.484-.954q-3.46-11.03 6.61-16.36c6.339-3.357 12.677-6.697 19.151-10.109m-22.742 4.3q-3.23 1.646-6.469 3.299-3.32-13.85 8.48-19.79c5.96-2.996 11.92-6.01 18.131-9.152l4.999-2.528c.27 1.154.54 2.273.805 3.369.716 2.969 1.391 5.764 1.895 8.591.15.79-.7 2.25-1.48 2.66-8.734 4.568-17.519 9.045-26.361 13.551m18.218-48.05 5.003-2.371v.01c.103 1.417.213 2.764.32 4.061.267 3.259.509 6.202.53 9.149.01 1.15-.95 2.9-1.95 3.39-7.799 3.829-15.66 7.535-24.007 11.47-2.291 1.08-4.619 2.178-6.993 3.3 0-1.354-.004-2.661-.008-3.931-.013-3.85-.025-7.368.088-10.879.02-.74.92-1.75 1.67-2.11 8.274-3.998 16.576-7.932 25.347-12.089"
        fill="#B8860B"
      />
      <path
        d="M384.394 292.318c.264-.005.579-.009.961-.039q-.514 2.313-1.009 4.586c-.96 4.391-1.898 8.682-2.991 12.934-.26 1.04-1.56 2.1-2.64 2.6-6.979 3.268-13.992 6.46-21.454 9.858-2.652 1.207-5.361 2.44-8.146 3.712.327-1.634.638-3.212.94-4.745.891-4.52 1.707-8.661 2.64-12.775.18-.77 1.28-1.48 2.12-1.9 9.51-4.74 19.04-9.43 28.58-14.1.245-.12.55-.124.999-.131"
        fill="#B8860B"
      />
      <path
        fill-rule="evenodd"
        clip-rule="evenodd"
        d="m348.701 350.075-5.586 2.494c.34-1.564.667-3.084.987-4.57.931-4.329 1.8-8.373 2.753-12.4.16-.67.99-1.37 1.68-1.7a5672 5672 0 0 1 23.301-11.019l7.279-3.431c-.427 1.817-.83 3.558-1.219 5.244-1.023 4.428-1.956 8.47-3.021 12.476-.24.91-1.45 1.79-2.42 2.23-7.749 3.531-15.525 7.002-23.754 10.676m17.326-.379 6.768-3.127.01-.01a894 894 0 0 0-.991 4.639c-.805 3.798-1.54 7.267-2.409 10.701-.24.95-1.28 2-2.22 2.43-7.649 3.518-15.33 6.964-23.496 10.628l-5.954 2.672c.263-1.314.514-2.577.757-3.799.8-4.025 1.513-7.617 2.303-11.191.16-.72.8-1.59 1.45-1.9 7.774-3.651 15.573-7.253 23.782-11.043m-26.168 51.115c-2.253 1.012-4.553 2.045-6.914 3.108h-.01c.282-1.633.544-3.189.795-4.685.702-4.176 1.327-7.895 2.115-11.575.23-1.07 1.41-2.29 2.46-2.78 7.244-3.415 14.534-6.748 22.137-10.224 2.326-1.063 4.681-2.14 7.073-3.236q-.38 2.238-.739 4.392c-.721 4.32-1.406 8.421-2.231 12.488-.19.91-1.31 1.91-2.24 2.34-7.264 3.352-14.564 6.631-22.446 10.172"
        fill="#B8860B"
      />
      <path
        d="M356.181 400.67c2.351-1.085 4.723-2.18 7.124-3.291a788 788 0 0 0-.359 4.857c-.273 3.792-.524 7.285-.921 10.763-.12 1.12-.98 2.65-1.93 3.1-7.543 3.553-15.132 6.995-23.11 10.613a5112 5112 0 0 0-7.44 3.377c.197-1.777.38-3.476.557-5.118.415-3.858.797-7.407 1.253-10.942.11-.87.65-2.09 1.34-2.42 7.717-3.658 15.471-7.238 23.486-10.939"
        fill="#B8860B"
      />
    </svg>