<?xml version="1.0" encoding="UTF-8"?>
<svg id="Layer_2" data-name="Layer 2" xmlns="http://www.w3.org/2000/svg" viewBox="0 0 388.88 754.18">
  <defs>
    <style>
      .cls-1 {
        fill: #000;
        stroke-width: 0px;
      }
    </style>
  </defs>
  <g id="king">
    <path class="cls-1" d="M366.25,683.74c3.44,2.16,7.01,4.23,10.4,6.57,7.46,5.14,11.73,12.19,12.04,21.35.19,5.66.29,11.34.07,16.99-.3,7.6-2.72,11.27-10.18,12.8-13.35,2.74-26.8,5.5-40.35,6.75-83.65,7.74-167.45,7.19-251.22,2.81-23.57-1.23-47.01-4.91-70.49-7.57-2.61-.3-5.18-1.22-7.71-2.02-5.76-1.83-8.76-5.77-8.75-11.89,0-5.33.02-10.67-.05-16-.13-11.04,4.81-19.13,14.22-24.64,2.7-1.58,5.42-3.14,7.75-4.49-1.63-5.61-3.8-10.74-4.52-16.07-1.94-14.26,3.03-26.29,13.63-35.82,6.93-6.23,14.43-11.83,21.42-18.01,3.72-3.29,7.31-6.9,10.19-10.92,4.74-6.62,5.93-13.77,2.14-21.63-4.92-10.22-2.88-17.9,6.8-23.42,9.44-5.38,15.4-13.58,20.77-22.44,15.89-26.25,25.14-55.04,31.6-84.78,7.94-36.6,11.23-73.73,11.47-111.15,0-.98-.14-1.97-.27-3.65-8,0-15.94.04-23.88,0-15.71-.1-25.42-13.24-20.84-28.24,2.59-8.49,9.06-12.37,17.57-13.81.05-10.85,5.75-16.81,15.78-19.78,2.46-.73,4.12-4.2,6.6-6.92-2.68-1.45-3.96-2.15-5.25-2.85-9.2-4.99-10.36-16.25-2.02-22.66,2.71-2.09,3.03-3.81,1.75-6.59-11.8-25.51-23.34-51.14-35.42-76.52-6.32-13.28-6.53-13.94,6.73-20.79,15.41-7.96,32.05-12.02,49.01-14.91,3.88-.66,6.3-1.93,7.9-6.02,1.37-3.51,4.09-7.37,7.29-9.09,5.81-3.14,8.12-7.98,9.82-13.66.71-2.36,1.56-4.68,2.64-7.89-8.79,1.87-16.81,3.57-25.43,5.4v-49.51c8.27,1.76,16.13,3.44,24.94,5.31-2.2-6.67-4.24-12.84-6.51-19.71,3.92-1.11,7.51-2.13,11.48-3.25-2.4-9.44-1.28-17.76,8.2-22.67,6.61-3.42,13.3-3.15,19.35,1.31,7.25,5.35,8.57,12.67,5.82,21.3,3.87,1.07,7.61,2.11,11.91,3.31-2.3,6.59-4.41,12.65-6.87,19.68,8.69-1.77,16.67-3.39,25.32-5.15v49.33c-8.41-1.69-16.58-3.34-25.61-5.16,2.26,6.14,4.13,11.72,6.43,17.13.55,1.29,2.7,1.8,3.82,2.96,3.38,3.51,7.57,6.69,9.63,10.89,1.77,3.6,3.88,4.55,7.21,5.41,13.84,3.54,27.7,7.05,41.36,11.22,5.16,1.58,9.95,4.64,14.59,7.53,6.34,3.94,6.42,5.03,3.18,11.66-9.66,19.73-19.49,39.39-28.86,59.25-4.03,8.54-7.12,17.53-10.59,26.19,12.33,8.33,11.77,21.44-2.85,27.62.14,4.38,1.76,7.39,6.56,8.45,8.24,1.81,12.76,7.14,14.25,15.44.29,1.61,2.02,3.7,3.55,4.24,11.28,4,16.73,12.46,14.92,23.81-1.82,11.4-9.49,17.69-21.66,17.73-7.8.02-15.59,0-23.63,0,0,8.07-.26,15.68.04,23.27,1.7,42.27,7.18,83.96,19.9,124.45,7.02,22.34,15.94,43.86,30.07,62.76,3.09,4.13,7.33,7.73,11.72,10.51,11.18,7.08,13.76,14.16,8.05,26.02-3.18,6.62-2.06,12.81,1.56,18.5,2.56,4.02,5.9,7.66,9.42,10.91,5.38,4.96,11.19,9.47,16.86,14.11,21.09,17.26,24.9,31.28,15.24,56.73ZM150.45,347.89c-3.22,73.62-11.76,145.11-53.11,208.29,16.78,4.51,125.81,6.51,151.07,2.81-.67-1.76-1.29-3.43-1.95-5.09-8.55-21.57-14.75-43.81-19.24-66.54-7.45-37.71-10.29-75.87-10.95-114.22-.14-8.13-3.2-13.95-11.01-16.49-17.68-5.76-35.95-7.92-54.8-8.75ZM47.7,676.26c.24-.69.44-1,.43-1.31,0-1.16-.04-2.33-.13-3.49-.69-8.82,2.11-16.43,8.15-22.81,2.86-3.02,5.83-5.97,8.98-8.68,11.07-9.49,21.27-19.7,28.29-32.69.09-.17.54-.14,1.24-.3-.33,1.78-.3,3.54-.98,4.96-3.86,8.05-7.51,16.24-12.01,23.93-3.34,5.71-8.07,10.6-11.77,16.12-4.47,6.67-5.67,14.07-3.86,21.99.68,2.97,1.79,4.56,5.18,4.76,11.3.69,22.58,1.93,33.88,2.57,44.28,2.53,88.59,3.18,132.9,1.01,13.3-.65,26.62-1.48,39.85-2.96,15.22-1.69,20.98-13.45,13.29-26.71-2.99-5.15-7.06-9.66-10.53-14.55-5.76-8.13-12.48-15.82-16.85-24.65-4.59-9.27-11.01-13.22-20.82-13.01-3,.06-6-.06-9-.11-44.32-.69-88.63-1.67-132.72-6.83-6.54-.77-13.09-1.46-17.87-1.99-3.82,8.21-6.31,15.93-10.71,22.32-4.08,5.91-10.07,10.56-15.48,15.49-5.65,5.16-11.8,9.79-17.38,15.02-5.91,5.54-8.44,12.66-7.97,20.77.47,8.05,1.57,9.2,9.66,10.29,1.97.27,3.94.55,6.21.86ZM99.91,149.94c.34.85.65,1.77,1.05,2.65,12.76,27.83,25.58,55.62,38.19,83.51,1.37,3.04,3.31,3.13,5.89,3.11,23.33-.15,46.66-.38,69.98-.25,4.4.02,6-1.56,7.1-5.56,4.53-16.53,9.29-33,14.18-49.42,2.37-7.97,5.35-15.76,7.78-23.72,1.83-6,.58-8.28-5.38-10.04-5.1-1.51-10.26-2.89-15.49-3.84-8.77-1.6-17.62-2.83-26.43-4.21,29.25-2.21,58.06,1.15,87.54,6.49-31.72-23.03-152.97-21.89-184.42,1.29ZM53.37,711.62c0,5.97-.09,11.27.04,16.57.06,2.77,1.19,4.71,4.51,4.63,1.98-.05,3.97.47,5.96.58,26.77,1.52,53.53,3.55,80.32,4.39,49.31,1.54,98.61.9,147.88-1.97,4.68-.27,6.6-2.23,7.23-6.34.3-1.97.56-3.96.63-5.95.12-3.56-1.3-5.36-5.28-5.48-11.99-.38-23.96-1.11-35.94-1.75-2.01-.11-4.01-.45-6.02-.68,39.13-3.41,78.28-4.64,116.92-12.06-5.69-3.54-10.58-7.87-18.11-7.04-23.33,2.57-46.67,5.41-70.08,6.68-58.77,3.16-117.59,2.9-176.36-.1-21.92-1.12-43.81-3.58-65.59-6.35-14.63-1.86-24.65,5.59-24.7,20.15,0,2.16-.2,4.4.27,6.47.3,1.32,1.45,3.16,2.57,3.45,4.95,1.3,10.03,2.13,15.04,3.12.65-5.97,1.14-11.4,1.88-16.8.3-2.19,1.06-4.2,4.17-3.66,4.89.85,9.83,1.46,14.67,2.16ZM311.35,571.82c.04-.46.08-.92.11-1.39-.73-.63-1.41-1.75-2.19-1.82-5.18-.44-10.44-1.34-15.55-.85-54.17,5.21-108.42,5.94-162.72,2.95-15.45-.85-30.85-2.62-46.27-3.98-4.08-.36-8.62,2.3-8.85,5.56-.33,4.53,2.99,5.87,6.56,6.78.8.2,1.64.3,2.47.38,13.41,1.44,26.79,3.18,40.22,4.23,43.92,3.42,87.87,2.82,131.83.68,3.5-.17,5.9-1.68,6.33-5.11.37-2.93,2.02-3.45,4.38-3.54,2.33-.09,4.66-.18,6.98-.39,12.23-1.14,24.47-2.33,36.7-3.5ZM280.68,322.22c.42.26.85.52,1.27.78,1.39-2.47,3.95-4.98,3.86-7.41-.1-2.89-1.97-6.14-4.02-8.39-1.28-1.41-4.28-1.72-6.52-1.72-54.16-.14-108.32-.16-162.48-.21-.67,0-1.34,0-2,.07-5.35.57-8.69,4.2-8.52,9.25.17,5.05,3.18,7.8,8.97,7.79,41.99-.06,83.99-.15,125.98-.32,8.41-.03,10.69-2.52,10.96-11.44,7.29,0,14.6.02,21.91,0q12.2-.03,10.57,11.59ZM208.55,100.18c-1.9-8.2-3.85-16.61-6-25.9,10.34,2.01,19.19,3.73,28.33,5.51v-25.32c-9.26,1.91-18.12,3.74-28.08,5.79,2.04-8.95,3.82-16.78,5.72-25.14h-28.85c1.95,8.41,3.76,16.23,5.79,25-10.16-1.96-19-3.66-27.81-5.35v24.8c9.11-1.69,17.7-3.28,27.86-5.16-2.07,9.39-3.89,17.63-5.69,25.78h28.74ZM266.77,295.08c2.55-7.27-.99-11.44-9.06-11.44-41.81-.04-83.62.06-125.42.23-2.75.01-6.01.26-8.1,1.74-1.93,1.36-2.61,4.51-3.83,6.87,2.02.97,4.04,2.76,6.07,2.77,32.81.18,65.63.15,98.44.11,7.99,0,7.99-.1,7.44-7.29,7.14,0,14.3.04,21.45-.01,5.37-.04,10.91-.6,13.02,7.02ZM259.55,252.73c-2.85-3.63-3.35-3.99-10.54-4.1-28.66-.42-57.31-.82-85.97-.98-9.32-.05-18.65.56-27.97,1.04-2.67.14-6.15.79-5.43,4.23.37,1.75,3.64,2.93,5.69,4.24.48.31,1.31.1,1.97.1,27.83,0,55.66,0,83.49-.08,1.58,0,4.03-.2,4.58-1.16,2.61-4.54,6.72-3.49,10.59-3.41,6,.13,11.99.42,17.99.54,1.72.04,3.44-.25,5.6-.43ZM267.34,514.69c-.35-1.21-.64-2.46-1.07-3.64-10.61-28.99-18.02-58.79-22.08-89.38-2.04-15.33-3.6-30.72-5.46-46.07-.2-1.67-.93-3.28-1.41-4.92-.57.17-1.14.35-1.71.52,1.82,49.71,6.45,98.81,31.73,143.49ZM140.09,273.98h80.78c.15-.42.29-.84.44-1.26-2.6-1.09-5.12-2.75-7.83-3.17-7.54-1.17-15.15-2.4-22.75-2.58-16.4-.38-32.82-.12-49.18-.12-.61,2.98-1,4.89-1.46,7.13ZM216.62,121.48c-2.04-2.84-2.86-4.84-4.35-5.86-2.83-1.94-5.88-3.98-9.14-4.79-10.3-2.55-20.52-1.49-30.32,2.49-3.66,1.49-7.4,3.49-7.51,8.15h51.31ZM349.73,675.29c5.56-.87,5.95-5.4,6.43-9.36,1.21-10.04-3.6-17.56-10.71-24.02-12.42-11.3-27.46-19.84-36.43-34.82,1.51,8.08,5.73,14.56,11.49,19.98,5.33,5.01,10.89,9.79,16.59,14.36,10.48,8.39,16,18.53,12.39,32.27-.11.43.13.95.23,1.61ZM248.43,234c11.84-25.63,23.46-50.8,35.15-76.09-9.54,3.43-35,58.44-35.15,76.09ZM194.21,8.51c-4.53-.12-8.71,3.82-8.93,8.4-.2,4.1,3.18,8.11,7.03,8.33,4.2.24,8.75-4.44,8.88-9.14.11-4.15-2.94-7.48-6.97-7.58Z"/>
  </g>
</svg>