<?xml version="1.0" encoding="UTF-8"?>
<svg id="Layer_2" data-name="Layer 2" xmlns="http://www.w3.org/2000/svg" viewBox="0 0 424.17 778.48">
  <defs>
    <style>
      .cls-1 {
        fill: #000;
        stroke-width: 0px;
      }
    </style>
  </defs>
  <g id="knight">
    <g>
      <path class="cls-1" d="M185.5,273.14c-6.78-1.92-13.26-3.91-19.83-5.53-1.81-.45-3.94-.07-5.83.36-10.19,2.32-20.23,5.65-30.54,7-15.71,2.05-28.09,9.21-35.86,22.56-7.06,12.13-16.33,16-29.58,13.14-6.16-1.33-12.56-1.5-18.84-2.3-10.97-1.41-13.72-4.25-14.79-15.7-2.69,0-5.48.22-8.22-.04-10.63-1.02-18.83-9.86-17.66-20.39,1.29-11.54-.23-22.55-3.26-33.54-2.67-9.69-.63-17.31,8.03-23.55,4.84-3.49,8.07-9.17,12.29-13.61,2.92-3.07,6.07-6.01,9.51-8.44,4.6-3.25,10.04-5.41,14.34-8.99,17.55-14.59,34.79-29.55,52.16-44.36,6.21-5.29,10.82-11.72,13.86-19.28.19-.46.4-.92.56-1.39,4.83-14.54,14.57-23.67,29.38-27.97,8.6-2.5,16.72-6.66,25.31-9.21,4.91-1.46,5.41-3.83,5.01-8.23-1.26-13.92-2.43-27.86-2.92-41.82-.22-6.08.98-12.27,2.07-18.31,1.27-7.05,4.34-8.76,11.01-5.95,4.25,1.79,8.51,4.07,11.98,7.05,6.94,5.95,13.36,12.51,19.96,18.84,1.41,1.35,2.71,2.82,4.57,4.77,2.93-7.79,5.56-14.93,8.3-22.03,1.5-3.88,3.04-7.76,4.86-11.49,2.39-4.9,6.2-6.21,10.55-2.94,4.35,3.26,8.63,7,11.82,11.36,7.26,9.92,13.76,20.39,20.74,30.53,1.23,1.79,3,3.78,4.94,4.43,44.96,14.96,77.38,44.61,100.21,85.43,19.73,35.27,26.02,73.32,23.36,113.32-2.32,34.77-11.24,68.25-18.87,102.01-5.5,24.36-11.01,48.74-10.83,73.96.19,26.28,7.89,50.47,20.03,73.48,1.94,3.68,3.85,7.39,5.53,11.19,3.25,7.36,2.64,10.69-3.84,15.6-6.49,4.92-13.41,9.28-20.21,13.79-7.74,5.14-15.56,10.16-23.88,15.58,2.52,2.64,4.42,4.64,6.32,6.64,7.84,8.24,9.9,20.17-.34,28.49-1.95,1.58-3.1,5.18-3.15,7.87-.18,9.29,3.68,17.3,10.12,23.72,6.36,6.33,13.35,12.02,20.13,17.92,5.15,4.48,10.66,8.58,15.58,13.28,14.92,14.24,18.15,29.99,10.42,49.12-1.11,2.76-2.37,5.45-3.72,8.53,1.98,1.23,3.73,2.47,5.6,3.46,8.55,4.55,12.29,11.92,12.26,21.31-.01,3.98-.51,7.97-.98,11.94-1.09,9.04-5.57,15.17-14.98,16.86-19.8,3.56-39.49,8.1-59.43,10.47-49.21,5.83-98.7,7.17-148.22,6.05-43.15-.98-86.29-2.76-129.07-8.85-16.59-2.36-32.93-6.52-49.39-9.86-6.97-1.42-10.61-6-11.45-12.76-.65-5.27-1.21-10.62-1-15.9.35-8.89,5.03-15.38,12.87-19.43,3.85-1.99,4.61-4.14,2.79-8.31-9.98-22.93-5.93-40.78,12.86-57.43,8.35-7.4,17.15-14.3,25.44-21.77,6.88-6.21,12.51-13.4,14.34-22.89,1.13-5.85.51-10.92-4-15.61-7.69-8.01-6.64-18.3,2.08-27.01,5.96-5.95,5.91-5.92,1.36-13.02-17.93-27.97-27.38-58.99-32.87-91.44-1.27-7.49,1.11-13.91,5.67-19.52,17.32-21.32,34.26-42.99,52.36-63.63,19.11-21.79,39.71-42.26,58.99-63.91,8.36-9.39,15.07-20.25,22.49-30.47.65-.9.97-2.05,1.47-3.15ZM339.47,544.72c-.58-1.43-.93-2.35-1.33-3.25-18.7-42.4-25.1-86.65-17.61-132.32,5.11-31.18,12.34-62.01,18.58-93.01,7.25-36.03,12.82-72.19,8.46-109.12-3.98-33.71-16.43-63.76-39.64-88.76-7.84-8.45-17.08-15.59-26.46-24.04-1.92,6.7-3.35,11.7-4.89,17.05-3.51-4.25-4.25-7.61-3.49-14.42,1.19-10.63,2.38-21.36-1.18-31.71-6.74-19.62-17.68-36.84-31.27-52.42-.6-.69-1.52-1.11-2.75-1.98-1.22,3.91-2.19,7.4-3.39,10.8-6.65,18.82-13.35,37.62-20.05,56.43-1.88,5.27-4.76,7.81-11.26,7.95-9.19.19-18.56,1.87-27.43,4.39-11.01,3.13-21.42,8.36-32.41,11.57-11.12,3.25-18.08,9.86-21.76,20.63-2.85,8.35-7.75,15.5-14.28,21.41-15.44,13.97-30.64,28.24-46.65,41.53-7.7,6.39-17.09,10.71-25.55,16.22-2.41,1.57-4.34,3.94-6.3,6.1-5,5.5-9.39,11.69-15.01,16.44-3.86,3.26-4.81,6.08-3.74,10.63,2.84,12.12,6.31,24.1,4.61,36.93-.79,5.94,3.88,9.86,9.9,9.99,12.87.28,24.59-3.42,35.58-9.96,3.55-2.11,7.25-4.31,11.18-5.3,2.16-.55,5.66.63,7.26,2.29,2.52,2.6.43,5.54-2.01,7.14-7.35,4.81-14.76,9.57-22.46,13.79-3.83,2.1-8.31,3-12.5,4.44-.15.55-.3,1.1-.45,1.64,2.16.82,4.26,2.09,6.49,2.39,5.93.79,11.95.94,17.88,1.74,10.99,1.49,13.99-.03,19.2-9.79,4.93-9.25,9.93-18.48,15.3-27.47,1.51-2.53,4.13-4.92,6.8-6.15,9.66-4.46,19.37-8.98,29.44-12.36,7.19-2.41,11.07-5.79,9.5-13.67-.03-.18.37-.44,1.38-1.55.97,1.38,1.77,2.84,2.86,4.02,8.24,8.92,17.86,16.02,28.93,20.99,10.94,4.9,22.34,7.77,34.47,5.96,27.18-4.07,43.78-21.03,53.96-45.21,6.34-15.05,8.49-31.09,9.24-47.33.13-2.89.45-5.78.8-10.09,5.42,14.74,6.81,38.71,3.61,54.3-8.75,42.65-41.65,71.85-85.51,75.7-3.49.31-5.59,1.59-7.68,4.42-6.51,8.84-13,17.76-20.33,25.91-20.5,22.8-41.97,44.74-61.99,67.94-16.62,19.26-31.72,39.84-47.52,59.81-2.54,3.21-1.87,5,1.96,6.55,8.79,3.56,17.25,8.02,26.19,11.11,7.76,2.68,11.97,7.73,15.36,14.91,13,27.56,29.43,52.95,49.74,75.76,2.65,2.98,5.46,4.85,9.72,5.16,30.45,2.21,60.91,2.77,91.41,1.21,4.62-.24,9.24-.63,14.54-1-.72-2.49-1.28-4.52-1.9-6.52-9.27-30.16-14.46-60.84-12.75-92.54,1.66-30.78,9.32-60.11,20.81-88.55,10.97-27.15,22.64-54.05,32.72-81.53,12.42-33.86,17.67-68.96,13.83-105.11-.39-3.64-.7-7.3-1.12-10.93-.4-3.43-.91-6.84-1.56-11.63,1.09,1.55,1.34,1.78,1.44,2.07.43,1.26.77,2.55,1.21,3.81,11.85,34.57,11.58,69.59,4.47,105.02-5.73,28.52-15.22,55.86-25.05,83.1-16.86,46.73-21.68,94.37-10.22,142.95,4.11,17.42,10.5,34.32,16.08,51.38.58,1.78,2.99,4.46,4.25,4.3,10.6-1.31,20.87-3.97,30.37-10.14ZM90.73,599.63c-1.68,10.9-6.02,20.18-13.39,27.78-4.97,5.13-10.36,9.88-15.71,14.63-6.11,5.41-12.53,10.47-18.57,15.96-8.04,7.3-11.68,16.44-10.4,27.35.92,7.85,3.19,10.77,10.94,11.94,16.95,2.55,33.91,5.27,50.96,6.88,60.64,5.71,121.4,6.82,182.2,3.06,13.29-.82,26.55-2.25,39.77-3.87,9.4-1.15,14.53-6.86,13.79-16.32-.46-5.93-2.06-12.4-5.17-17.35-5.27-8.4-12.12-15.8-18.33-23.61-5.79-7.29-12.52-14.03-17.16-21.99-5.44-9.34-12.82-12.57-23.01-12.52-58.69.32-117.22-1.86-175.92-11.93ZM409.73,725.18c-5.67-6.71-11.94-8.97-19.05-7.41-37.94,8.33-76.57,9.97-115.17,11.54-49.31,2.01-98.62.95-147.86-2.11-29.57-1.84-59.16-3.96-88.19-10.56-1.09-.25-2.37-.3-3.42.03-11.44,3.61-16.01,11.15-14.32,22.84.73,5.02,2.9,7.75,8.13,9.15,22.93,6.14,46.28,9.56,69.87,11.64,55.84,4.92,111.78,5.79,167.77,3.87,18.97-.65,37.92-2.04,56.87-3.3,5.64-.37,8.28-4.62,7.85-11.38-.39-6.2-4.95-4.56-8.52-4.55-29.15.08-58.29.27-87.44.29-6.42,0-12.84-.58-19.26-.89,64.28-4.49,128.78-5.97,192.74-19.16ZM213.32,593.61c30.19.88,67.34-2.05,104.33-7.33,9.05-1.29,18.05-3.08,26.96-5.12,6.14-1.41,8.9-6.34,6.95-11.02-2.04-4.92-6.54-7.5-12.12-6.4-35.26,6.94-70.94,9.5-106.78,10.3-35.67.8-71.3-.04-106.74-4.48-11.54-1.45-22.96-3.82-34.43-5.81-4.78-.83-9.41,1.91-10.88,6.56-1.37,4.32.72,8.25,5.64,10.21,2.15.86,4.42,1.47,6.69,1.96,37.29,7.99,75.09,10.86,120.36,11.14ZM179.39,48.05c.93,10.41,1.76,19.76,2.59,29.07,7.61,0,14.72.06,21.84-.07.9-.02,2.35-.86,2.6-1.62,2.92-9.11,5.65-18.29,8.42-27.37h-35.44ZM337.48,504.16c1.44,4.64,2.81,9.04,4.39,14.12,13.18-7.41,25.85-14.53,38.59-21.7-2.05-4.62-3.83-8.64-5.77-13.01-12.49,6.91-24.52,13.57-37.21,20.59ZM357.91,272.88c10.92-5.4,21.14-10.44,31.32-15.55.62-.31,1.26-1.23,1.32-1.92.51-5.82.88-11.66,1.36-18.46-10.96,6.16-20.8,11.64-30.58,17.24-.86.49-1.74,1.66-1.86,2.6-.63,5.07-1.01,10.16-1.56,16.08ZM389.68,264.54c-11.17,5.79-21.29,11.02-31.39,16.31-.66.35-1.44,1.11-1.55,1.78-.84,5.27-1.54,10.57-2.4,16.71,10.75-5.27,20.57-10.03,30.3-14.96,1.14-.58,2.3-2.05,2.54-3.28.96-5.02,1.56-10.11,2.49-16.55ZM385.35,292.27c-1.03.08-1.57-.02-1.96.17-9.54,4.67-19.07,9.36-28.58,14.1-.84.42-1.94,1.13-2.12,1.9-1.25,5.51-2.29,11.07-3.58,17.52,10.62-4.85,20.14-9.14,29.6-13.57,1.08-.5,2.38-1.56,2.64-2.6,1.47-5.72,2.66-11.51,4-17.52ZM363.3,397.37c-10.59,4.9-20.63,9.5-30.61,14.23-.69.33-1.23,1.55-1.34,2.42-.65,5.04-1.15,10.11-1.81,16.06,10.77-4.9,20.7-9.35,30.55-13.99.95-.45,1.81-1.98,1.93-3.1.56-4.91.83-9.85,1.28-15.62ZM368.25,465.04c-8.97,4.73-17.6,9.27-26.23,13.84q-10.07,5.33-6.61,16.36c.14.44.44.84.96,1.79,11.98-6.47,23.88-12.89,36.01-19.44-1.43-4.36-2.71-8.24-4.13-12.56ZM360.34,246.63c10.28-5.57,19.76-10.65,29.16-15.87.97-.54,2.04-1.92,2.08-2.95.21-5.04.1-10.09.1-16.38-10.8,6.48-20.33,12.13-29.75,17.95-.88.54-1.47,2.16-1.52,3.31-.18,4.3-.07,8.62-.07,13.94ZM387.91,186.94c-9.89,6.87-18.66,12.91-27.35,19.06-.81.57-1.69,1.83-1.64,2.72.23,4.38.75,8.75,1.24,13.75,9.96-5.79,19.31-11.18,28.58-16.7.8-.48,1.66-1.85,1.56-2.7-.59-5.07-1.46-10.11-2.39-16.13ZM349.23,536.11c13.79-8.47,26.9-16.53,40.01-24.58-2.03-3.31-3.74-6.11-5.62-9.19-13.22,7.52-26.19,14.9-39.39,22.41,1.68,3.81,3.2,7.27,5.01,11.36ZM331.96,476.37c11.03-5.63,21.97-11.17,32.83-16.85.78-.41,1.63-1.87,1.48-2.66-.69-3.87-1.7-7.68-2.7-11.96-8.05,4.07-15.59,7.89-23.13,11.68q-11.8,5.94-8.48,19.79ZM343.11,352.56c10.34-4.62,19.86-8.85,29.34-13.17.97-.44,2.18-1.32,2.42-2.23,1.47-5.53,2.69-11.13,4.24-17.72-10.9,5.14-20.76,9.77-30.58,14.45-.69.33-1.52,1.03-1.68,1.7-1.28,5.41-2.41,10.85-3.74,16.97ZM332.94,403.91c10.62-4.78,20.02-8.97,29.36-13.28.93-.43,2.05-1.43,2.24-2.34,1.1-5.42,1.95-10.9,2.97-16.88-10.21,4.68-19.75,9-29.21,13.46-1.05.49-2.23,1.71-2.46,2.78-1.07,5-1.84,10.07-2.91,16.26ZM361.65,422.65c-10.65,5.05-20.52,9.71-30.35,14.46-.75.36-1.65,1.37-1.67,2.11-.15,4.67-.08,9.35-.08,14.81,11.02-5.21,21.06-9.89,31-14.77,1-.49,1.96-2.24,1.95-3.39-.03-4.12-.49-8.23-.85-13.21ZM381.53,164.37c-8.89,7.4-16.93,14.03-24.87,20.79-.72.61-1.24,2.04-1.1,2.96.56,3.64,1.43,7.23,2.32,11.48,9.32-6.3,18-12.09,26.56-18.05.79-.55,1.41-2.27,1.18-3.21-1.06-4.31-2.45-8.54-4.08-13.97ZM372.79,346.56c-10.75,4.97-20.67,9.53-30.55,14.17-.65.31-1.29,1.18-1.45,1.9-1.03,4.66-1.93,9.35-3.06,14.99,10.44-4.69,19.97-8.94,29.45-13.3.94-.43,1.98-1.48,2.22-2.43,1.21-4.78,2.16-9.63,3.4-15.34ZM373.04,145.49c-7.33,6.77-14.66,13.48-21.88,20.3-.69.65-1.21,2.11-.99,2.99.84,3.29,2.03,6.49,3.24,10.2,8.26-6.53,15.96-12.54,23.52-18.74.86-.71,1.53-2.71,1.16-3.67-1.62-4.13-3.65-8.1-5.05-11.08ZM346.9,159.43c7.17-7.33,14.31-14.64,21.83-22.33-2.04-3.48-4.48-7.66-7.18-12.28-4.87,6.08-8.57,12-13.54,16.55-6.43,5.88-5.66,11.41-1.45,17.68.09.14.22.25.34.39ZM204.39,37.8c-7.5-9.3-15.32-16.85-26.15-22.92v25.68c8.37-.88,16.72-1.76,26.15-2.76ZM348.72,107.67c-5.31,8.18-10.22,15.66-14.99,23.22-.49.77-.5,2.29-.07,3.12,1.45,2.75,3.21,5.34,5.15,8.47,6.62-7.96,12.84-15.46,19.16-23.06-3.1-3.93-5.86-7.44-9.25-11.75ZM323.19,83.3c-3.56,7.02-6.63,13.42-10.04,19.64-1.47,2.69-1.11,4.54,1.06,6.46,1.42,1.26,2.63,2.76,4.17,4.4,5.02-7.85,9.63-15.06,14.34-22.43-3.13-2.66-5.91-5.01-9.53-8.08ZM336.86,95.07c-4.9,8.36-9.49,16.18-14.12,24.07,2.1,2.56,3.93,4.79,6.04,7.37,5.56-8.2,10.68-15.75,15.64-23.07-2.54-2.82-4.85-5.38-7.56-8.37ZM306.82,101.63c3.99-7.3,7.79-14.27,11.82-21.65-3.26-2.15-6.32-4.17-9.39-6.19-.73,1.05-1.08,1.42-1.29,1.87-1.81,3.75-3.64,7.48-5.37,11.26q-3.83,8.36,4.23,14.71ZM294.32,65.12c-2.01,4.62-3.82,8.68-5.55,12.79q-3.41,8.1,4.33,12.65c.23.14.62.02,1.14.02,1.59-3.14,3.22-6.39,4.88-9.62,1.71-3.34,3.44-6.67,5.3-10.26-3.4-1.87-6.42-3.54-10.1-5.57ZM148.64,246.84c-9.55,4.58-18.53,8.88-27.5,13.19.2.44.39.88.59,1.32,10.36-1.9,20.73-3.8,31.65-5.8-1.65-3.04-2.97-5.46-4.74-8.71ZM283.23,73.7c.32.04.64.08.96.12,1.61-3.52,3.22-7.03,4.97-10.86-2.71-1.35-5.02-2.5-8.18-4.07.84,5.54,1.55,10.17,2.25,14.81Z"/>
      <path class="cls-1" d="M132.61,502.03c-8.49-13.08-15.05-25.34-19.05-38.77-.65-2.19.57-5.19,1.53-7.56,18.08-44.56,43.89-84.28,75.47-120.38,3.36-3.84,6.8-7.59,10.65-11.15-32.86,54.96-63.94,110.56-68.61,177.86Z"/>
      <path class="cls-1" d="M240.96,29.73c21.36,15.62,27.05,46.03,13.48,65.72-2.21,3.2-4.29,4.27-7.65,1.94-1.63-1.13-3.43-2.02-5.15-3.02-10.06-5.82-14.91-14.41-12.03-25.88,3.22-12.82,7.4-25.39,11.36-38.76Z"/>
      <path class="cls-1" d="M140.1,160.99c2.77-4.29,5.53-8.58,8.3-12.87,1.08-1.68,2.17-3.36,3.21-5.06,5.94-9.7,9.06-11.13,20.34-9.24,1.48.25,2.97.46,4.42.83,9.01,2.33,18.01,7.38,27.04-.76-3.05,7.22-7.56,9.89-17.35,10.92-.28.97-.6,2.05-.9,3.13-3.52,12.74-14.09,17.04-24.95,9.53-4.09-2.83-6.76-2.64-10.39.15-2.55,1.96-5.69,3.13-8.57,4.66-.38-.43-.77-.85-1.15-1.28ZM169.92,139.45c-3.03,2.35-6.06,3.55-6.92,5.64-1.19,2.89,3.22,7.18,6.59,7.27,3.42.09,7.5-3.59,6.68-7.11-.47-1.99-3.56-3.37-6.35-5.8Z"/>
      <path class="cls-1" d="M29.25,255.82c-5.62-10.82-1.65-25.13,8.76-30.92,6.87-3.82,14-.55,15.66,7.18,2.38,11.1-1.53,17.12-12.3,19.62-3.99.93-7.79,2.63-12.11,4.13Z"/>
      <path class="cls-1" d="M127.03,161.04c-3.71,7.79-5.72,16.17-14.82,20.57-11.34,5.48-21.92,12.53-32.84,18.87-1.37.79-2.83,1.41-4.54,1.67,15.27-16.41,33.13-29.46,52.2-41.11Z"/>
      <path class="cls-1" d="M195.02,167.32c-6.21,6.71-13.71,14.7-21.07,22.83-7.28,8.05-13.49,16.82-17.03,27.2-5.96-2.05-7.12-3.88-4.39-8.95,3.05-5.66,6.23-11.49,10.49-16.22,9.59-10.66,21.64-18.31,32-24.86Z"/>
      <path class="cls-1" d="M137.85,210.45c-14.01,10.93-30.52,17.38-46.47,27.29,6.08-9.74,34.9-26.73,46.47-27.29Z"/>
      <path class="cls-1" d="M62.67,235.42c-.78-9.99-3.55-19.2-10.82-26.9,11.94-1.15,16.42,10.13,10.82,26.9Z"/>
    </g>
  </g>
</svg>