<?xml version="1.0" encoding="UTF-8"?>
<svg id="Layer_2" data-name="Layer 2" xmlns="http://www.w3.org/2000/svg" viewBox="0 0 413.59 695.78">
  <defs>
    <style>
      .cls-1 {
        fill: #000;
        stroke-width: 0px;
      }
    </style>
  </defs>
  <g id="pawn">
    <path class="cls-1" d="M261.28,226.92c7.51,3.37,15.04,6.18,21.95,10.08,4.01,2.26,7.03,6.29,10.51,9.51,1.55,1.43,2.99,3.06,4.75,4.15,4.94,3.07,10.21,5.64,15.01,8.89,7.37,5,10.3,12.23,8.13,20.88-2.08,8.29-7.62,13.93-16.11,15.16-10.35,1.51-20.86,1.99-31.29,2.91-1.3.12-2.6.25-4.05.39-.19.79-.45,1.4-.47,2.02-1.23,46.56,6.41,91.31,28.37,132.83,5.65,10.69,12.39,20.97,19.84,30.48,5.01,6.4,11.7,11.79,18.45,16.46,11.38,7.88,13.92,13.6,9.16,26.52-3.37,9.16-1.87,17.6,3.96,24.93,4.42,5.56,9.7,10.5,15.03,15.25,6.33,5.64,13.31,10.56,19.68,16.17,16.91,14.91,20.17,33.57,9.65,53.54-.31.58-.52,1.22-.88,2.09,2.35,1.57,4.7,3.1,7,4.69,8.69,6.01,13.2,14.34,13.51,24.88.15,5.33.13,10.66.1,16-.06,10.13-3.07,15.02-12.88,17.5-10.93,2.76-22.09,5.07-33.29,6.29-73.15,7.97-146.54,8.06-219.98,6.3-38.28-.92-76.54-2.41-114.46-8.24-6.88-1.06-13.76-2.53-20.42-4.53-9.36-2.82-12.26-7.15-12.45-16.85-.08-4.33.15-8.67-.05-13-.63-13.27,4.76-23.31,16.15-29.92,3.94-2.29,4.1-4.27,2.13-8.21-7.82-15.63-5.39-33,6.66-45.85,5.32-5.67,11.72-10.32,17.57-15.51,6.59-5.85,13.56-11.36,19.54-17.79,7.83-8.43,10.15-18.31,5.57-29.55-3.9-9.58-2.19-17.2,5.97-21.87,19.16-10.96,30.53-28.39,40.56-46.96,23.1-42.75,31.06-88.85,29.72-137.55-9.24-.77-18.3-1.5-27.36-2.3-2.98-.26-5.99-.48-8.91-1.09-8.04-1.69-13.4-6.6-15.57-14.49-2.19-7.95-.16-15.17,6.32-20.21,5.07-3.94,11.09-6.65,16.53-10.16,2.13-1.37,3.79-3.46,5.73-5.15,3.57-3.12,6.79-6.89,10.86-9.1,6.69-3.63,13.94-6.22,21.51-9.5-40.86-23.7-64.23-58.1-65.32-105.81-.79-34.49,11.8-63.86,36.49-87.77,49.89-48.3,130.03-43.58,174.49,9.64,46.83,56.07,33.29,145.27-37.41,183.84ZM104.04,119.11c0,2.5-.04,5,0,7.5.39,18.57,6.46,34.16,23.03,44.33,2.12,1.3,3.95,3.06,6.03,4.44,32.18,21.34,66.23,24.91,100.83,7.69,53.48-26.62,72.69-95.59,28.38-149.99-1.32-1.62-3.26-2.85-5.11-3.9C188.94-9.59,103.6,40.48,104.04,119.11ZM85.19,517.24c-.45,16.13-9.5,27.55-20.99,37.54-5.02,4.37-10.27,8.48-15.3,12.84-4.27,3.71-8.61,7.38-12.47,11.48-5.75,6.11-7.24,13.61-6.09,21.81.79,5.64,3.52,9.02,9.42,9.84,10.54,1.46,20.99,3.56,31.56,4.75,48.36,5.46,96.91,7.38,145.52,6.12,30.24-.78,60.46-2.98,90.66-4.95,9.94-.65,15.03-6.94,15.42-16.9.33-8.61-3.86-15.32-8.97-21.61-11.12-13.67-22.87-26.82-30.4-43.13-1.53-3.31-6.27-5.78-10.07-7.21-3.57-1.34-7.85-.93-11.83-1.07-38.9-1.32-77.83-2.2-116.71-4.03-19.72-.93-39.37-3.56-59.74-5.48ZM159.4,316c-.59,59.64-15.54,113.8-52.17,161.77,55.68,4.87,110.33,6.01,165.28,2.21-4.48-9.26-8.87-17.67-12.69-26.34-15.58-35.4-21.73-72.9-24.07-111.19-.75-12.17-5.02-17.08-17-18.84-5.76-.85-11.51-1.78-17.29-2.5-13.67-1.72-27.36-3.33-42.06-5.11ZM394.69,643.21c.08-.59.16-1.17.23-1.76-5.48-3.98-9.59-10.59-18.09-8.81-32.55,6.8-65.61,9.31-98.71,9.87-45.92.78-91.87.79-137.78-.05-35.26-.64-70.48-3.25-105.23-10.03-1.36-.27-3.06-.24-4.27.34-8.95,4.28-15.91,9.94-13.89,21.42.23,1.3.24,2.69.05,3.99-.81,5.71,1.98,7.7,7.34,8.68,35.29,6.49,70.98,8.98,106.72,10.52,59.23,2.57,118.47,2.58,177.67-1.56,13.08-.92,14.31-2.06,14.59-15.39.02-.83.12-1.7-.05-2.49-.8-3.68.71-4.91,4.37-5.26,11.92-1.16,23.83-2.46,35.69-4.14,10.5-1.48,20.91-3.54,31.36-5.34ZM213.43,511.69c11.54-.47,32.52-.84,53.43-2.3,19.57-1.37,39.07-3.84,58.59-5.97,2.85-.31,6.98-.5,6.61-4.44-.25-2.63-2.54-5.51-4.71-7.35-1.5-1.27-4.37-1.46-6.57-1.29-19.58,1.48-39.12,3.55-58.71,4.7-47.93,2.8-95.84,1.88-143.69-2.02-9.12-.74-18.2-1.94-27.32-2.75-4.72-.42-9.7,3.28-9.88,7.26-.24,5.52,4.02,5.65,7.84,6.23,38.11,5.75,76.49,7.55,124.41,7.95ZM206.01,284.67c24.07-1.38,48.14-2.58,72.19-4.24,8.43-.58,16.78-2.26,25.15-3.57,2.57-.4,4.58-1.69,3.14-4.79-1.49-3.22-14.53-9.79-18.11-9.16-38.09,6.74-76.48,6.81-114.9,4.83-14.58-.75-29.31-1.79-43.58-4.64-9.81-1.96-15.33,3.32-21.66,8.04-2.6,1.94-1.86,4.46,1.36,5.61,1.4.5,2.88.82,4.35,1.04,30.5,4.64,61.21,6.08,92.07,6.89ZM134.43,249.93c.18.82.36,1.65.54,2.47,47.88,7.02,95.75,6.21,143.6-.22l.39-2.77c-2.55-.71-5.08-1.93-7.66-2.05-33.56-1.61-67.13-2.98-100.68-4.59-9.96-.48-19.96-1.86-29.34,2.9-2.39,1.21-4.56,2.84-6.84,4.27Z"/>
  </g>
</svg>