<?xml version="1.0" encoding="UTF-8"?>
<svg id="Layer_2" data-name="Layer 2" xmlns="http://www.w3.org/2000/svg" viewBox="0 0 361.24 713.73">
  <defs>
    <style>
      .cls-1 {
        fill: #000;
        stroke-width: 0px;
      }
    </style>
  </defs>
  <g id="queen">
    <g>
      <path class="cls-1" d="M124.8,279.72c-8.57,0-16.38.03-24.19,0-12.89-.06-21.59-6.88-23.17-18.12-1.73-12.35,4.12-20.88,17.06-24.85.47-.14.92-.35.47-.18,1.67-5.14,2.26-10.26,4.86-13.97,2.38-3.41,6.59-6.19,10.58-7.65,4.92-1.79,7.09-4.46,6.92-9.77-1.05-.5-2.22-1.04-3.38-1.61-9.73-4.79-11.23-16.8-2.49-23.24,3.45-2.54,3.41-5.12,2.88-8.55-4.96-32.07-18.42-59.22-44.99-79.05-1.66-1.24-2.69-4.55-2.49-6.77.34-3.92,1.65-7.81,2.93-11.58,1.49-4.39,4-5.14,8.12-2.6,4.53,2.79,8.95,5.76,13.44,8.63.56.36,1.19.6,1.79.88,10.14,4.7,10.73,4.69,16.55-4.81,11.51-18.81,26.56-33.23,48.08-39.92.43-.13.77-.56,1.11-.82-4.06-15.6-1.83-24.45,7.84-31.25,8.41-5.92,19.34-5.98,27.64-.17,9.77,6.84,12.34,16.56,8.3,31.92,1.01.42,2.04.92,3.11,1.27,14.84,4.91,26.85,13.85,36.53,25.97,3.22,4.03,6.17,8.29,9.05,12.56,6.32,9.37,7.14,9.85,17.58,4.95,5.08-2.38,9.73-5.72,14.43-8.83,4.55-3.02,6.3-2.57,8,2.5q4.82,14.38-6.48,24.05c-23.04,19.86-34.14,45.82-38.18,75.31-.19,1.38.46,3.36,1.44,4.33,11.19,11.15,9.95,19.86-4.19,26.66.2,4.51,1.21,8.03,6.6,9.46,8.89,2.34,13.45,8.68,14.37,17.74.13,1.3.31,2.6.48,3.98,1.11.32,2.06.58,3,.88,11.45,3.59,16.89,12.17,15.29,24.09-1.48,11.01-9.83,18.32-21.29,18.45-8.46.1-16.92.02-25.67.02,0,11.07-.32,21.68.06,32.27,1.55,43.99,7.47,87.35,21.97,129.05,5.66,16.27,13.14,32.01,21.1,47.32,4.21,8.09,10.8,15.11,17.06,21.93,7.61,8.31,9.33,14.69,4.37,24.85-3.62,7.42-3.61,14.72.85,21.38,3.86,5.76,8.56,11.02,13.37,16.05,4.36,4.56,9.31,8.58,14.1,12.72,16.19,13.99,25.82,35.31,10.73,60.05,2.62,1.39,5.27,2.71,7.83,4.17,7.65,4.34,12.19,10.82,12.69,19.67.38,6.65.39,13.32.31,19.98-.1,8.31-2.43,11.7-10.57,13.34-10.6,2.14-21.3,3.98-32.05,5.08-69.45,7.07-139.08,7.57-208.72,4.27-29.26-1.39-58.43-4.59-87.62-7.16-4.77-.42-9.49-1.71-14.16-2.91-4.89-1.25-7.72-4.52-7.83-9.69-.15-7.33-.4-14.67-.14-21.99.36-9.9,5.42-16.9,14.29-21.18,2.07-1,4.16-1.97,6.6-3.12-1.22-2.23-2.38-4.18-3.38-6.21-7.8-16.02-5.11-33.96,7.74-47.63,5.91-6.3,12.78-11.69,18.96-17.75,4.51-4.41,9.02-8.93,12.81-13.95,5.97-7.91,7.25-16.53,2.38-25.74-4.3-8.12-3.58-16.28,3.18-22.47,18.48-16.92,28.24-38.93,36.71-61.63,13.31-35.66,20.14-72.8,23.1-110.63,1.41-18.09,1.57-36.27,2.27-54.42.06-1.64,0-3.28,0-5.55ZM75.62,541.97c.76,18.18-10.06,30.05-22.12,41.23-3.17,2.94-6.56,5.67-9.66,8.68-3.69,3.6-7.5,7.15-10.67,11.18-5.89,7.47-7.93,15.99-5.44,25.38,1.37,5.16,4.31,8.46,9.92,9.06,8.77.94,17.5,2.26,26.28,3.07,47.49,4.37,95.11,4.95,142.75,3.89,11.62-.26,23.33-1.02,34.79-2.82,12.94-2.03,19.24-12.57,15.36-25.19-2.07-6.74-5.62-13.1-8.98-19.36-5.19-9.66-10.95-19.02-16.16-28.67-2.73-5.05-6.63-8.39-12.07-9.63-8.26-1.89-16.54-4.04-24.93-4.97-26.63-2.94-53.32-5.37-79.98-8-12.87-1.27-25.74-2.53-39.08-3.84ZM224.79,511.62c-.61-2.36-1.18-4.24-1.58-6.16-4.88-23.27-10.59-46.41-14.42-69.85-6.22-38.04-7.91-76.52-8.11-115.03-.04-8.36-3.07-14.65-10.59-17.51-10.66-4.05-21.63-7.43-32.68-10.27-5.96-1.54-12.36-1.37-18.72-1.98-2.49,76.92-11.65,151.26-53.71,217.78,1.79.3,2.93.53,4.07.68,8.54,1.15,8.58,1.17,12.86-6.25,15.68-27.18,26.12-56.41,33.7-86.74,1.13-4.52,2.12-9.07,3.16-13.62,1.03-4.51,2.04-9.02,3.06-13.53-3,41.75-12.12,82.14-27.18,122.49h110.13ZM207.12,673.81c45.73-2.8,91.34-3.71,136.53-11.26-4.79-3.61-9.54-6.51-15.83-5.86-18.55,1.91-37.1,4-55.69,5.29-52.26,3.61-104.59,3.39-156.87.98-27.6-1.27-55.12-4.16-82.67-6.33-11-.87-19.48,6.64-19.59,17.44-.04,4-.1,8.01.26,11.98.11,1.27,1.32,3.2,2.4,3.5,3.6,1,7.36,1.41,11.12,2.05.55-7.96,1.06-15.32,1.6-23.13,5.63.82,10.15,1.47,14.62,2.13,0,6.35-.03,12.14.01,17.94.03,3.7,1.6,5.44,5.66,5.7,13.96.89,27.88,2.52,41.85,3.26,50.94,2.72,101.91,3.34,152.9,1.38,14.45-.56,14.45-.43,14.18-15.12-.12-6.41-.54-6.68-6.73-7.05-14.59-.88-29.16-1.92-43.74-2.9ZM79.13,84.38c-.57.5-1.14,1-1.71,1.51,30.01,23.01,43.31,54.96,49.26,90.53h53.51v-86.66c10.06,8.25,20.07,14.05,32.22,14.51,12.38.47,22.26-5.65,31.67-13.02,1.14,1.33,1.99,2.33,2.84,3.32,6,6.98,10.71,8.28,18.9,4.17,5.47-2.75,10.56-6.3,15.61-9.79,1.13-.78,1.42-2.79,2.39-4.86-8.45,3.97-15.54,7.53-22.82,10.64-4.76,2.03-8.8.21-11.85-3.79-1.69-2.22-3.25-4.54-5.1-7.14-9.45,7.6-19.44,13.44-31.67,13.77-12.59.34-22.72-5.41-31.95-13.62-20.91,19.52-41.95,17.16-62.76.42-9.92,12.75-13.49,13.65-26.73,6.96-1.78-.9-3.51-1.91-5.23-2.92-2.21-1.31-4.39-2.67-6.58-4.01ZM181.59,246.71v.05c-25.83,0-51.66-.01-77.49.02-2.15,0-4.36.06-6.45.49-5.74,1.17-8.78,5.44-8.26,11.25.59,6.51,5.2,9.88,13.73,9.89,48.16.05,96.33.08,144.49.11,4.5,0,9,.1,13.5-.08,5.55-.22,9.58-3.7,10.61-8.84,1.54-7.68-3-12.84-11.63-12.86-26.16-.07-52.33-.02-78.49-.02ZM193.62,47.06c1.47.36,3.39.76,5.26,1.31,14.71,4.39,25.65,13.65,34.17,26.17.84,1.24,2.61,1.85,3.96,2.75-.28-1.62-.46-3.27-.89-4.85-.21-.76-.88-1.39-1.36-2.08-26.12-37.56-84.98-36.35-109.72,2.17-1.82,2.84-1.25,4.17,1.15,6.04,17.2,13.4,34.63,12.25,50.39-3.87,3.23-3.3,5.06-3.57,8.27-.13,5.39,5.76,11.7,10.32,19.65,12.2,4.16.99,6.75.17,6.07-4.62-.67-4.72-.78-9.91-2.93-13.94-3.93-7.36-9.19-14.01-14.03-21.15ZM289.43,523.38l.2-2.54c-2.56-.44-5.14-1.37-7.68-1.25-25.43,1.22-50.84,3.23-76.29,3.81-42.62.97-85.23.27-127.67-4.45-4.19-.47-6.81,1.45-7.57,5.47-.81,4.28,2.26,5.61,5.61,6.02,12.39,1.5,24.77,3.19,37.2,4.14,38.23,2.91,76.5,2.81,114.79,1.23,8.76-.36,8.77-.31,11.32-8.18,16.7-1.42,33.39-2.83,50.08-4.25ZM252.31,235.93c2.71-7.21-.52-12.1-8.03-12.55-8.97-.53-17.98-.44-26.97-.43-31.64.04-63.29.09-94.93.34-3.71.03-7.61.83-11.05,2.22-3.31,1.34-4.75,4.57-3.98,8.31.83,3.99,4.13,3.24,6.83,3.25,29.65.08,59.29.1,88.94.11,3.33,0,6.66-.25,9.99-.24,4.27,0,5.5-2.35,5.01-6.14-.14-1.1-.42-2.18-.72-3.74,7.19,0,13.97.13,20.74-.04,6.58-.16,12.68.17,14.17,8.9ZM276.15,508.42c-2.08-3.29-4.1-6.32-5.95-9.44-21.31-35.91-32.6-75.25-39.58-116.03-4.98-29.11-7.61-58.45-8.08-87.99-.02-1.42-.82-2.83-1.26-4.24-.51.1-1.01.19-1.52.29-.16,1.41-.45,2.82-.46,4.23-.31,47.68,3.61,94.83,17.34,140.78,7.38,24.72,17.68,48.08,32.27,69.45,1.61,2.36,3.02,5.09,7.24,2.95ZM244.56,190.13c-2.94-3.78-3.07-4.06-10.11-4.08-35.6-.12-71.21-.12-106.81-.13-1.82,0-3.66.18-5.46.49-2.93.49-6.23,1.58-5.33,5.07.46,1.77,3.67,2.93,5.78,4.11.77.43,1.96.1,2.96.1,26.62.04,53.24.01,79.86.19,4.69.03,8.68-.23,9.38-5.75h29.72ZM202.91,213.5c.15-.46.3-.93.45-1.39-3.5-1.15-6.94-2.6-10.52-3.41-18.88-4.25-38.06-3.5-57.21-3.08-6.8.15-7.07.42-7.11,7.88h74.4ZM175.91,33.61c9.09-.16,15.59-5.73,15.57-13.36-.01-6.24-5.6-11.94-11.69-11.9-7.74.05-14.23,6.97-14.12,15.06.1,7.31,3.12,10.32,10.23,10.2ZM325.8,637.12c5.22-2.8,7.05-6.97,7.82-11.65,1.6-9.75-1.62-18.18-8.25-25.12-5.5-5.76-11.57-10.99-17.53-16.29-8.29-7.37-15.55-15.48-19.93-25.84-.54-1.28-1.21-2.52-1.82-3.78-.3,8.81,2.57,16.57,8.16,22.91,6.36,7.22,13.18,14.09,20.29,20.58,11.2,10.22,16.44,21.95,11.28,37.01-.15.43-.02.96-.02,2.17ZM255.26,116.78c-13.69,11.92-27.65,51.59-20.52,61.14,3.68-22.09,9.04-42.65,20.52-61.14ZM216.99,173.3c3.95-16.61,7.9-33.21,11.91-50.03-8.78,13.42-14.96,37.64-11.91,50.03ZM342.29,689.56c.46.35.93.7,1.39,1.05,1.19-1,3.36-1.94,3.42-3,.34-5.72.16-11.46.16-17.2-.61-.25-1.23-.51-1.84-.76-1.04,1.18-2.91,2.3-2.99,3.54-.33,5.44-.14,10.91-.14,16.37Z"/>
      <path class="cls-1" d="M84.77,562.61c-1.83,8.85-5.47,16.96-10.68,24.36-2.78,3.94-5.83,7.7-8.9,11.43-8.44,10.25-13.6,21.38-9.17,35.9-5.04-.57-9.45-.85-13.73-1.72-1-.2-2.17-2.35-2.29-3.69-.64-7.55,1.06-14.61,5.6-20.75,2.26-3.07,4.87-5.92,7.57-8.62,5.77-5.77,12.15-10.99,17.45-17.15,5.23-6.09,9.43-13.06,14.16-19.76Z"/>
      <path class="cls-1" d="M102.83,103.97c5.63-3.34,10.74-6.37,16.23-9.63,9.54,19.91,15.68,41.57,16.77,64.76-6.58-21.32-17.34-40.12-32.99-55.13Z"/>
      <path class="cls-1" d="M229.18,251.42c10.79,0,21.27.01,31.75,0,3.72,0,6.25,1.62,6.46,5.42.21,3.69-1.62,6.42-5.3,7.51-1.09.32-2.31.28-3.47.28-20.33-.05-40.66-.12-60.99-.2-.77,0-1.54-.13-2.36-1.11,5.01-.45,10.01-.89,15.02-1.37,3.65-.34,7.29-.71,10.94-1.11,6.82-.74,7.89-1.93,7.96-9.41Z"/>
    </g>
  </g>
</svg>