<?xml version="1.0" encoding="UTF-8"?>
<svg id="Layer_2" data-name="Layer 2" xmlns="http://www.w3.org/2000/svg" viewBox="0 0 414.8 670.41">
  <defs>
    <style>
      .cls-1 {
        fill: #000;
      }

      .cls-1, .cls-2 {
        stroke-width: 0px;
      }

      .cls-2 {
        fill: #fff;
      }
    </style>
  </defs>
  <g id="rook">
    <g>
      <path class="cls-2" d="M297.65,197.3c4.34,0,9.49.33,14.58-.07,8.87-.7,16.17-7.52,18.03-16.25,2.01-9.42-1.26-19.46-9.7-22.42-7.59-2.67-7.67-7.4-8.15-13.42-.29-3.56.36-5.89,3.3-8.04,9.95-7.28,19.63-14.91,29.64-22.1,3.03-2.18,4.33-4.36,4.31-8.16-.19-33.5-.23-66.99-.11-100.49.01-4.03-1.01-5.57-5.22-5.59-21.99-.09-43.98-.42-65.97-.63-1.27-.01-2.54.32-4.28.56v48.32h-25.23V0h-83.18v49.05h-25.22V.89h-74.86c-.18,2.13-.38,3.42-.38,4.7-.02,34.16-.09,68.33.12,102.49.01,2.16,1.72,4.95,3.5,6.36,10.17,8.07,20.66,15.76,30.9,23.75,1.36,1.06,2.71,3.04,2.81,4.66.22,3.96-.29,7.96-.52,12.12-.8.34-1.69.77-2.62,1.1-11.1,3.97-16.52,12.4-15.01,23.38,1.45,10.54,9.57,17.54,21.18,18.06,4.11.19,8.23.03,12.73.03,0,3.65.2,6.62-.03,9.57-3.03,39.35-5.43,78.77-9.41,118.02-3.48,34.3-9.76,68.2-19.46,101.4-2.58,8.83-5.77,16.27-14.71,21.17-9.31,5.11-11.3,16.14-5.53,24.74,7.74,11.55,6.46,22.88-.59,33.65-4.14,6.33-9.66,11.86-15.08,17.22-6.4,6.31-13.53,11.86-20.05,18.06-11.34,10.79-16.8,23.94-14.04,39.66.96,5.47,3.26,10.7,5.06,16.39-2.89,1.57-6.13,3.21-9.24,5.05C5.37,608.26-.01,616.68.02,628.27c.01,5.83-.08,11.67.06,17.5.17,7.02,2.6,10.37,9.43,12.32,4.78,1.36,9.71,2.63,14.64,3.01,35.69,2.78,71.37,6.43,107.12,7.72,78.47,2.83,156.95,2.28,235.25-4.78,11.76-1.06,23.48-2.85,35.1-4.95,10.36-1.87,13.12-5.73,13.18-16.1.03-4.83-.09-9.66-.06-14.5.06-11.8-5.4-20.32-15.43-26.15-3.13-1.82-6.31-3.55-9.45-5.31,13.01-24.92,4.34-45.53-13.14-59.97-5.91-4.88-11.8-9.84-17.15-15.3-4.97-5.09-9.94-10.46-13.61-16.49-6.55-10.78-8-22.03-.08-33.25,3.98-5.64,4.18-12.12.57-17.93-2.01-3.25-5.14-6.37-8.52-8.08-6.1-3.08-8.84-7.84-10.72-14.06-8.79-29.09-15.25-58.7-18.75-88.82-4.27-36.72-7.53-73.55-10.67-110.39-.98-11.52-.15-23.18-.15-35.44Z"/>
      <path class="cls-1" d="M297.65,197.3c0,12.26-.83,23.93.15,35.44,3.14,36.83,6.4,73.67,10.67,110.39,3.5,30.12,9.97,59.74,18.75,88.82,1.88,6.23,4.61,10.98,10.72,14.06,3.37,1.7,6.5,4.83,8.52,8.08,3.6,5.81,3.41,12.29-.57,17.93-7.92,11.22-6.47,22.47.08,33.25,3.67,6.04,8.63,11.4,13.61,16.49,5.34,5.47,11.24,10.43,17.15,15.3,17.48,14.43,26.14,35.04,13.14,59.97,3.14,1.76,6.32,3.49,9.45,5.31,10.02,5.83,15.49,14.35,15.43,26.15-.03,4.83.09,9.66.06,14.5-.05,10.37-2.82,14.23-13.18,16.1-11.62,2.1-23.35,3.89-35.1,4.95-78.3,7.06-156.78,7.61-235.25,4.78-35.76-1.29-71.43-4.94-107.12-7.72-4.93-.38-9.86-1.65-14.64-3.01-6.83-1.95-9.26-5.3-9.43-12.32-.14-5.83-.04-11.66-.06-17.5-.03-11.58,5.35-20.01,15.15-25.8,3.12-1.84,6.35-3.48,9.24-5.05-1.8-5.69-4.1-10.92-5.06-16.39-2.77-15.72,2.7-28.87,14.04-39.66,6.51-6.2,13.65-11.75,20.05-18.06,5.43-5.35,10.94-10.89,15.08-17.22,7.05-10.77,8.34-22.11.59-33.65-5.77-8.6-3.78-19.63,5.53-24.74,8.93-4.9,12.13-12.35,14.71-21.17,9.7-33.19,15.98-67.1,19.46-101.4,3.98-39.26,6.38-78.67,9.41-118.02.23-2.94.03-5.92.03-9.57-4.5,0-8.62.16-12.73-.03-11.61-.53-19.73-7.52-21.18-18.06-1.51-10.98,3.91-19.41,15.01-23.38.93-.33,1.82-.76,2.62-1.1.23-4.16.75-8.16.52-12.12-.09-1.62-1.44-3.6-2.81-4.66-10.25-7.99-20.73-15.67-30.9-23.75-1.78-1.41-3.48-4.2-3.5-6.36-.21-34.16-.14-68.32-.12-102.49,0-1.29.2-2.58.38-4.7h74.86v48.17h25.22V0h83.18v49.01h25.23V.68c1.74-.24,3.01-.57,4.28-.56,21.99.21,43.98.54,65.97.63,4.21.02,5.23,1.56,5.22,5.59-.11,33.5-.07,66.99.11,100.49.02,3.8-1.28,5.98-4.31,8.16-10,7.19-19.69,14.83-29.64,22.1-2.93,2.15-3.58,4.48-3.3,8.04.48,6.02.56,10.75,8.15,13.42,8.44,2.97,11.71,13.01,9.7,22.42-1.86,8.74-9.16,15.55-18.03,16.25-5.09.4-10.24.07-14.58.07ZM240.46,445.15c-.68-9.81-1.55-18.91-1.91-28.03-2.48-63.09-4.89-126.17-7.24-189.26-.34-9.2-2.81-12.95-11.65-14.72-27.7-5.56-55.73-7.6-83.96-7.16-.6,0-1.19.36-1.78.55-4.64,79.5-10.48,158.61-33.5,235.9,46.66,2.83,92.9,3.63,140.04,2.73ZM88.91,481.2c2.26,21.65-8.31,36.94-22.58,50.48-4.11,3.9-8.47,7.53-12.59,11.42-4.48,4.23-9.09,8.36-13.13,12.98-5.99,6.83-7.46,15.02-5.9,23.87.88,5.02,3.33,7.91,8.82,8.35,24.4,1.93,48.75,4.61,73.17,6.05,46.1,2.72,92.25,2.85,138.39.72,19.95-.92,29.46-16.09,21.41-34.48-3.18-7.27-7.57-14.05-11.79-20.82-6.66-10.69-12.22-21.73-14.14-34.37-1.25-8.24-3.92-10.98-12.12-12.16-8.89-1.28-17.84-2.33-26.8-3.03-26.24-2.04-52.5-3.84-78.75-5.76-14.41-1.05-28.82-2.14-43.99-3.27ZM328.94,12.93v86.01h-63.95v-37.82h-27.9V11.58h-59.82v49.23h-57.27V12.35h-41.53c0,2.43,0,3.92,0,5.41.07,26.82.25,53.65.13,80.47-.02,4.38,1.12,5.61,5.56,5.61,81.97-.17,163.94-.17,245.91-.2,1.78,0,3.57,0,5.62,0,.14-2.06.34-3.51.33-4.97-.05-26.99-.22-53.98-.1-80.97.02-4.93-1.76-6.21-6.97-4.77ZM15.67,643.99c2.14.4,4.06.91,6.01,1.09,25.87,2.36,51.7,5.96,77.62,6.72,53.44,1.57,106.93,1.7,160.4,2.26,14.33.15,16.1-2.23,14.67-16.84-.37-3.76-1.74-5.41-5.85-5.59-22.3-.98-44.59-2.27-66.88-3.46-.83-.04-1.67-.03-2.49-.15-.77-.11-1.52-.36-2.27-.55,65.31-1.31,130.5-1.42,195.3-10.98-5.54-3.41-10.6-6.94-17.67-6.42-37.86,2.76-75.72,6.56-113.63,7.43-74.12,1.7-148.28,1.61-222.1-7.28-7.22-.87-12.59,3.28-18.09,6.81.07.58.14,1.15.21,1.73,27.53,2.72,55.07,5.43,82.6,8.15-.01.47-.03.94-.04,1.41-29.17-.97-58.33-1.94-87.77-2.92v18.6ZM207.32,185.99v.1c20.33,0,40.67,0,61,0,13,0,26,0,39-.08,6.74-.04,10.92-3.79,11.04-9.64.12-5.9-4.35-10.09-11.06-10.32-2-.07-4-.06-6-.06-64.17.04-128.34.08-192.51.15-1.81,0-3.69.09-5.42.57-4.14,1.13-6.48,4.12-6.87,8.28-.41,4.37,1.4,7.98,5.54,9.71,2.22.93,4.84,1.23,7.28,1.23,32.67.08,65.34.05,98,.05ZM332.67,459.78c.06-.89.11-1.79.17-2.68-3.38-.71-6.79-2.13-10.15-2.01-20.8.75-41.59,2.3-62.39,2.73-55.64,1.15-111.27.58-166.84-2.75-1.99-.12-4.07-.35-5.97.07-3.88.87-6.8,3.23-6.91,7.44-.12,4.38,3.03,5.97,6.88,6.35,4.64.47,9.29.89,13.94,1.22,48.39,3.45,96.85,3.93,145.33,3.06,8.64-.16,9.91-1.27,10.73-9.86,25.06-1.19,50.13-2.38,75.21-3.58ZM90.97,114.52c-.18.39-.36.77-.53,1.16,7.52,5.92,14.98,11.9,22.61,17.68,1.03.78,2.84.74,4.29.73,39.64-.04,79.28-.12,118.92-.22,1.47,0,3.63.21,4.3-.61,4.68-5.81,9.05-11.86,14.19-18.74H90.97ZM295.49,154.53c3.39,1.16,4.92.58,5.11-2.78.33-6.12-.58-7.4-6.91-7.4-54.15-.01-108.3.03-162.45.11-4.16,0-8.32.32-12.48.6-3.3.22-4.57,2.31-4.63,5.39-.07,3.22,1.47,5.01,4.7,5.25,1.33.1,2.66.16,3.99.16,37.82.03,75.64.07,113.47.06,7.36,0,7.67-.48,6.37-7.97,1.15-.1,2.27-.28,3.4-.28,14.16.03,28.33.25,42.49.07,4.87-.06,7.9.96,6.95,6.81ZM314.21,442.42c-.05-.78,0-1.29-.13-1.74-13.86-44.9-20.64-91.15-25.54-137.69-2.95-27.97-4.74-56.07-6.91-84.12-.26-3.32-1.13-5.06-4.93-4.37,0,4.44-.26,8.91.04,13.34,2.17,31.73,3.85,63.5,6.86,95.15,3.72,39.17,11.19,77.71,22.8,115.39,1.3,4.22,3.31,5.78,7.81,4.04ZM370.67,588.25c4.4.24,7.12-1.85,8.47-5.95,2.48-7.56,2-15.04-2.4-21.57-3.4-5.04-7.71-9.56-12.09-13.82-7.03-6.85-14.7-13.06-21.66-19.98-9.45-9.4-15.54-20.71-17.3-34.11-.26-2-.49-4-.73-6-1.19,1.19-1.59,2.38-1.74,3.6-1.61,13.36,2.37,25.29,10.9,35.23,7.23,8.43,15.38,16.15,23.71,23.53,11.72,10.38,17.98,22.14,12.59,38-.09.25.13.61.25,1.07ZM291.65,50.96V8.01c-2.82.29-5.38.55-7.91.81v42.13h7.91ZM324.89,115.69c-.34-.78-.67-1.57-1.01-2.35-3.02,1.19-6.47,1.81-8.98,3.68-6.7,4.99-13.01,10.53-19.47,15.85.39.53.79,1.06,1.18,1.59,12.03-2.24,18.29-13.37,28.27-18.77ZM398.76,623.9c-2.45.5-4.02.82-5.5,1.12v19.82c2.21-.37,3.93-.65,5.5-.91v-20.03Z"/>
      <path class="cls-1" d="M146.93,255.81c-.07,59.93-4.79,119.42-13.03,179.28-5.55-.33-10.79-.63-16.46-.96,16.41-58.67,24.01-118.34,29.49-178.31Z"/>
      <path class="cls-1" d="M70.1,583.73c-6.69-.49-12.59-.93-18.7-1.38-.7-7.75,1.27-14.45,5.61-20.09,4.34-5.65,9.24-10.95,14.42-15.85,12.35-11.68,23.4-24.19,29.15-40.57.16-.46.52-.84.78-1.26.46.21.92.42,1.39.63-2.37,6.93-3.9,14.3-7.3,20.67-4.92,9.2-10.94,17.85-16.95,26.4-6.55,9.3-11.23,18.92-8.39,31.45Z"/>
      <path class="cls-1" d="M91.96,27.99c2.79,22.45,5.57,44.91,8.4,67.66h-9.48V28.03c.36-.01.72-.03,1.09-.04Z"/>
      <path class="cls-1" d="M256.08,182.23c.41-4.26.76-7.97,1.17-12.32,5.41,0,11.5,0,17.6,0,10.48,0,20.96-.21,31.43.17,2.19.08,4.91,1.9,6.24,3.75.87,1.21.19,4.2-.75,5.85-.74,1.29-2.94,2.43-4.5,2.45-17.11.17-34.22.11-51.19.11Z"/>
    </g>
  </g>
</svg>